Slabo 27px b002.ufo
<glyph name="exclam" format="1">
  <advance width="240"/>
  <unicode hex="0021"/>
  <outline>
    <contour>
      <point x="92" y="540" type="line"/>
      <point x="166" y="540" type="line"/>
      <point x="150" y="150" type="line"/>
      <point x="109" y="150" type="line"/>
    </contour>
    <contour>
      <point x="80" y="39" type="qcurve"/>
      <point x="80" y="63"/>
      <point x="107" y="92"/>
      <point x="130" y="92" type="qcurve"/>
      <point x="153" y="92"/>
      <point x="180" y="63"/>
      <point x="180" y="43" type="qcurve"/>
      <point x="180" y="18"/>
      <point x="152" y="-10"/>
      <point x="128" y="-10" type="qcurve"/>
      <point x="106" y="-10"/>
      <point x="80" y="18"/>
    </contour>
  </outline>
</glyph>
<glyph name="numbersign" format="1">
  <advance width="420"/>
  <unicode hex="0023"/>
  <outline>
    <contour>
      <point x="390" y="340" type="line"/>
      <point x="386" y="300" type="line"/>
      <point x="307" y="300" type="line"/>
      <point x="296" y="180" type="line"/>
      <point x="376" y="180" type="line"/>
      <point x="372" y="140" type="line"/>
      <point x="292" y="140" type="line"/>
      <point x="280" y="0" type="line"/>
      <point x="230" y="0" type="line"/>
      <point x="243" y="140" type="line"/>
      <point x="157" y="140" type="line"/>
      <point x="145" y="0" type="line"/>
      <point x="96" y="0" type="line"/>
      <point x="109" y="140" type="line"/>
      <point x="30" y="140" type="line"/>
      <point x="34" y="180" type="line"/>
      <point x="112" y="180" type="line"/>
      <point x="123" y="300" type="line"/>
      <point x="44" y="300" type="line"/>
      <point x="48" y="340" type="line"/>
      <point x="127" y="340" type="line"/>
      <point x="140" y="480" type="line"/>
      <point x="188" y="480" type="line"/>
      <point x="175" y="340" type="line"/>
      <point x="262" y="340" type="line"/>
      <point x="275" y="480" type="line"/>
      <point x="323" y="480" type="line"/>
      <point x="310" y="340" type="line"/>
    </contour>
    <contour>
      <point x="161" y="180" type="line"/>
      <point x="247" y="180" type="line"/>
      <point x="258" y="300" type="line"/>
      <point x="172" y="300" type="line"/>
    </contour>
  </outline>
</glyph>
<glyph name="dollar" format="1">
  <advance width="420"/>
  <unicode hex="0024"/>
  <outline>
    <contour>
      <point x="180" y="-70" type="line"/>
      <point x="180" y="-2" type="line"/>
      <point x="109" y="-1"/>
      <point x="40" y="23" type="qcurve"/>
      <point x="40" y="130" type="line"/>
      <point x="92" y="130" type="line"/>
      <point x="92" y="61" type="line"/>
      <point x="126" y="50"/>
      <point x="180" y="49" type="qcurve"/>
      <point x="180" y="249" type="line"/>
      <point x="102" y="281"/>
      <point x="38" y="348"/>
      <point x="38" y="401" type="qcurve"/>
      <point x="38" y="458"/>
      <point x="113" y="532"/>
      <point x="180" y="540" type="qcurve"/>
      <point x="180" y="610" type="line"/>
      <point x="226" y="610" type="line"/>
      <point x="226" y="541" type="line"/>
      <point x="299" y="537"/>
      <point x="352" y="515" type="qcurve"/>
      <point x="352" y="420" type="line"/>
      <point x="300" y="420" type="line"/>
      <point x="300" y="479" type="line"/>
      <point x="266" y="490"/>
      <point x="226" y="491" type="qcurve"/>
      <point x="226" y="295" type="line"/>
      <point x="302" y="263"/>
      <point x="370" y="194"/>
      <point x="370" y="142" type="qcurve"/>
      <point x="370" y="86"/>
      <point x="297" y="10"/>
      <point x="226" y="1" type="qcurve"/>
      <point x="226" y="-70" type="line"/>
    </contour>
    <contour>
      <point x="308" y="132" type="qcurve"/>
      <point x="308" y="170"/>
      <point x="264" y="214"/>
      <point x="226" y="231" type="qcurve"/>
      <point x="226" y="51" type="line"/>
      <point x="268" y="58"/>
      <point x="308" y="102"/>
    </contour>
    <contour>
      <point x="100" y="409" type="qcurve"/>
      <point x="100" y="372"/>
      <point x="142" y="330"/>
      <point x="180" y="314" type="qcurve"/>
      <point x="180" y="490" type="line"/>
      <point x="139" y="485"/>
      <point x="100" y="440"/>
    </contour>
  </outline>
</glyph>
<glyph name="ampersand" format="1">
  <advance width="540"/>
  <unicode hex="0026"/>
  <outline>
    <contour>
      <point x="410" y="280" type="qcurve"/>
      <point x="360" y="280" type="line"/>
      <point x="360" y="330" type="line"/>
      <point x="520" y="330" type="line"/>
      <point x="520" y="280" type="line"/>
      <point x="462" y="280" type="line"/>
      <point x="457" y="184"/>
      <point x="416" y="109" type="qcurve"/>
      <point x="448" y="76"/>
      <point x="492" y="45"/>
      <point x="514" y="45" type="qcurve"/>
      <point x="528" y="45"/>
      <point x="540" y="47" type="qcurve"/>
      <point x="540" y="0" type="line"/>
      <point x="522" y="-5"/>
      <point x="503" y="-5" type="qcurve"/>
      <point x="474" y="-5"/>
      <point x="423" y="23"/>
      <point x="381" y="63" type="qcurve"/>
      <point x="314" y="-10"/>
      <point x="220" y="-10" type="qcurve"/>
      <point x="143" y="-10"/>
      <point x="47" y="79"/>
      <point x="47" y="143" type="qcurve"/>
      <point x="47" y="239"/>
      <point x="150" y="299" type="qcurve"/>
      <point x="90" y="367"/>
      <point x="90" y="423" type="qcurve"/>
      <point x="90" y="479"/>
      <point x="163" y="550"/>
      <point x="222" y="550" type="qcurve"/>
      <point x="278" y="550"/>
      <point x="350" y="489"/>
      <point x="350" y="439" type="qcurve"/>
      <point x="350" y="397"/>
      <point x="295" y="328"/>
      <point x="235" y="292" type="qcurve"/>
      <point x="251" y="274"/>
      <point x="291" y="233"/>
      <point x="310" y="213" type="qcurve"/>
      <point x="378" y="146" type="line"/>
      <point x="408" y="207"/>
    </contour>
    <contour>
      <point x="110" y="155" type="qcurve"/>
      <point x="110" y="104"/>
      <point x="175" y="40"/>
      <point x="228" y="40" type="qcurve"/>
      <point x="294" y="40"/>
      <point x="345" y="96" type="qcurve"/>
      <point x="313" y="127"/>
      <point x="229" y="210"/>
      <point x="180" y="265" type="qcurve"/>
      <point x="110" y="225"/>
    </contour>
    <contour>
      <point x="292" y="435" type="qcurve"/>
      <point x="292" y="466"/>
      <point x="252" y="500"/>
      <point x="220" y="500" type="qcurve"/>
      <point x="188" y="500"/>
      <point x="149" y="464"/>
      <point x="149" y="429" type="qcurve"/>
      <point x="149" y="382"/>
      <point x="205" y="325" type="qcurve"/>
      <point x="249" y="349"/>
      <point x="292" y="403"/>
    </contour>
  </outline>
</glyph>
<glyph name="quotesingle" format="1">
  <advance width="150"/>
  <unicode hex="0027"/>
  <outline>
    <contour>
      <point x="42" y="540" type="line"/>
      <point x="108" y="540" type="line"/>
      <point x="95" y="360" type="line"/>
      <point x="55" y="360" type="line"/>
    </contour>
  </outline>
</glyph>
<glyph name="parenleft" format="1">
  <advance width="270"/>
  <unicode hex="0028"/>
  <outline>
    <contour>
      <point x="110" y="243" type="qcurve"/>
      <point x="110" y="32"/>
      <point x="250" y="-120" type="qcurve"/>
      <point x="192" y="-120" type="line"/>
      <point x="46" y="42"/>
      <point x="47" y="239" type="qcurve"/>
      <point x="46" y="435"/>
      <point x="192" y="600" type="qcurve"/>
      <point x="250" y="600" type="line"/>
      <point x="110" y="449"/>
    </contour>
  </outline>
</glyph>
<glyph name="parenright" format="1">
  <advance width="270"/>
  <unicode hex="0029"/>
  <outline>
    <contour>
      <point x="160" y="239" type="qcurve"/>
      <point x="160" y="449"/>
      <point x="20" y="600" type="qcurve"/>
      <point x="78" y="600" type="line"/>
      <point x="224" y="435"/>
      <point x="223" y="243" type="qcurve"/>
      <point x="224" y="42"/>
      <point x="78" y="-120" type="qcurve"/>
      <point x="20" y="-120" type="line"/>
      <point x="160" y="32"/>
    </contour>
  </outline>
</glyph>
<glyph name="asterisk" format="1">
  <advance width="360"/>
  <unicode hex="002A"/>
  <outline>
    <contour>
      <point x="216" y="570" type="line"/>
      <point x="207" y="458" type="line"/>
      <point x="313" y="500" type="line"/>
      <point x="330" y="440" type="line"/>
      <point x="221" y="417" type="line"/>
      <point x="295" y="328" type="line"/>
      <point x="245" y="290" type="line"/>
      <point x="185" y="389" type="line"/>
      <point x="125" y="291" type="line"/>
      <point x="76" y="329" type="line"/>
      <point x="148" y="417" type="line"/>
      <point x="39" y="441" type="line"/>
      <point x="58" y="500" type="line"/>
      <point x="162" y="459" type="line"/>
      <point x="154" y="570" type="line"/>
    </contour>
  </outline>
</glyph>
<glyph name="plus" format="1">
  <advance width="390"/>
  <unicode hex="002B"/>
  <outline>
    <contour>
      <point x="222" y="50" type="line"/>
      <point x="168" y="50" type="line"/>
      <point x="168" y="183" type="line"/>
      <point x="30" y="183" type="line"/>
      <point x="30" y="237" type="line"/>
      <point x="168" y="237" type="line"/>
      <point x="168" y="370" type="line"/>
      <point x="222" y="370" type="line"/>
      <point x="222" y="237" type="line"/>
      <point x="360" y="237" type="line"/>
      <point x="360" y="183" type="line"/>
      <point x="222" y="183" type="line"/>
    </contour>
  </outline>
</glyph>
<glyph name="comma" format="1">
  <advance width="210"/>
  <unicode hex="002C"/>
  <outline>
    <contour>
      <point x="109" y="118" type="line"/>
      <point x="155" y="75"/>
      <point x="155" y="28" type="qcurve"/>
      <point x="155" y="-37"/>
      <point x="79" y="-104" type="qcurve"/>
      <point x="48" y="-75" type="line"/>
      <point x="91" y="-34"/>
      <point x="90" y="4" type="qcurve"/>
      <point x="90" y="34"/>
      <point x="52" y="69" type="qcurve"/>
    </contour>
  </outline>
</glyph>
<glyph name="hyphen" format="1">
  <advance width="210"/>
  <unicode hex="002D"/>
  <outline>
    <contour>
      <point x="30" y="230" type="line"/>
      <point x="180" y="230" type="line"/>
      <point x="180" y="180" type="line"/>
      <point x="30" y="180" type="line"/>
    </contour>
  </outline>
</glyph>
<glyph name="period" format="1">
  <advance width="180"/>
  <unicode hex="002E"/>
  <outline>
    <contour>
      <point x="50" y="39" type="qcurve"/>
      <point x="50" y="63"/>
      <point x="77" y="92"/>
      <point x="100" y="92" type="qcurve"/>
      <point x="123" y="92"/>
      <point x="150" y="63"/>
      <point x="150" y="43" type="qcurve"/>
      <point x="150" y="18"/>
      <point x="122" y="-10"/>
      <point x="98" y="-10" type="qcurve"/>
      <point x="76" y="-10"/>
      <point x="50" y="18"/>
    </contour>
  </outline>
</glyph>
<glyph name="slash" format="1">
  <advance width="240"/>
  <unicode hex="002F"/>
  <outline>
    <contour>
      <point x="200" y="540" type="line"/>
      <point x="252" y="540" type="line"/>
      <point x="40" y="-120" type="line"/>
      <point x="-12" y="-120" type="line"/>
    </contour>
  </outline>
</glyph>
<glyph name="zero" format="1">
  <advance width="420"/>
  <unicode hex="0030"/>
  <outline>
    <contour>
      <point x="40" y="224" type="qcurve"/>
      <point x="40" y="335"/>
      <point x="135" y="460"/>
      <point x="215" y="460" type="qcurve"/>
      <point x="289" y="460"/>
      <point x="380" y="339"/>
      <point x="380" y="230" type="qcurve"/>
      <point x="380" y="122"/>
      <point x="287" y="-10"/>
      <point x="208" y="-10" type="qcurve"/>
      <point x="132" y="-10"/>
      <point x="40" y="118"/>
    </contour>
    <contour>
      <point x="103" y="228" type="qcurve"/>
      <point x="103" y="137"/>
      <point x="160" y="40"/>
      <point x="209" y="40" type="qcurve"/>
      <point x="261" y="40"/>
      <point x="317" y="139"/>
      <point x="317" y="230" type="qcurve"/>
      <point x="317" y="317"/>
      <point x="264" y="410"/>
      <point x="211" y="410" type="qcurve"/>
      <point x="160" y="410"/>
      <point x="103" y="319"/>
    </contour>
  </outline>
</glyph>
<glyph name="one" format="1">
  <advance width="240"/>
  <unicode hex="0031"/>
  <outline>
    <contour>
      <point x="110" y="0" type="line"/>
      <point x="110" y="400" type="line"/>
      <point x="40" y="400" type="line"/>
      <point x="40" y="450" type="line"/>
      <point x="170" y="450" type="line"/>
      <point x="170" y="0" type="line"/>
    </contour>
  </outline>
</glyph>
<glyph name="two" format="1">
  <advance width="360"/>
  <unicode hex="0032"/>
  <outline>
    <contour>
      <point x="330" y="110" type="line"/>
      <point x="330" y="0" type="line"/>
      <point x="30" y="0" type="line"/>
      <point x="30" y="45" type="line"/>
      <point x="124" y="121"/>
      <point x="250" y="278"/>
      <point x="250" y="332" type="qcurve"/>
      <point x="250" y="368"/>
      <point x="216" y="410"/>
      <point x="170" y="410" type="qcurve"/>
      <point x="131" y="410"/>
      <point x="92" y="393" type="qcurve"/>
      <point x="92" y="320" type="line"/>
      <point x="40" y="320" type="line"/>
      <point x="40" y="422" type="line"/>
      <point x="109" y="460"/>
      <point x="177" y="460" type="qcurve"/>
      <point x="243" y="460"/>
      <point x="313" y="395"/>
      <point x="313" y="338" type="qcurve"/>
      <point x="313" y="273"/>
      <point x="186" y="113"/>
      <point x="110" y="52" type="qcurve"/>
      <point x="110" y="50" type="line"/>
      <point x="278" y="50" type="line"/>
      <point x="278" y="110" type="line"/>
    </contour>
  </outline>
</glyph>
<glyph name="three" format="1">
  <advance width="360"/>
  <unicode hex="0033"/>
  <outline>
    <contour>
      <point x="10" y="-32" type="line"/>
      <point x="67" y="-49"/>
      <point x="126" y="-49" type="qcurve"/>
      <point x="195" y="-49"/>
      <point x="267" y="6"/>
      <point x="267" y="61" type="qcurve"/>
      <point x="267" y="113"/>
      <point x="198" y="161"/>
      <point x="129" y="161" type="qcurve"/>
      <point x="100" y="161" type="line"/>
      <point x="100" y="210" type="line"/>
      <point x="120" y="210" type="line"/>
      <point x="180" y="210"/>
      <point x="247" y="270"/>
      <point x="247" y="323" type="qcurve"/>
      <point x="247" y="365"/>
      <point x="201" y="410"/>
      <point x="152" y="410" type="qcurve"/>
      <point x="108" y="410"/>
      <point x="72" y="395" type="qcurve"/>
      <point x="72" y="330" type="line"/>
      <point x="20" y="330" type="line"/>
      <point x="20" y="425" type="line"/>
      <point x="86" y="460"/>
      <point x="156" y="460" type="qcurve"/>
      <point x="228" y="460"/>
      <point x="310" y="386"/>
      <point x="310" y="327" type="qcurve"/>
      <point x="310" y="238"/>
      <point x="214" y="194" type="qcurve"/>
      <point x="214" y="192" type="line"/>
      <point x="330" y="167"/>
      <point x="330" y="61" type="qcurve"/>
      <point x="330" y="26"/>
      <point x="303" y="-33"/>
      <point x="251" y="-76"/>
      <point x="173" y="-100"/>
      <point x="123" y="-100" type="qcurve"/>
      <point x="63" y="-100"/>
      <point x="10" y="-84" type="qcurve"/>
    </contour>
  </outline>
</glyph>
<glyph name="four" format="1">
  <advance width="420"/>
  <unicode hex="0034"/>
  <outline>
    <contour>
      <point x="270" y="60" type="line"/>
      <point x="20" y="60" type="line"/>
      <point x="20" y="104" type="line"/>
      <point x="281" y="450" type="line"/>
      <point x="330" y="450" type="line"/>
      <point x="330" y="110" type="line"/>
      <point x="390" y="110" type="line"/>
      <point x="390" y="60" type="line"/>
      <point x="330" y="60" type="line"/>
      <point x="330" y="-60" type="line"/>
      <point x="270" y="-60" type="line"/>
    </contour>
    <contour>
      <point x="87" y="110" type="line"/>
      <point x="270" y="110" type="line"/>
      <point x="270" y="352" type="line"/>
      <point x="268" y="352" type="line"/>
      <point x="87" y="112" type="line"/>
    </contour>
  </outline>
</glyph>
<glyph name="five" format="1">
  <advance width="390"/>
  <unicode hex="0035"/>
  <outline>
    <contour>
      <point x="40" y="-36" type="line"/>
      <point x="89" y="-49"/>
      <point x="139" y="-49" type="qcurve"/>
      <point x="209" y="-49"/>
      <point x="287" y="14"/>
      <point x="287" y="79" type="qcurve"/>
      <point x="287" y="138"/>
      <point x="210" y="200"/>
      <point x="129" y="200" type="qcurve"/>
      <point x="92" y="200"/>
      <point x="50" y="196" type="qcurve"/>
      <point x="50" y="450" type="line"/>
      <point x="322" y="450" type="line"/>
      <point x="322" y="340" type="line"/>
      <point x="270" y="340" type="line"/>
      <point x="270" y="400" type="line"/>
      <point x="105" y="400" type="line"/>
      <point x="105" y="248" type="line"/>
      <point x="126" y="250"/>
      <point x="143" y="250" type="qcurve"/>
      <point x="236" y="250"/>
      <point x="350" y="165"/>
      <point x="350" y="83" type="qcurve"/>
      <point x="350" y="3"/>
      <point x="236" y="-100"/>
      <point x="137" y="-100" type="qcurve"/>
      <point x="85" y="-100"/>
      <point x="40" y="-89" type="qcurve"/>
    </contour>
  </outline>
</glyph>
<glyph name="six" format="1">
  <advance width="420"/>
  <unicode hex="0036"/>
  <outline>
    <contour>
      <point x="350" y="495" type="line"/>
      <point x="317" y="500"/>
      <point x="295" y="500" type="qcurve"/>
      <point x="201" y="500"/>
      <point x="106" y="383"/>
      <point x="103" y="276" type="qcurve"/>
      <point x="105" y="275" type="line"/>
      <point x="158" y="330"/>
      <point x="234" y="330" type="qcurve"/>
      <point x="303" y="330"/>
      <point x="390" y="242"/>
      <point x="390" y="176" type="qcurve"/>
      <point x="390" y="102"/>
      <point x="296" y="0"/>
      <point x="220" y="0" type="qcurve"/>
      <point x="136" y="0"/>
      <point x="40" y="131"/>
      <point x="40" y="252" type="qcurve"/>
      <point x="40" y="390"/>
      <point x="175" y="550"/>
      <point x="295" y="550" type="qcurve"/>
      <point x="319" y="550"/>
      <point x="350" y="545" type="qcurve"/>
    </contour>
    <contour>
      <point x="103" y="227" type="qcurve"/>
      <point x="108" y="149"/>
      <point x="167" y="50"/>
      <point x="222" y="50" type="qcurve"/>
      <point x="268" y="50"/>
      <point x="327" y="112"/>
      <point x="327" y="167" type="qcurve"/>
      <point x="327" y="218"/>
      <point x="272" y="280"/>
      <point x="223" y="280" type="qcurve"/>
      <point x="155" y="280"/>
    </contour>
  </outline>
</glyph>
<glyph name="seven" format="1">
  <advance width="360"/>
  <unicode hex="0037"/>
  <outline>
    <contour>
      <point x="110" y="-90" type="line"/>
      <point x="113" y="-27"/>
      <point x="148" y="105"/>
      <point x="198" y="232"/>
      <point x="258" y="349"/>
      <point x="287" y="398" type="qcurve"/>
      <point x="286" y="400" type="line"/>
      <point x="82" y="400" type="line"/>
      <point x="82" y="333" type="line"/>
      <point x="30" y="333" type="line"/>
      <point x="30" y="450" type="line"/>
      <point x="350" y="450" type="line"/>
      <point x="350" y="407" type="line"/>
      <point x="315" y="350"/>
      <point x="254" y="230"/>
      <point x="207" y="106"/>
      <point x="179" y="-23"/>
      <point x="178" y="-90" type="qcurve"/>
    </contour>
  </outline>
</glyph>
<glyph name="eight" format="1">
  <advance width="420"/>
  <unicode hex="0038"/>
  <outline>
    <contour>
      <point x="145" y="285" type="qcurve"/>
      <point x="145" y="287" type="line"/>
      <point x="47" y="336"/>
      <point x="47" y="412" type="qcurve"/>
      <point x="47" y="474"/>
      <point x="142" y="550"/>
      <point x="216" y="550" type="qcurve"/>
      <point x="289" y="550"/>
      <point x="373" y="480"/>
      <point x="373" y="422" type="qcurve"/>
      <point x="373" y="344"/>
      <point x="269" y="291" type="qcurve"/>
      <point x="269" y="289" type="line"/>
      <point x="327" y="259"/>
      <point x="383" y="189"/>
      <point x="383" y="145" type="qcurve"/>
      <point x="383" y="83"/>
      <point x="285" y="0"/>
      <point x="206" y="0" type="qcurve"/>
      <point x="129" y="0"/>
      <point x="37" y="76"/>
      <point x="37" y="137" type="qcurve"/>
      <point x="37" y="229"/>
    </contour>
    <contour>
      <point x="189" y="263" type="qcurve"/>
      <point x="100" y="218"/>
      <point x="100" y="140" type="qcurve"/>
      <point x="100" y="95"/>
      <point x="160" y="50"/>
      <point x="208" y="50" type="qcurve"/>
      <point x="259" y="50"/>
      <point x="320" y="98"/>
      <point x="320" y="136" type="qcurve"/>
      <point x="320" y="174"/>
      <point x="257" y="231"/>
    </contour>
    <contour>
      <point x="227" y="312" type="qcurve"/>
      <point x="313" y="359"/>
      <point x="313" y="420" type="qcurve"/>
      <point x="313" y="460"/>
      <point x="256" y="500"/>
      <point x="211" y="500" type="qcurve"/>
      <point x="166" y="500"/>
      <point x="107" y="460"/>
      <point x="107" y="425" type="qcurve"/>
      <point x="107" y="405"/>
      <point x="126" y="374"/>
      <point x="158" y="348"/>
      <point x="202" y="325"/>
    </contour>
  </outline>
</glyph>
<glyph name="nine" format="1">
  <advance width="420"/>
  <unicode hex="0039"/>
  <outline>
    <contour>
      <point x="70" y="-45" type="line"/>
      <point x="102" y="-50"/>
      <point x="125" y="-50" type="qcurve"/>
      <point x="218" y="-50"/>
      <point x="314" y="71"/>
      <point x="317" y="183" type="qcurve"/>
      <point x="315" y="184" type="line"/>
      <point x="262" y="130"/>
      <point x="186" y="130" type="qcurve"/>
      <point x="117" y="130"/>
      <point x="30" y="218"/>
      <point x="30" y="286" type="qcurve"/>
      <point x="30" y="360"/>
      <point x="124" y="460"/>
      <point x="200" y="460" type="qcurve"/>
      <point x="285" y="460"/>
      <point x="380" y="329"/>
      <point x="380" y="208" type="qcurve"/>
      <point x="380" y="66"/>
      <point x="244" y="-100"/>
      <point x="125" y="-100" type="qcurve"/>
      <point x="101" y="-100"/>
      <point x="70" y="-95" type="qcurve"/>
    </contour>
    <contour>
      <point x="317" y="233" type="qcurve"/>
      <point x="312" y="311"/>
      <point x="253" y="410"/>
      <point x="198" y="410" type="qcurve"/>
      <point x="152" y="410"/>
      <point x="93" y="348"/>
      <point x="93" y="293" type="qcurve"/>
      <point x="93" y="242"/>
      <point x="148" y="180"/>
      <point x="197" y="180" type="qcurve"/>
      <point x="264" y="180"/>
    </contour>
  </outline>
</glyph>
<glyph name="colon" format="1">
  <advance width="210"/>
  <unicode hex="003A"/>
  <outline>
    <contour>
      <point x="60" y="39" type="qcurve"/>
      <point x="60" y="63"/>
      <point x="87" y="92"/>
      <point x="110" y="92" type="qcurve"/>
      <point x="133" y="92"/>
      <point x="160" y="63"/>
      <point x="160" y="43" type="qcurve"/>
      <point x="160" y="18"/>
      <point x="132" y="-10"/>
      <point x="108" y="-10" type="qcurve"/>
      <point x="86" y="-10"/>
      <point x="60" y="18"/>
    </contour>
    <contour>
      <point x="60" y="337" type="qcurve"/>
      <point x="60" y="361"/>
      <point x="87" y="390"/>
      <point x="110" y="390" type="qcurve"/>
      <point x="133" y="390"/>
      <point x="160" y="361"/>
      <point x="160" y="341" type="qcurve"/>
      <point x="160" y="316"/>
      <point x="132" y="288"/>
      <point x="108" y="288" type="qcurve"/>
      <point x="86" y="288"/>
      <point x="60" y="316"/>
    </contour>
  </outline>
</glyph>
<glyph name="semicolon" format="1">
  <advance width="210"/>
  <unicode hex="003B"/>
  <outline>
    <contour>
      <point x="60" y="337" type="qcurve"/>
      <point x="60" y="361"/>
      <point x="87" y="390"/>
      <point x="110" y="390" type="qcurve"/>
      <point x="133" y="390"/>
      <point x="160" y="361"/>
      <point x="160" y="341" type="qcurve"/>
      <point x="160" y="316"/>
      <point x="132" y="288"/>
      <point x="108" y="288" type="qcurve"/>
      <point x="86" y="288"/>
      <point x="60" y="316"/>
    </contour>
    <contour>
      <point x="119" y="118" type="line"/>
      <point x="165" y="75"/>
      <point x="165" y="28" type="qcurve"/>
      <point x="165" y="-37"/>
      <point x="89" y="-104" type="qcurve"/>
      <point x="58" y="-75" type="line"/>
      <point x="101" y="-34"/>
      <point x="100" y="4" type="qcurve"/>
      <point x="100" y="34"/>
      <point x="62" y="69" type="qcurve"/>
    </contour>
  </outline>
</glyph>
<glyph name="less" format="1">
  <advance width="390"/>
  <unicode hex="003C"/>
  <outline>
    <contour>
      <point x="97" y="209" type="line"/>
      <point x="360" y="117" type="line"/>
      <point x="360" y="60" type="line"/>
      <point x="30" y="183" type="line"/>
      <point x="30" y="237" type="line"/>
      <point x="360" y="360" type="line"/>
      <point x="360" y="305" type="line"/>
      <point x="97" y="211" type="line"/>
    </contour>
  </outline>
</glyph>
<glyph name="equal" format="1">
  <advance width="390"/>
  <unicode hex="003D"/>
  <outline>
    <contour>
      <point x="30" y="246" type="line"/>
      <point x="30" y="300" type="line"/>
      <point x="360" y="300" type="line"/>
      <point x="360" y="246" type="line"/>
    </contour>
    <contour>
      <point x="30" y="120" type="line"/>
      <point x="30" y="174" type="line"/>
      <point x="360" y="174" type="line"/>
      <point x="360" y="120" type="line"/>
    </contour>
  </outline>
</glyph>
<glyph name="greater" format="1">
  <advance width="390"/>
  <unicode hex="003E"/>
  <outline>
    <contour>
      <point x="293" y="211" type="line"/>
      <point x="30" y="305" type="line"/>
      <point x="30" y="360" type="line"/>
      <point x="360" y="237" type="line"/>
      <point x="360" y="183" type="line"/>
      <point x="30" y="60" type="line"/>
      <point x="30" y="117" type="line"/>
      <point x="293" y="209" type="line"/>
    </contour>
  </outline>
</glyph>
<glyph name="question" format="1">
  <advance width="300"/>
  <unicode hex="003F"/>
  <outline>
    <contour>
      <point x="60" y="537" type="line"/>
      <point x="99" y="550"/>
      <point x="141" y="550" type="qcurve"/>
      <point x="202" y="550"/>
      <point x="282" y="480"/>
      <point x="282" y="420" type="qcurve"/>
      <point x="282" y="376"/>
      <point x="246" y="316"/>
      <point x="213" y="290" type="qcurve"/>
      <point x="180" y="263"/>
      <point x="147" y="220"/>
      <point x="147" y="190" type="qcurve"/>
      <point x="147" y="172"/>
      <point x="153" y="150" type="qcurve"/>
      <point x="109" y="150" type="line"/>
      <point x="98" y="180"/>
      <point x="98" y="210" type="qcurve"/>
      <point x="98" y="244"/>
      <point x="129" y="295"/>
      <point x="157" y="317" type="qcurve"/>
      <point x="184" y="339"/>
      <point x="220" y="381"/>
      <point x="220" y="418" type="qcurve"/>
      <point x="220" y="457"/>
      <point x="171" y="497"/>
      <point x="131" y="497" type="qcurve"/>
      <point x="99" y="497"/>
      <point x="60" y="485" type="qcurve"/>
    </contour>
    <contour>
      <point x="80" y="39" type="qcurve"/>
      <point x="80" y="63"/>
      <point x="107" y="92"/>
      <point x="130" y="92" type="qcurve"/>
      <point x="153" y="92"/>
      <point x="180" y="63"/>
      <point x="180" y="43" type="qcurve"/>
      <point x="180" y="18"/>
      <point x="152" y="-10"/>
      <point x="128" y="-10" type="qcurve"/>
      <point x="106" y="-10"/>
      <point x="80" y="18"/>
    </contour>
  </outline>
</glyph>
<glyph name="at" format="1">
  <advance width="660"/>
  <unicode hex="0040"/>
  <outline>
    <contour>
      <point x="480" y="-124" type="line"/>
      <point x="407" y="-150"/>
      <point x="330" y="-150" type="qcurve"/>
      <point x="202" y="-150"/>
      <point x="50" y="13"/>
      <point x="50" y="147" type="qcurve"/>
      <point x="50" y="289"/>
      <point x="219" y="480"/>
      <point x="352" y="480" type="qcurve"/>
      <point x="473" y="480"/>
      <point x="620" y="321"/>
      <point x="620" y="203" type="qcurve"/>
      <point x="620" y="113"/>
      <point x="536" y="-10"/>
      <point x="474" y="-10" type="qcurve"/>
      <point x="437" y="-10"/>
      <point x="390" y="35"/>
      <point x="390" y="78" type="qcurve"/>
      <point x="389" y="78" type="line"/>
      <point x="352" y="-10"/>
      <point x="286" y="-10" type="qcurve"/>
      <point x="244" y="-10"/>
      <point x="195" y="66"/>
      <point x="195" y="125" type="qcurve"/>
      <point x="195" y="212"/>
      <point x="282" y="330"/>
      <point x="357" y="330" type="qcurve"/>
      <point x="402" y="330"/>
      <point x="457" y="312" type="qcurve"/>
      <point x="447" y="175" type="line"/>
      <point x="441" y="116"/>
      <point x="441" y="85" type="qcurve"/>
      <point x="441" y="41"/>
      <point x="474" y="41" type="qcurve"/>
      <point x="512" y="41"/>
      <point x="562" y="134"/>
      <point x="562" y="203" type="qcurve"/>
      <point x="562" y="303"/>
      <point x="443" y="427"/>
      <point x="351" y="427" type="qcurve"/>
      <point x="247" y="427"/>
      <point x="110" y="272"/>
      <point x="110" y="153" type="qcurve"/>
      <point x="110" y="38"/>
      <point x="232" y="-95"/>
      <point x="334" y="-95" type="qcurve"/>
      <point x="403" y="-95"/>
      <point x="480" y="-69" type="qcurve"/>
    </contour>
    <contour>
      <point x="397" y="278" type="line"/>
      <point x="377" y="284"/>
      <point x="354" y="284" type="qcurve"/>
      <point x="311" y="284"/>
      <point x="260" y="195"/>
      <point x="260" y="129" type="qcurve"/>
      <point x="260" y="88"/>
      <point x="279" y="43"/>
      <point x="301" y="43" type="qcurve"/>
      <point x="336" y="43"/>
      <point x="385" y="152"/>
      <point x="391" y="211" type="qcurve"/>
    </contour>
  </outline>
</glyph>
<glyph name="A" format="1">
  <advance width="480"/>
  <unicode hex="0041"/>
  <outline>
    <contour>
      <point x="160" y="50" type="line"/>
      <point x="160" y="0" type="line"/>
      <point x="0" y="0" type="line"/>
      <point x="0" y="50" type="line"/>
      <point x="50" y="50" type="line"/>
      <point x="211" y="545" type="line"/>
      <point x="269" y="545" type="line"/>
      <point x="433" y="50" type="line"/>
      <point x="480" y="50" type="line"/>
      <point x="480" y="0" type="line"/>
      <point x="320" y="0" type="line"/>
      <point x="320" y="50" type="line"/>
      <point x="370" y="50" type="line"/>
      <point x="321" y="200" type="line"/>
      <point x="154" y="200" type="line"/>
      <point x="107" y="50" type="line"/>
    </contour>
    <contour>
      <point x="235" y="460" type="line"/>
      <point x="169" y="250" type="line"/>
      <point x="305" y="250" type="line"/>
      <point x="237" y="460" type="line"/>
    </contour>
  </outline>
</glyph>
<glyph name="B" format="1">
  <advance width="450"/>
  <unicode hex="0042"/>
  <outline>
    <contour>
      <point x="307" y="292" type="line"/>
      <point x="360" y="279"/>
      <point x="410" y="207"/>
      <point x="410" y="158" type="qcurve"/>
      <point x="410" y="84"/>
      <point x="313" y="0"/>
      <point x="212" y="0" type="qcurve"/>
      <point x="30" y="0" type="line"/>
      <point x="30" y="50" type="line"/>
      <point x="90" y="50" type="line"/>
      <point x="90" y="490" type="line"/>
      <point x="30" y="490" type="line"/>
      <point x="30" y="540" type="line"/>
      <point x="213" y="540" type="line"/>
      <point x="303" y="540"/>
      <point x="389" y="474"/>
      <point x="389" y="412" type="qcurve"/>
      <point x="389" y="370"/>
      <point x="350" y="309"/>
      <point x="307" y="294" type="qcurve"/>
    </contour>
    <contour>
      <point x="214" y="50" type="line"/>
      <point x="281" y="50"/>
      <point x="346" y="99"/>
      <point x="346" y="158" type="qcurve"/>
      <point x="346" y="210"/>
      <point x="285" y="260"/>
      <point x="219" y="260" type="qcurve"/>
      <point x="150" y="260" type="line"/>
      <point x="150" y="50" type="line"/>
    </contour>
    <contour>
      <point x="214" y="310" type="line"/>
      <point x="326" y="310"/>
      <point x="326" y="403" type="qcurve"/>
      <point x="326" y="450"/>
      <point x="270" y="490"/>
      <point x="209" y="490" type="qcurve"/>
      <point x="150" y="490" type="line"/>
      <point x="150" y="310" type="line"/>
    </contour>
  </outline>
</glyph>
<glyph name="C" format="1">
  <advance width="450"/>
  <unicode hex="0043"/>
  <outline>
    <contour>
      <point x="420" y="30" type="line"/>
      <point x="346" y="-10"/>
      <point x="270" y="-10" type="qcurve"/>
      <point x="163" y="-10"/>
      <point x="40" y="139"/>
      <point x="40" y="270" type="qcurve"/>
      <point x="40" y="400"/>
      <point x="166" y="550"/>
      <point x="271" y="550" type="qcurve"/>
      <point x="344" y="550"/>
      <point x="420" y="518" type="qcurve"/>
      <point x="420" y="400" type="line"/>
      <point x="365" y="400" type="line"/>
      <point x="365" y="479" type="line"/>
      <point x="325" y="495"/>
      <point x="269" y="495" type="qcurve"/>
      <point x="189" y="495"/>
      <point x="103" y="386"/>
      <point x="103" y="274" type="qcurve"/>
      <point x="103" y="157"/>
      <point x="193" y="45"/>
      <point x="273" y="45" type="qcurve"/>
      <point x="340" y="45"/>
      <point x="420" y="85" type="qcurve"/>
    </contour>
  </outline>
</glyph>
<glyph name="D" format="1">
  <advance width="510"/>
  <unicode hex="0044"/>
  <outline>
    <contour>
      <point x="30" y="50" type="line"/>
      <point x="90" y="50" type="line"/>
      <point x="90" y="490" type="line"/>
      <point x="30" y="490" type="line"/>
      <point x="30" y="540" type="line"/>
      <point x="209" y="540" type="line"/>
      <point x="339" y="540"/>
      <point x="463" y="411"/>
      <point x="463" y="284" type="qcurve"/>
      <point x="463" y="144"/>
      <point x="322" y="0"/>
      <point x="191" y="0" type="qcurve"/>
      <point x="30" y="0" type="line"/>
    </contour>
    <contour>
      <point x="150" y="50" type="line"/>
      <point x="198" y="50" type="line"/>
      <point x="295" y="50"/>
      <point x="400" y="160"/>
      <point x="400" y="278" type="qcurve"/>
      <point x="400" y="388"/>
      <point x="304" y="490"/>
      <point x="198" y="490" type="qcurve"/>
      <point x="150" y="490" type="line"/>
    </contour>
  </outline>
</glyph>
<glyph name="E" format="1">
  <advance width="420"/>
  <unicode hex="0045"/>
  <outline>
    <contour>
      <point x="337" y="50" type="line"/>
      <point x="337" y="120" type="line"/>
      <point x="390" y="120" type="line"/>
      <point x="390" y="0" type="line"/>
      <point x="30" y="0" type="line"/>
      <point x="30" y="50" type="line"/>
      <point x="90" y="50" type="line"/>
      <point x="90" y="490" type="line"/>
      <point x="30" y="490" type="line"/>
      <point x="30" y="540" type="line"/>
      <point x="380" y="540" type="line"/>
      <point x="380" y="420" type="line"/>
      <point x="327" y="420" type="line"/>
      <point x="327" y="490" type="line"/>
      <point x="150" y="490" type="line"/>
      <point x="150" y="300" type="line"/>
      <point x="250" y="300" type="line"/>
      <point x="250" y="350" type="line"/>
      <point x="300" y="350" type="line"/>
      <point x="300" y="190" type="line"/>
      <point x="250" y="190" type="line"/>
      <point x="250" y="250" type="line"/>
      <point x="150" y="250" type="line"/>
      <point x="150" y="50" type="line"/>
    </contour>
  </outline>
</glyph>
<glyph name="F" format="1">
  <advance width="390"/>
  <unicode hex="0046"/>
  <outline>
    <contour>
      <point x="150" y="240" type="line"/>
      <point x="150" y="50" type="line"/>
      <point x="220" y="50" type="line"/>
      <point x="220" y="0" type="line"/>
      <point x="30" y="0" type="line"/>
      <point x="30" y="50" type="line"/>
      <point x="90" y="50" type="line"/>
      <point x="90" y="490" type="line"/>
      <point x="30" y="490" type="line"/>
      <point x="30" y="540" type="line"/>
      <point x="380" y="540" type="line"/>
      <point x="380" y="420" type="line"/>
      <point x="327" y="420" type="line"/>
      <point x="327" y="490" type="line"/>
      <point x="150" y="490" type="line"/>
      <point x="150" y="290" type="line"/>
      <point x="260" y="290" type="line"/>
      <point x="260" y="340" type="line"/>
      <point x="310" y="340" type="line"/>
      <point x="310" y="180" type="line"/>
      <point x="260" y="180" type="line"/>
      <point x="260" y="240" type="line"/>
    </contour>
  </outline>
</glyph>
<glyph name="G" format="1">
  <advance width="510"/>
  <unicode hex="0047"/>
  <outline>
    <contour>
      <point x="310" y="250" type="line"/>
      <point x="480" y="250" type="line"/>
      <point x="480" y="200" type="line"/>
      <point x="440" y="200" type="line"/>
      <point x="440" y="25" type="line"/>
      <point x="365" y="-10"/>
      <point x="284" y="-10" type="qcurve"/>
      <point x="168" y="-10"/>
      <point x="40" y="139"/>
      <point x="40" y="270" type="qcurve"/>
      <point x="40" y="400"/>
      <point x="172" y="550"/>
      <point x="283" y="550" type="qcurve"/>
      <point x="360" y="550"/>
      <point x="440" y="518" type="qcurve"/>
      <point x="440" y="390" type="line"/>
      <point x="385" y="390" type="line"/>
      <point x="385" y="479" type="line"/>
      <point x="341" y="495"/>
      <point x="281" y="495" type="qcurve"/>
      <point x="195" y="495"/>
      <point x="103" y="386"/>
      <point x="103" y="274" type="qcurve"/>
      <point x="103" y="157"/>
      <point x="199" y="45"/>
      <point x="286" y="45" type="qcurve"/>
      <point x="332" y="45"/>
      <point x="381" y="59" type="qcurve"/>
      <point x="381" y="200" type="line"/>
      <point x="310" y="200" type="line"/>
    </contour>
  </outline>
</glyph>
<glyph name="H" format="1">
  <advance width="570"/>
  <unicode hex="0048"/>
  <outline>
    <contour>
      <point x="30" y="50" type="line"/>
      <point x="90" y="50" type="line"/>
      <point x="90" y="490" type="line"/>
      <point x="30" y="490" type="line"/>
      <point x="30" y="540" type="line"/>
      <point x="210" y="540" type="line"/>
      <point x="210" y="490" type="line"/>
      <point x="150" y="490" type="line"/>
      <point x="150" y="300" type="line"/>
      <point x="420" y="300" type="line"/>
      <point x="420" y="490" type="line"/>
      <point x="360" y="490" type="line"/>
      <point x="360" y="540" type="line"/>
      <point x="540" y="540" type="line"/>
      <point x="540" y="490" type="line"/>
      <point x="480" y="490" type="line"/>
      <point x="480" y="50" type="line"/>
      <point x="540" y="50" type="line"/>
      <point x="540" y="0" type="line"/>
      <point x="360" y="0" type="line"/>
      <point x="360" y="50" type="line"/>
      <point x="420" y="50" type="line"/>
      <point x="420" y="250" type="line"/>
      <point x="150" y="250" type="line"/>
      <point x="150" y="50" type="line"/>
      <point x="210" y="50" type="line"/>
      <point x="210" y="0" type="line"/>
      <point x="30" y="0" type="line"/>
    </contour>
  </outline>
</glyph>
<glyph name="I" format="1">
  <advance width="240"/>
  <unicode hex="0049"/>
  <outline>
    <contour>
      <point x="30" y="50" type="line"/>
      <point x="90" y="50" type="line"/>
      <point x="90" y="490" type="line"/>
      <point x="30" y="490" type="line"/>
      <point x="30" y="540" type="line"/>
      <point x="210" y="540" type="line"/>
      <point x="210" y="490" type="line"/>
      <point x="150" y="490" type="line"/>
      <point x="150" y="50" type="line"/>
      <point x="210" y="50" type="line"/>
      <point x="210" y="0" type="line"/>
      <point x="30" y="0" type="line"/>
    </contour>
  </outline>
</glyph>
<glyph name="J" format="1">
  <advance width="240"/>
  <unicode hex="004A"/>
  <outline>
    <contour>
      <point x="6" y="-95" type="line"/>
      <point x="19" y="-96"/>
      <point x="30" y="-96" type="qcurve"/>
      <point x="63" y="-96"/>
      <point x="90" y="-66"/>
      <point x="90" y="-20" type="qcurve"/>
      <point x="90" y="490" type="line"/>
      <point x="30" y="490" type="line"/>
      <point x="30" y="540" type="line"/>
      <point x="210" y="540" type="line"/>
      <point x="210" y="490" type="line"/>
      <point x="150" y="490" type="line"/>
      <point x="150" y="-13" type="line"/>
      <point x="150" y="-80"/>
      <point x="99" y="-150"/>
      <point x="36" y="-150" type="qcurve"/>
      <point x="21" y="-150"/>
      <point x="6" y="-147" type="qcurve"/>
    </contour>
  </outline>
</glyph>
<glyph name="K" format="1">
  <advance width="480"/>
  <unicode hex="004B"/>
  <outline>
    <contour>
      <point x="300" y="490" type="line"/>
      <point x="300" y="540" type="line"/>
      <point x="460" y="540" type="line"/>
      <point x="460" y="490" type="line"/>
      <point x="410" y="490" type="line"/>
      <point x="226" y="286" type="line"/>
      <point x="419" y="50" type="line"/>
      <point x="480" y="50" type="line"/>
      <point x="480" y="0" type="line"/>
      <point x="300" y="0" type="line"/>
      <point x="300" y="50" type="line"/>
      <point x="341" y="50" type="line"/>
      <point x="341" y="52" type="line"/>
      <point x="155" y="281" type="line"/>
      <point x="342" y="488" type="line"/>
      <point x="342" y="490" type="line"/>
    </contour>
    <contour>
      <point x="30" y="50" type="line"/>
      <point x="90" y="50" type="line"/>
      <point x="90" y="490" type="line"/>
      <point x="30" y="490" type="line"/>
      <point x="30" y="540" type="line"/>
      <point x="210" y="540" type="line"/>
      <point x="210" y="490" type="line"/>
      <point x="150" y="490" type="line"/>
      <point x="150" y="50" type="line"/>
      <point x="210" y="50" type="line"/>
      <point x="210" y="0" type="line"/>
      <point x="30" y="0" type="line"/>
    </contour>
  </outline>
</glyph>
<glyph name="L" format="1">
  <advance width="390"/>
  <unicode hex="004C"/>
  <outline>
    <contour>
      <point x="210" y="490" type="line"/>
      <point x="150" y="490" type="line"/>
      <point x="150" y="50" type="line"/>
      <point x="317" y="50" type="line"/>
      <point x="317" y="120" type="line"/>
      <point x="370" y="120" type="line"/>
      <point x="370" y="0" type="line"/>
      <point x="30" y="0" type="line"/>
      <point x="30" y="50" type="line"/>
      <point x="90" y="50" type="line"/>
      <point x="90" y="490" type="line"/>
      <point x="30" y="490" type="line"/>
      <point x="30" y="540" type="line"/>
      <point x="210" y="540" type="line"/>
    </contour>
  </outline>
</glyph>
<glyph name="M" format="1">
  <advance width="690"/>
  <unicode hex="004D"/>
  <outline>
    <contour>
      <point x="539" y="453" type="line"/>
      <point x="364" y="-5" type="line"/>
      <point x="318" y="-5" type="line"/>
      <point x="144" y="444" type="line"/>
      <point x="142" y="444" type="line"/>
      <point x="132" y="50" type="line"/>
      <point x="180" y="50" type="line"/>
      <point x="180" y="0" type="line"/>
      <point x="20" y="0" type="line"/>
      <point x="20" y="50" type="line"/>
      <point x="77" y="50" type="line"/>
      <point x="90" y="490" type="line"/>
      <point x="31" y="490" type="line"/>
      <point x="31" y="540" type="line"/>
      <point x="171" y="540" type="line"/>
      <point x="344" y="93" type="line"/>
      <point x="346" y="93" type="line"/>
      <point x="516" y="540" type="line"/>
      <point x="657" y="540" type="line"/>
      <point x="657" y="490" type="line"/>
      <point x="600" y="490" type="line"/>
      <point x="611" y="50" type="line"/>
      <point x="670" y="50" type="line"/>
      <point x="670" y="0" type="line"/>
      <point x="500" y="0" type="line"/>
      <point x="500" y="50" type="line"/>
      <point x="551" y="50" type="line"/>
      <point x="541" y="453" type="line"/>
    </contour>
  </outline>
</glyph>
<glyph name="N" format="1">
  <advance width="540"/>
  <unicode hex="004E"/>
  <outline>
    <contour>
      <point x="394" y="490" type="line"/>
      <point x="334" y="490" type="line"/>
      <point x="334" y="540" type="line"/>
      <point x="510" y="540" type="line"/>
      <point x="510" y="490" type="line"/>
      <point x="450" y="490" type="line"/>
      <point x="450" y="0" type="line"/>
      <point x="392" y="0" type="line"/>
      <point x="148" y="421" type="line"/>
      <point x="146" y="421" type="line"/>
      <point x="146" y="50" type="line"/>
      <point x="206" y="50" type="line"/>
      <point x="206" y="0" type="line"/>
      <point x="30" y="0" type="line"/>
      <point x="30" y="50" type="line"/>
      <point x="90" y="50" type="line"/>
      <point x="90" y="490" type="line"/>
      <point x="30" y="490" type="line"/>
      <point x="30" y="540" type="line"/>
      <point x="150" y="540" type="line"/>
      <point x="392" y="124" type="line"/>
      <point x="394" y="124" type="line"/>
    </contour>
  </outline>
</glyph>
<glyph name="O" format="1">
  <advance width="510"/>
  <unicode hex="004F"/>
  <outline>
    <contour>
      <point x="47" y="271" type="qcurve"/>
      <point x="47" y="401"/>
      <point x="162" y="550"/>
      <point x="260" y="550" type="qcurve"/>
      <point x="356" y="550"/>
      <point x="463" y="406"/>
      <point x="463" y="278" type="qcurve"/>
      <point x="463" y="142"/>
      <point x="348" y="-10"/>
      <point x="252" y="-10" type="qcurve"/>
      <point x="159" y="-10"/>
      <point x="47" y="139"/>
    </contour>
    <contour>
      <point x="110" y="274" type="qcurve"/>
      <point x="110" y="162"/>
      <point x="187" y="45"/>
      <point x="255" y="45" type="qcurve"/>
      <point x="323" y="45"/>
      <point x="400" y="162"/>
      <point x="400" y="275" type="qcurve"/>
      <point x="400" y="384"/>
      <point x="327" y="495"/>
      <point x="257" y="495" type="qcurve"/>
      <point x="186" y="495"/>
      <point x="110" y="387"/>
    </contour>
  </outline>
</glyph>
<glyph name="P" format="1">
  <advance width="420"/>
  <unicode hex="0050"/>
  <outline>
    <contour>
      <point x="150" y="220" type="line"/>
      <point x="150" y="50" type="line"/>
      <point x="220" y="50" type="line"/>
      <point x="220" y="0" type="line"/>
      <point x="30" y="0" type="line"/>
      <point x="30" y="50" type="line"/>
      <point x="90" y="50" type="line"/>
      <point x="90" y="490" type="line"/>
      <point x="30" y="490" type="line"/>
      <point x="30" y="540" type="line"/>
      <point x="211" y="540" type="line"/>
      <point x="299" y="540"/>
      <point x="383" y="463"/>
      <point x="383" y="390" type="qcurve"/>
      <point x="383" y="307"/>
      <point x="288" y="220"/>
      <point x="197" y="220" type="qcurve"/>
    </contour>
    <contour>
      <point x="200" y="270" type="line"/>
      <point x="258" y="270"/>
      <point x="320" y="323"/>
      <point x="320" y="383" type="qcurve"/>
      <point x="320" y="444"/>
      <point x="264" y="490"/>
      <point x="205" y="490" type="qcurve"/>
      <point x="150" y="490" type="line"/>
      <point x="150" y="270" type="line"/>
    </contour>
  </outline>
</glyph>
<glyph name="Q" format="1">
  <advance width="510"/>
  <unicode hex="0051"/>
  <outline>
    <contour>
      <point x="47" y="271" type="qcurve"/>
      <point x="47" y="401"/>
      <point x="163" y="550"/>
      <point x="260" y="550" type="qcurve"/>
      <point x="355" y="550"/>
      <point x="463" y="406"/>
      <point x="463" y="278" type="qcurve"/>
      <point x="463" y="159"/>
      <point x="379" y="19"/>
      <point x="317" y="1" type="qcurve"/>
      <point x="317" y="-1" type="line"/>
      <point x="343" y="-48"/>
      <point x="427" y="-98"/>
      <point x="477" y="-98" type="qcurve"/>
      <point x="525" y="-98"/>
      <point x="570" y="-79" type="qcurve"/>
      <point x="570" y="-130" type="line"/>
      <point x="523" y="-150"/>
      <point x="470" y="-150" type="qcurve"/>
      <point x="401" y="-150"/>
      <point x="284" y="-73"/>
      <point x="248" y="-10" type="qcurve"/>
      <point x="157" y="-7"/>
      <point x="47" y="140"/>
    </contour>
    <contour>
      <point x="110" y="274" type="qcurve"/>
      <point x="110" y="162"/>
      <point x="187" y="45"/>
      <point x="255" y="45" type="qcurve"/>
      <point x="323" y="45"/>
      <point x="400" y="162"/>
      <point x="400" y="275" type="qcurve"/>
      <point x="400" y="384"/>
      <point x="328" y="495"/>
      <point x="257" y="495" type="qcurve"/>
      <point x="186" y="495"/>
      <point x="110" y="387"/>
    </contour>
  </outline>
</glyph>
<glyph name="R" format="1">
  <advance width="450"/>
  <unicode hex="0052"/>
  <outline>
    <contour>
      <point x="150" y="50" type="line"/>
      <point x="210" y="50" type="line"/>
      <point x="210" y="0" type="line"/>
      <point x="30" y="0" type="line"/>
      <point x="30" y="50" type="line"/>
      <point x="90" y="50" type="line"/>
      <point x="90" y="490" type="line"/>
      <point x="37" y="490" type="line"/>
      <point x="37" y="540" type="line"/>
      <point x="211" y="540" type="line"/>
      <point x="304" y="540"/>
      <point x="390" y="472"/>
      <point x="390" y="405" type="qcurve"/>
      <point x="390" y="286"/>
      <point x="264" y="259" type="qcurve"/>
      <point x="264" y="257" type="line"/>
      <point x="278" y="249"/>
      <point x="310" y="216"/>
      <point x="334" y="171" type="qcurve"/>
      <point x="400" y="50" type="line"/>
      <point x="450" y="50" type="line"/>
      <point x="450" y="0" type="line"/>
      <point x="354" y="0" type="line"/>
      <point x="342" y="27"/>
      <point x="320" y="69"/>
      <point x="310" y="87" type="qcurve"/>
      <point x="273" y="156" type="line"/>
      <point x="253" y="191"/>
      <point x="229" y="227"/>
      <point x="214" y="239" type="qcurve"/>
      <point x="199" y="250"/>
      <point x="175" y="250" type="qcurve"/>
      <point x="150" y="250" type="line"/>
    </contour>
    <contour>
      <point x="198" y="300" type="line"/>
      <point x="262" y="300"/>
      <point x="327" y="347"/>
      <point x="327" y="399" type="qcurve"/>
      <point x="327" y="450"/>
      <point x="268" y="490"/>
      <point x="205" y="490" type="qcurve"/>
      <point x="150" y="490" type="line"/>
      <point x="150" y="300" type="line"/>
    </contour>
  </outline>
</glyph>
<glyph name="S" format="1">
  <advance width="390"/>
  <unicode hex="0053"/>
  <outline>
    <contour>
      <point x="177" y="-10" type="qcurve"/>
      <point x="101" y="-10"/>
      <point x="36" y="18" type="qcurve"/>
      <point x="36" y="130" type="line"/>
      <point x="90" y="130" type="line"/>
      <point x="90" y="56" type="line"/>
      <point x="125" y="43"/>
      <point x="182" y="43" type="qcurve"/>
      <point x="237" y="43"/>
      <point x="298" y="94"/>
      <point x="298" y="138" type="qcurve"/>
      <point x="298" y="161"/>
      <point x="281" y="194"/>
      <point x="252" y="219"/>
      <point x="208" y="240"/>
      <point x="180" y="251" type="qcurve"/>
      <point x="153" y="261"/>
      <point x="100" y="284"/>
      <point x="57" y="318"/>
      <point x="30" y="370"/>
      <point x="30" y="406" type="qcurve"/>
      <point x="30" y="471"/>
      <point x="126" y="550"/>
      <point x="208" y="550" type="qcurve"/>
      <point x="280" y="550"/>
      <point x="340" y="520" type="qcurve"/>
      <point x="340" y="410" type="line"/>
      <point x="286" y="410" type="line"/>
      <point x="286" y="482" type="line"/>
      <point x="250" y="497"/>
      <point x="203" y="497" type="qcurve"/>
      <point x="148" y="497"/>
      <point x="92" y="445"/>
      <point x="92" y="409" type="qcurve"/>
      <point x="92" y="387"/>
      <point x="109" y="356"/>
      <point x="140" y="332"/>
      <point x="185" y="314"/>
      <point x="213" y="303" type="qcurve"/>
      <point x="241" y="292"/>
      <point x="294" y="267"/>
      <point x="335" y="232"/>
      <point x="360" y="181"/>
      <point x="360" y="142" type="qcurve"/>
      <point x="360" y="73"/>
      <point x="261" y="-10"/>
    </contour>
  </outline>
</glyph>
<glyph name="T" format="1">
  <advance width="420"/>
  <unicode hex="0054"/>
  <outline>
    <contour>
      <point x="110" y="50" type="line"/>
      <point x="180" y="50" type="line"/>
      <point x="180" y="490" type="line"/>
      <point x="70" y="490" type="line"/>
      <point x="70" y="410" type="line"/>
      <point x="17" y="410" type="line"/>
      <point x="17" y="540" type="line"/>
      <point x="403" y="540" type="line"/>
      <point x="403" y="410" type="line"/>
      <point x="350" y="410" type="line"/>
      <point x="350" y="490" type="line"/>
      <point x="240" y="490" type="line"/>
      <point x="240" y="50" type="line"/>
      <point x="310" y="50" type="line"/>
      <point x="310" y="0" type="line"/>
      <point x="110" y="0" type="line"/>
    </contour>
  </outline>
</glyph>
<glyph name="U" format="1">
  <advance width="540"/>
  <unicode hex="0055"/>
  <outline>
    <contour>
      <point x="140" y="173" type="line"/>
      <point x="140" y="110"/>
      <point x="210" y="45"/>
      <point x="269" y="45" type="qcurve"/>
      <point x="333" y="45"/>
      <point x="404" y="113"/>
      <point x="404" y="176" type="qcurve"/>
      <point x="404" y="490" type="line"/>
      <point x="343" y="490" type="line"/>
      <point x="343" y="540" type="line"/>
      <point x="520" y="540" type="line"/>
      <point x="520" y="490" type="line"/>
      <point x="460" y="490" type="line"/>
      <point x="460" y="179" type="line"/>
      <point x="460" y="95"/>
      <point x="357" y="-10"/>
      <point x="268" y="-10" type="qcurve"/>
      <point x="182" y="-10"/>
      <point x="80" y="89"/>
      <point x="80" y="172" type="qcurve"/>
      <point x="80" y="490" type="line"/>
      <point x="20" y="490" type="line"/>
      <point x="20" y="540" type="line"/>
      <point x="200" y="540" type="line"/>
      <point x="200" y="490" type="line"/>
      <point x="140" y="490" type="line"/>
    </contour>
  </outline>
</glyph>
<glyph name="V" format="1">
  <advance width="480"/>
  <unicode hex="0056"/>
  <outline>
    <contour>
      <point x="245" y="80" type="line"/>
      <point x="371" y="490" type="line"/>
      <point x="320" y="490" type="line"/>
      <point x="320" y="540" type="line"/>
      <point x="480" y="540" type="line"/>
      <point x="480" y="490" type="line"/>
      <point x="428" y="490" type="line"/>
      <point x="269" y="-5" type="line"/>
      <point x="211" y="-5" type="line"/>
      <point x="49" y="490" type="line"/>
      <point x="0" y="490" type="line"/>
      <point x="0" y="540" type="line"/>
      <point x="160" y="540" type="line"/>
      <point x="160" y="490" type="line"/>
      <point x="112" y="490" type="line"/>
      <point x="243" y="80" type="line"/>
    </contour>
  </outline>
</glyph>
<glyph name="W" format="1">
  <advance width="720"/>
  <unicode hex="0057"/>
  <outline>
    <contour>
      <point x="490" y="80" type="line"/>
      <point x="611" y="490" type="line"/>
      <point x="560" y="490" type="line"/>
      <point x="560" y="540" type="line"/>
      <point x="720" y="540" type="line"/>
      <point x="720" y="490" type="line"/>
      <point x="668" y="490" type="line"/>
      <point x="514" y="-5" type="line"/>
      <point x="456" y="-5" type="line"/>
      <point x="360" y="288" type="line"/>
      <point x="358" y="288" type="line"/>
      <point x="264" y="-5" type="line"/>
      <point x="206" y="-5" type="line"/>
      <point x="49" y="490" type="line"/>
      <point x="0" y="490" type="line"/>
      <point x="0" y="540" type="line"/>
      <point x="160" y="540" type="line"/>
      <point x="160" y="490" type="line"/>
      <point x="112" y="490" type="line"/>
      <point x="238" y="80" type="line"/>
      <point x="240" y="80" type="line"/>
      <point x="333" y="369" type="line"/>
      <point x="293" y="490" type="line"/>
      <point x="240" y="490" type="line"/>
      <point x="240" y="540" type="line"/>
      <point x="410" y="540" type="line"/>
      <point x="410" y="490" type="line"/>
      <point x="353" y="490" type="line"/>
      <point x="488" y="80" type="line"/>
    </contour>
  </outline>
</glyph>
<glyph name="X" format="1">
  <advance width="450"/>
  <unicode hex="0058"/>
  <outline>
    <contour>
      <point x="64" y="490" type="line"/>
      <point x="10" y="490" type="line"/>
      <point x="10" y="540" type="line"/>
      <point x="180" y="540" type="line"/>
      <point x="180" y="490" type="line"/>
      <point x="132" y="490" type="line"/>
      <point x="230" y="328" type="line"/>
      <point x="330" y="490" type="line"/>
      <point x="280" y="490" type="line"/>
      <point x="280" y="540" type="line"/>
      <point x="440" y="540" type="line"/>
      <point x="440" y="490" type="line"/>
      <point x="391" y="490" type="line"/>
      <point x="258" y="282" type="line"/>
      <point x="400" y="50" type="line"/>
      <point x="450" y="50" type="line"/>
      <point x="450" y="0" type="line"/>
      <point x="280" y="0" type="line"/>
      <point x="280" y="50" type="line"/>
      <point x="331" y="50" type="line"/>
      <point x="218" y="235" type="line"/>
      <point x="109" y="50" type="line"/>
      <point x="160" y="50" type="line"/>
      <point x="160" y="0" type="line"/>
      <point x="0" y="0" type="line"/>
      <point x="0" y="50" type="line"/>
      <point x="48" y="50" type="line"/>
      <point x="191" y="280" type="line"/>
    </contour>
  </outline>
</glyph>
<glyph name="Y" format="1">
  <advance width="480"/>
  <unicode hex="0059"/>
  <outline>
    <contour>
      <point x="210" y="240" type="line"/>
      <point x="46" y="490" type="line"/>
      <point x="0" y="490" type="line"/>
      <point x="0" y="540" type="line"/>
      <point x="160" y="540" type="line"/>
      <point x="160" y="490" type="line"/>
      <point x="114" y="490" type="line"/>
      <point x="244" y="292" type="line"/>
      <point x="370" y="490" type="line"/>
      <point x="320" y="490" type="line"/>
      <point x="320" y="540" type="line"/>
      <point x="480" y="540" type="line"/>
      <point x="480" y="490" type="line"/>
      <point x="433" y="490" type="line"/>
      <point x="270" y="240" type="line"/>
      <point x="270" y="50" type="line"/>
      <point x="340" y="50" type="line"/>
      <point x="340" y="0" type="line"/>
      <point x="140" y="0" type="line"/>
      <point x="140" y="50" type="line"/>
      <point x="210" y="50" type="line"/>
    </contour>
  </outline>
</glyph>
<glyph name="Z" format="1">
  <advance width="450"/>
  <unicode hex="005A"/>
  <outline>
    <contour>
      <point x="30" y="45" type="line"/>
      <point x="323" y="490" type="line"/>
      <point x="93" y="490" type="line"/>
      <point x="93" y="420" type="line"/>
      <point x="40" y="420" type="line"/>
      <point x="40" y="540" type="line"/>
      <point x="400" y="540" type="line"/>
      <point x="400" y="495" type="line"/>
      <point x="107" y="50" type="line"/>
      <point x="357" y="50" type="line"/>
      <point x="357" y="120" type="line"/>
      <point x="410" y="120" type="line"/>
      <point x="410" y="0" type="line"/>
      <point x="30" y="0" type="line"/>
    </contour>
  </outline>
</glyph>
<glyph name="bracketleft" format="1">
  <advance width="240"/>
  <unicode hex="005B"/>
  <outline>
    <contour>
      <point x="60" y="600" type="line"/>
      <point x="200" y="600" type="line"/>
      <point x="200" y="550" type="line"/>
      <point x="115" y="550" type="line"/>
      <point x="115" y="-70" type="line"/>
      <point x="200" y="-70" type="line"/>
      <point x="200" y="-120" type="line"/>
      <point x="60" y="-120" type="line"/>
    </contour>
  </outline>
</glyph>
<glyph name="backslash" format="1">
  <advance width="240"/>
  <unicode hex="005C"/>
  <outline>
    <contour>
      <point x="252" y="-120" type="line"/>
      <point x="200" y="-120" type="line"/>
      <point x="-12" y="540" type="line"/>
      <point x="40" y="540" type="line"/>
    </contour>
  </outline>
</glyph>
<glyph name="bracketright" format="1">
  <advance width="240"/>
  <unicode hex="005D"/>
  <outline>
    <contour>
      <point x="180" y="-120" type="line"/>
      <point x="40" y="-120" type="line"/>
      <point x="40" y="-70" type="line"/>
      <point x="125" y="-70" type="line"/>
      <point x="125" y="550" type="line"/>
      <point x="40" y="550" type="line"/>
      <point x="40" y="600" type="line"/>
      <point x="180" y="600" type="line"/>
    </contour>
  </outline>
</glyph>
<glyph name="asciicircum" format="1">
  <advance width="360"/>
  <unicode hex="005E"/>
  <outline>
    <contour>
      <point x="179" y="480" type="line"/>
      <point x="85" y="270" type="line"/>
      <point x="27" y="270" type="line"/>
      <point x="158" y="545" type="line"/>
      <point x="203" y="545" type="line"/>
      <point x="334" y="270" type="line"/>
      <point x="276" y="270" type="line"/>
      <point x="181" y="480" type="line"/>
    </contour>
  </outline>
</glyph>
<glyph name="underscore" format="1">
  <advance width="300"/>
  <unicode hex="005F"/>
  <outline>
    <contour>
      <point x="-10" y="-45" type="line"/>
      <point x="310" y="-45" type="line"/>
      <point x="310" y="-90" type="line"/>
      <point x="-10" y="-90" type="line"/>
    </contour>
  </outline>
</glyph>
<glyph name="a" format="1">
  <advance width="390"/>
  <unicode hex="0061"/>
  <outline>
    <contour>
      <point x="60" y="361" type="line"/>
      <point x="129" y="400"/>
      <point x="201" y="400" type="qcurve"/>
      <point x="263" y="400"/>
      <point x="330" y="343"/>
      <point x="330" y="281" type="qcurve"/>
      <point x="330" y="50" type="line"/>
      <point x="380" y="50" type="line"/>
      <point x="380" y="0" type="line"/>
      <point x="276" y="0" type="line"/>
      <point x="273" y="45" type="line"/>
      <point x="271" y="46" type="line"/>
      <point x="223" y="-10"/>
      <point x="153" y="-10" type="qcurve"/>
      <point x="101" y="-10"/>
      <point x="40" y="51"/>
      <point x="40" y="98" type="qcurve"/>
      <point x="40" y="161"/>
      <point x="149" y="223"/>
      <point x="253" y="223" type="qcurve"/>
      <point x="270" y="223" type="line"/>
      <point x="270" y="282" type="line"/>
      <point x="270" y="319"/>
      <point x="235" y="350"/>
      <point x="194" y="350" type="qcurve"/>
      <point x="145" y="350"/>
      <point x="112" y="334" type="qcurve"/>
      <point x="112" y="280" type="line"/>
      <point x="60" y="280" type="line"/>
    </contour>
    <contour>
      <point x="246" y="180" type="line"/>
      <point x="177" y="180"/>
      <point x="103" y="145"/>
      <point x="103" y="101" type="qcurve"/>
      <point x="103" y="69"/>
      <point x="139" y="40"/>
      <point x="167" y="40" type="qcurve"/>
      <point x="227" y="40"/>
      <point x="270" y="89" type="qcurve"/>
      <point x="270" y="180" type="line"/>
    </contour>
  </outline>
</glyph>
<glyph name="b" format="1">
  <advance width="420"/>
  <unicode hex="0062"/>
  <outline>
    <contour>
      <point x="135" y="46" type="line"/>
      <point x="165" y="40"/>
      <point x="194" y="40" type="qcurve"/>
      <point x="254" y="40"/>
      <point x="317" y="114"/>
      <point x="317" y="195" type="qcurve"/>
      <point x="317" y="267"/>
      <point x="268" y="350"/>
      <point x="218" y="350" type="qcurve"/>
      <point x="174" y="350"/>
      <point x="135" y="317" type="qcurve"/>
    </contour>
    <contour>
      <point x="135" y="365" type="line"/>
      <point x="137" y="364" type="line"/>
      <point x="179" y="400"/>
      <point x="236" y="400" type="qcurve"/>
      <point x="301" y="400"/>
      <point x="380" y="290"/>
      <point x="380" y="204" type="qcurve"/>
      <point x="380" y="104"/>
      <point x="279" y="-10"/>
      <point x="191" y="-10" type="qcurve"/>
      <point x="134" y="-10"/>
      <point x="75" y="9" type="qcurve"/>
      <point x="75" y="550" type="line"/>
      <point x="25" y="550" type="line"/>
      <point x="25" y="600" type="line"/>
      <point x="135" y="600" type="line"/>
    </contour>
  </outline>
</glyph>
<glyph name="c" format="1">
  <advance width="360"/>
  <unicode hex="0063"/>
  <outline>
    <contour>
      <point x="320" y="15" type="line"/>
      <point x="272" y="-10"/>
      <point x="215" y="-10" type="qcurve"/>
      <point x="134" y="-10"/>
      <point x="40" y="94"/>
      <point x="40" y="191" type="qcurve"/>
      <point x="40" y="289"/>
      <point x="139" y="400"/>
      <point x="218" y="400" type="qcurve"/>
      <point x="273" y="400"/>
      <point x="320" y="377" type="qcurve"/>
      <point x="320" y="280" type="line"/>
      <point x="267" y="280" type="line"/>
      <point x="267" y="341" type="line"/>
      <point x="245" y="350"/>
      <point x="213" y="350" type="qcurve"/>
      <point x="157" y="350"/>
      <point x="103" y="279"/>
      <point x="103" y="202" type="qcurve"/>
      <point x="103" y="120"/>
      <point x="161" y="42"/>
      <point x="216" y="42" type="qcurve"/>
      <point x="270" y="42"/>
      <point x="320" y="69" type="qcurve"/>
    </contour>
  </outline>
</glyph>
<glyph name="d" format="1">
  <advance width="420"/>
  <unicode hex="0064"/>
  <outline>
    <contour>
      <point x="230" y="550" type="line"/>
      <point x="230" y="600" type="line"/>
      <point x="350" y="600" type="line"/>
      <point x="350" y="50" type="line"/>
      <point x="400" y="50" type="line"/>
      <point x="400" y="0" type="line"/>
      <point x="293" y="0" type="line"/>
      <point x="290" y="34" type="line"/>
      <point x="288" y="35" type="line"/>
      <point x="246" y="-10"/>
      <point x="188" y="-10" type="qcurve"/>
      <point x="120" y="-10"/>
      <point x="40" y="100"/>
      <point x="40" y="189" type="qcurve"/>
      <point x="40" y="283"/>
      <point x="136" y="400"/>
      <point x="212" y="400" type="qcurve"/>
      <point x="250" y="400"/>
      <point x="288" y="382" type="qcurve"/>
      <point x="290" y="383" type="line"/>
      <point x="290" y="550" type="line"/>
    </contour>
    <contour>
      <point x="290" y="336" type="line"/>
      <point x="253" y="350"/>
      <point x="215" y="350" type="qcurve"/>
      <point x="158" y="350"/>
      <point x="103" y="275"/>
      <point x="103" y="196" type="qcurve"/>
      <point x="103" y="120"/>
      <point x="152" y="40"/>
      <point x="203" y="40" type="qcurve"/>
      <point x="253" y="40"/>
      <point x="290" y="80" type="qcurve"/>
    </contour>
  </outline>
</glyph>
<glyph name="e" format="1">
  <advance width="360"/>
  <unicode hex="0065"/>
  <outline>
    <contour>
      <point x="320" y="75" type="qcurve"/>
      <point x="320" y="21" type="line"/>
      <point x="270" y="-10"/>
      <point x="203" y="-10" type="qcurve"/>
      <point x="124" y="-10"/>
      <point x="35" y="96"/>
      <point x="35" y="191" type="qcurve"/>
      <point x="35" y="289"/>
      <point x="129" y="400"/>
      <point x="200" y="400" type="qcurve"/>
      <point x="258" y="400"/>
      <point x="330" y="308"/>
      <point x="330" y="223" type="qcurve"/>
      <point x="330" y="192" type="line"/>
      <point x="97" y="192" type="line"/>
      <point x="99" y="122"/>
      <point x="150" y="44"/>
      <point x="206" y="42" type="qcurve"/>
      <point x="268" y="42"/>
    </contour>
    <contour>
      <point x="270" y="240" type="line"/>
      <point x="270" y="297"/>
      <point x="228" y="350"/>
      <point x="190" y="350" type="qcurve"/>
      <point x="153" y="350"/>
      <point x="103" y="295"/>
      <point x="98" y="240" type="qcurve"/>
    </contour>
  </outline>
</glyph>
<glyph name="f" format="1">
  <advance width="240"/>
  <unicode hex="0066"/>
  <outline>
    <contour>
      <point x="292" y="500" type="line"/>
      <point x="240" y="500" type="line"/>
      <point x="240" y="554" type="line"/>
      <point x="225" y="557"/>
      <point x="210" y="557" type="qcurve"/>
      <point x="173" y="557"/>
      <point x="140" y="517"/>
      <point x="140" y="472" type="qcurve"/>
      <point x="140" y="390" type="line"/>
      <point x="230" y="390" type="line"/>
      <point x="230" y="340" type="line"/>
      <point x="140" y="340" type="line"/>
      <point x="140" y="50" type="line"/>
      <point x="190" y="50" type="line"/>
      <point x="190" y="0" type="line"/>
      <point x="30" y="0" type="line"/>
      <point x="30" y="50" type="line"/>
      <point x="80" y="50" type="line"/>
      <point x="80" y="340" type="line"/>
      <point x="30" y="340" type="line"/>
      <point x="30" y="390" type="line"/>
      <point x="80" y="390" type="line"/>
      <point x="80" y="463" type="line"/>
      <point x="80" y="535"/>
      <point x="149" y="605"/>
      <point x="209" y="605" type="qcurve"/>
      <point x="248" y="605"/>
      <point x="292" y="590" type="qcurve"/>
    </contour>
  </outline>
</glyph>
<glyph name="g" format="1">
  <advance width="360"/>
  <unicode hex="0067"/>
  <outline>
    <contour>
      <point x="40" y="259" type="qcurve"/>
      <point x="40" y="321"/>
      <point x="118" y="400"/>
      <point x="179" y="400" type="qcurve"/>
      <point x="201" y="400"/>
      <point x="219" y="395" type="qcurve"/>
      <point x="235" y="390"/>
      <point x="255" y="390" type="qcurve"/>
      <point x="350" y="390" type="line"/>
      <point x="350" y="342" type="line"/>
      <point x="293" y="342" type="line"/>
      <point x="293" y="341" type="line"/>
      <point x="312" y="308"/>
      <point x="312" y="268" type="qcurve"/>
      <point x="312" y="202"/>
      <point x="235" y="120"/>
      <point x="174" y="120" type="qcurve"/>
      <point x="146" y="120"/>
      <point x="124" y="128" type="qcurve"/>
      <point x="105" y="106"/>
      <point x="105" y="86" type="qcurve"/>
      <point x="105" y="74"/>
      <point x="121" y="60"/>
      <point x="138" y="60" type="qcurve"/>
      <point x="208" y="60" type="line"/>
      <point x="274" y="60"/>
      <point x="345" y="6"/>
      <point x="345" y="-47" type="qcurve"/>
      <point x="345" y="-112"/>
      <point x="241" y="-190"/>
      <point x="162" y="-190" type="qcurve"/>
      <point x="98" y="-190"/>
      <point x="20" y="-130"/>
      <point x="20" y="-83" type="qcurve"/>
      <point x="20" y="-29"/>
      <point x="74" y="16" type="qcurve"/>
      <point x="50" y="36"/>
      <point x="50" y="68" type="qcurve"/>
      <point x="50" y="108"/>
      <point x="93" y="144" type="qcurve"/>
      <point x="40" y="185"/>
    </contour>
    <contour>
      <point x="111" y="0" type="line"/>
      <point x="80" y="-30"/>
      <point x="80" y="-70" type="qcurve"/>
      <point x="80" y="-104"/>
      <point x="124" y="-143"/>
      <point x="170" y="-143" type="qcurve"/>
      <point x="224" y="-143"/>
      <point x="285" y="-98"/>
      <point x="285" y="-62" type="qcurve"/>
      <point x="285" y="-31"/>
      <point x="244" y="0"/>
      <point x="208" y="0" type="qcurve"/>
    </contour>
    <contour>
      <point x="102" y="264" type="qcurve"/>
      <point x="102" y="219"/>
      <point x="140" y="168"/>
      <point x="178" y="168" type="qcurve"/>
      <point x="214" y="168"/>
      <point x="250" y="214"/>
      <point x="250" y="261" type="qcurve"/>
      <point x="250" y="307"/>
      <point x="213" y="350"/>
      <point x="175" y="350" type="qcurve"/>
      <point x="139" y="350"/>
      <point x="102" y="308"/>
    </contour>
  </outline>
</glyph>
<glyph name="h" format="1">
  <advance width="420"/>
  <unicode hex="0068"/>
  <outline>
    <contour>
      <point x="70" y="550" type="line"/>
      <point x="20" y="550" type="line"/>
      <point x="20" y="600" type="line"/>
      <point x="130" y="600" type="line"/>
      <point x="130" y="344" type="line"/>
      <point x="131" y="344" type="line"/>
      <point x="185" y="400"/>
      <point x="254" y="400" type="qcurve"/>
      <point x="304" y="400"/>
      <point x="350" y="343"/>
      <point x="350" y="291" type="qcurve"/>
      <point x="350" y="50" type="line"/>
      <point x="400" y="50" type="line"/>
      <point x="400" y="0" type="line"/>
      <point x="250" y="0" type="line"/>
      <point x="250" y="50" type="line"/>
      <point x="290" y="50" type="line"/>
      <point x="290" y="283" type="line"/>
      <point x="290" y="323"/>
      <point x="262" y="350"/>
      <point x="237" y="350" type="qcurve"/>
      <point x="179" y="350"/>
      <point x="130" y="293" type="qcurve"/>
      <point x="130" y="50" type="line"/>
      <point x="170" y="50" type="line"/>
      <point x="170" y="0" type="line"/>
      <point x="20" y="0" type="line"/>
      <point x="20" y="50" type="line"/>
      <point x="70" y="50" type="line"/>
    </contour>
  </outline>
</glyph>
<glyph name="i" format="1">
  <advance width="210"/>
  <unicode hex="0069"/>
  <outline>
    <contour>
      <point x="30" y="50" type="line"/>
      <point x="80" y="50" type="line"/>
      <point x="80" y="340" type="line"/>
      <point x="30" y="340" type="line"/>
      <point x="30" y="390" type="line"/>
      <point x="140" y="390" type="line"/>
      <point x="140" y="50" type="line"/>
      <point x="190" y="50" type="line"/>
      <point x="190" y="0" type="line"/>
      <point x="30" y="0" type="line"/>
    </contour>
    <contour>
      <point x="63" y="496" type="qcurve"/>
      <point x="63" y="517"/>
      <point x="86" y="540"/>
      <point x="106" y="540" type="qcurve"/>
      <point x="125" y="540"/>
      <point x="149" y="517"/>
      <point x="149" y="498" type="qcurve"/>
      <point x="149" y="478"/>
      <point x="125" y="455"/>
      <point x="105" y="455" type="qcurve"/>
      <point x="86" y="455"/>
      <point x="63" y="478"/>
    </contour>
  </outline>
</glyph>
<glyph name="j" format="1">
  <advance width="180"/>
  <unicode hex="006A"/>
  <outline>
    <contour>
      <point x="105" y="-149" type="qcurve"/>
      <point x="81" y="-182"/>
      <point x="28" y="-182" type="qcurve"/>
      <point x="14" y="-182"/>
      <point x="0" y="-180" type="qcurve"/>
      <point x="0" y="-130" type="line"/>
      <point x="8" y="-131"/>
      <point x="17" y="-131" type="qcurve"/>
      <point x="48" y="-131"/>
      <point x="70" y="-99"/>
      <point x="70" y="-58" type="qcurve"/>
      <point x="70" y="340" type="line"/>
      <point x="20" y="340" type="line"/>
      <point x="20" y="390" type="line"/>
      <point x="130" y="390" type="line"/>
      <point x="130" y="-49" type="line"/>
      <point x="130" y="-117"/>
    </contour>
    <contour>
      <point x="53" y="496" type="qcurve"/>
      <point x="53" y="517"/>
      <point x="76" y="540"/>
      <point x="96" y="540" type="qcurve"/>
      <point x="115" y="540"/>
      <point x="139" y="517"/>
      <point x="139" y="498" type="qcurve"/>
      <point x="139" y="478"/>
      <point x="115" y="455"/>
      <point x="95" y="455" type="qcurve"/>
      <point x="76" y="455"/>
      <point x="53" y="478"/>
    </contour>
  </outline>
</glyph>
<glyph name="k" format="1">
  <advance width="390"/>
  <unicode hex="006B"/>
  <outline>
    <contour>
      <point x="30" y="50" type="line"/>
      <point x="80" y="50" type="line"/>
      <point x="80" y="550" type="line"/>
      <point x="30" y="550" type="line"/>
      <point x="30" y="600" type="line"/>
      <point x="140" y="600" type="line"/>
      <point x="140" y="50" type="line"/>
      <point x="180" y="50" type="line"/>
      <point x="180" y="0" type="line"/>
      <point x="30" y="0" type="line"/>
    </contour>
    <contour>
      <point x="230" y="390" type="line"/>
      <point x="380" y="390" type="line"/>
      <point x="380" y="340" type="line"/>
      <point x="327" y="340" type="line"/>
      <point x="213" y="219" type="line"/>
      <point x="344" y="50" type="line"/>
      <point x="390" y="50" type="line"/>
      <point x="390" y="0" type="line"/>
      <point x="235" y="0" type="line"/>
      <point x="235" y="50" type="line"/>
      <point x="272" y="50" type="line"/>
      <point x="273" y="52" type="line"/>
      <point x="150" y="213" type="line"/>
      <point x="267" y="340" type="line"/>
      <point x="230" y="340" type="line"/>
    </contour>
  </outline>
</glyph>
<glyph name="l" format="1">
  <advance width="210"/>
  <unicode hex="006C"/>
  <outline>
    <contour>
      <point x="30" y="50" type="line"/>
      <point x="80" y="50" type="line"/>
      <point x="80" y="550" type="line"/>
      <point x="30" y="550" type="line"/>
      <point x="30" y="600" type="line"/>
      <point x="140" y="600" type="line"/>
      <point x="140" y="50" type="line"/>
      <point x="190" y="50" type="line"/>
      <point x="190" y="0" type="line"/>
      <point x="30" y="0" type="line"/>
    </contour>
  </outline>
</glyph>
<glyph name="m" format="1">
  <advance width="630"/>
  <unicode hex="006D"/>
  <outline>
    <contour>
      <point x="30" y="50" type="line"/>
      <point x="80" y="50" type="line"/>
      <point x="80" y="340" type="line"/>
      <point x="30" y="340" type="line"/>
      <point x="30" y="390" type="line"/>
      <point x="136" y="390" type="line"/>
      <point x="139" y="338" type="line"/>
      <point x="140" y="338" type="line"/>
      <point x="193" y="400"/>
      <point x="261" y="400" type="qcurve"/>
      <point x="333" y="400"/>
      <point x="348" y="337" type="qcurve"/>
      <point x="350" y="337" type="line"/>
      <point x="404" y="400"/>
      <point x="474" y="400" type="qcurve"/>
      <point x="524" y="400"/>
      <point x="570" y="343"/>
      <point x="570" y="291" type="qcurve"/>
      <point x="570" y="50" type="line"/>
      <point x="620" y="50" type="line"/>
      <point x="620" y="0" type="line"/>
      <point x="470" y="0" type="line"/>
      <point x="470" y="50" type="line"/>
      <point x="510" y="50" type="line"/>
      <point x="510" y="283" type="line"/>
      <point x="510" y="323"/>
      <point x="482" y="350"/>
      <point x="457" y="350" type="qcurve"/>
      <point x="403" y="350"/>
      <point x="355" y="294" type="qcurve"/>
      <point x="355" y="50" type="line"/>
      <point x="395" y="50" type="line"/>
      <point x="395" y="0" type="line"/>
      <point x="255" y="0" type="line"/>
      <point x="255" y="50" type="line"/>
      <point x="295" y="50" type="line"/>
      <point x="295" y="283" type="line"/>
      <point x="295" y="323"/>
      <point x="268" y="350"/>
      <point x="244" y="350" type="qcurve"/>
      <point x="187" y="350"/>
      <point x="140" y="288" type="qcurve"/>
      <point x="140" y="50" type="line"/>
      <point x="180" y="50" type="line"/>
      <point x="180" y="0" type="line"/>
      <point x="30" y="0" type="line"/>
    </contour>
  </outline>
</glyph>
<glyph name="n" format="1">
  <advance width="420"/>
  <unicode hex="006E"/>
  <outline>
    <contour>
      <point x="30" y="50" type="line"/>
      <point x="80" y="50" type="line"/>
      <point x="80" y="340" type="line"/>
      <point x="30" y="340" type="line"/>
      <point x="30" y="390" type="line"/>
      <point x="136" y="390" type="line"/>
      <point x="139" y="338" type="line"/>
      <point x="140" y="338" type="line"/>
      <point x="194" y="400"/>
      <point x="264" y="400" type="qcurve"/>
      <point x="314" y="400"/>
      <point x="360" y="343"/>
      <point x="360" y="291" type="qcurve"/>
      <point x="360" y="50" type="line"/>
      <point x="410" y="50" type="line"/>
      <point x="410" y="0" type="line"/>
      <point x="260" y="0" type="line"/>
      <point x="260" y="50" type="line"/>
      <point x="300" y="50" type="line"/>
      <point x="300" y="283" type="line"/>
      <point x="300" y="323"/>
      <point x="272" y="350"/>
      <point x="247" y="350" type="qcurve"/>
      <point x="189" y="350"/>
      <point x="140" y="288" type="qcurve"/>
      <point x="140" y="50" type="line"/>
      <point x="180" y="50" type="line"/>
      <point x="180" y="0" type="line"/>
      <point x="30" y="0" type="line"/>
    </contour>
  </outline>
</glyph>
<glyph name="o" format="1">
  <advance width="390"/>
  <unicode hex="006F"/>
  <outline>
    <contour>
      <point x="35" y="193" type="qcurve"/>
      <point x="35" y="288"/>
      <point x="128" y="400"/>
      <point x="199" y="400" type="qcurve"/>
      <point x="270" y="400"/>
      <point x="355" y="296"/>
      <point x="355" y="202" type="qcurve"/>
      <point x="355" y="106"/>
      <point x="265" y="-10"/>
      <point x="192" y="-10" type="qcurve"/>
      <point x="120" y="-10"/>
      <point x="35" y="101"/>
    </contour>
    <contour>
      <point x="98" y="202" type="qcurve"/>
      <point x="98" y="123"/>
      <point x="149" y="40"/>
      <point x="197" y="40" type="qcurve"/>
      <point x="242" y="40"/>
      <point x="292" y="117"/>
      <point x="292" y="196" type="qcurve"/>
      <point x="292" y="350"/>
      <point x="194" y="350" type="qcurve"/>
      <point x="147" y="350"/>
      <point x="98" y="279"/>
    </contour>
  </outline>
</glyph>
<glyph name="p" format="1">
  <advance width="420"/>
  <unicode hex="0070"/>
  <outline>
    <contour>
      <point x="132" y="390" type="line"/>
      <point x="135" y="358" type="line"/>
      <point x="137" y="358" type="line"/>
      <point x="182" y="400"/>
      <point x="238" y="400" type="qcurve"/>
      <point x="302" y="400"/>
      <point x="380" y="295"/>
      <point x="380" y="209" type="qcurve"/>
      <point x="380" y="111"/>
      <point x="285" y="-10"/>
      <point x="212" y="-10" type="qcurve"/>
      <point x="174" y="-10"/>
      <point x="137" y="8" type="qcurve"/>
      <point x="135" y="7" type="line"/>
      <point x="135" y="-130" type="line"/>
      <point x="195" y="-130" type="line"/>
      <point x="195" y="-180" type="line"/>
      <point x="25" y="-180" type="line"/>
      <point x="25" y="-130" type="line"/>
      <point x="75" y="-130" type="line"/>
      <point x="75" y="340" type="line"/>
      <point x="25" y="340" type="line"/>
      <point x="25" y="390" type="line"/>
    </contour>
    <contour>
      <point x="135" y="55" type="line"/>
      <point x="165" y="40"/>
      <point x="205" y="40" type="qcurve"/>
      <point x="258" y="40"/>
      <point x="317" y="118"/>
      <point x="317" y="199" type="qcurve"/>
      <point x="317" y="277"/>
      <point x="265" y="350"/>
      <point x="221" y="350" type="qcurve"/>
      <point x="173" y="350"/>
      <point x="135" y="307" type="qcurve"/>
    </contour>
  </outline>
</glyph>
<glyph name="q" format="1">
  <advance width="390"/>
  <unicode hex="0071"/>
  <outline>
    <contour>
      <point x="400" y="-130" type="line"/>
      <point x="400" y="-180" type="line"/>
      <point x="230" y="-180" type="line"/>
      <point x="230" y="-130" type="line"/>
      <point x="290" y="-130" type="line"/>
      <point x="290" y="32" type="line"/>
      <point x="288" y="33" type="line"/>
      <point x="247" y="-10"/>
      <point x="187" y="-10" type="qcurve"/>
      <point x="121" y="-10"/>
      <point x="40" y="100"/>
      <point x="40" y="187" type="qcurve"/>
      <point x="40" y="282"/>
      <point x="136" y="400"/>
      <point x="225" y="400" type="qcurve"/>
      <point x="279" y="400"/>
      <point x="350" y="379" type="qcurve"/>
      <point x="350" y="-130" type="line"/>
    </contour>
    <contour>
      <point x="290" y="341" type="line"/>
      <point x="252" y="350"/>
      <point x="219" y="350" type="qcurve"/>
      <point x="161" y="350"/>
      <point x="103" y="276"/>
      <point x="103" y="195" type="qcurve"/>
      <point x="103" y="114"/>
      <point x="158" y="40"/>
      <point x="203" y="40" type="qcurve"/>
      <point x="253" y="40"/>
      <point x="290" y="78" type="qcurve"/>
    </contour>
  </outline>
</glyph>
<glyph name="r" format="1">
  <advance width="270"/>
  <unicode hex="0072"/>
  <outline>
    <contour>
      <point x="30" y="50" type="line"/>
      <point x="80" y="50" type="line"/>
      <point x="80" y="340" type="line"/>
      <point x="30" y="340" type="line"/>
      <point x="30" y="390" type="line"/>
      <point x="137" y="390" type="line"/>
      <point x="140" y="334" type="line"/>
      <point x="142" y="334" type="line"/>
      <point x="161" y="366"/>
      <point x="207" y="396"/>
      <point x="239" y="396" type="qcurve"/>
      <point x="251" y="396"/>
      <point x="260" y="394" type="qcurve"/>
      <point x="260" y="331" type="line"/>
      <point x="245" y="334"/>
      <point x="229" y="334" type="qcurve"/>
      <point x="200" y="334"/>
      <point x="157" y="307"/>
      <point x="140" y="277" type="qcurve"/>
      <point x="140" y="50" type="line"/>
      <point x="200" y="50" type="line"/>
      <point x="200" y="0" type="line"/>
      <point x="30" y="0" type="line"/>
    </contour>
  </outline>
</glyph>
<glyph name="s" format="1">
  <advance width="330"/>
  <unicode hex="0073"/>
  <outline>
    <contour>
      <point x="154" y="-10" type="qcurve"/>
      <point x="92" y="-10"/>
      <point x="40" y="14" type="qcurve"/>
      <point x="40" y="100" type="line"/>
      <point x="92" y="100" type="line"/>
      <point x="92" y="48" type="line"/>
      <point x="122" y="39"/>
      <point x="158" y="39" type="qcurve"/>
      <point x="203" y="39"/>
      <point x="240" y="70"/>
      <point x="240" y="98" type="qcurve"/>
      <point x="240" y="124"/>
      <point x="196" y="155"/>
      <point x="149" y="172" type="qcurve"/>
      <point x="83" y="196"/>
      <point x="35" y="251"/>
      <point x="35" y="288" type="qcurve"/>
      <point x="35" y="337"/>
      <point x="113" y="400"/>
      <point x="174" y="400" type="qcurve"/>
      <point x="230" y="400"/>
      <point x="280" y="376" type="qcurve"/>
      <point x="280" y="290" type="line"/>
      <point x="228" y="290" type="line"/>
      <point x="228" y="343" type="line"/>
      <point x="205" y="352"/>
      <point x="171" y="352" type="qcurve"/>
      <point x="133" y="352"/>
      <point x="95" y="321"/>
      <point x="95" y="296" type="qcurve"/>
      <point x="95" y="271"/>
      <point x="136" y="242"/>
      <point x="180" y="226" type="qcurve"/>
      <point x="243" y="204"/>
      <point x="300" y="150"/>
      <point x="300" y="105" type="qcurve"/>
      <point x="300" y="53"/>
      <point x="220" y="-10"/>
    </contour>
  </outline>
</glyph>
<glyph name="t" format="1">
  <advance width="240"/>
  <unicode hex="0074"/>
  <outline>
    <contour>
      <point x="163" y="-10" type="qcurve"/>
      <point x="120" y="-10"/>
      <point x="70" y="35"/>
      <point x="70" y="79" type="qcurve"/>
      <point x="70" y="340" type="line"/>
      <point x="20" y="340" type="line"/>
      <point x="20" y="390" type="line"/>
      <point x="70" y="390" type="line"/>
      <point x="70" y="480" type="line"/>
      <point x="130" y="491" type="line"/>
      <point x="130" y="390" type="line"/>
      <point x="220" y="390" type="line"/>
      <point x="220" y="340" type="line"/>
      <point x="130" y="340" type="line"/>
      <point x="130" y="89" type="line"/>
      <point x="130" y="60"/>
      <point x="153" y="40"/>
      <point x="172" y="40" type="qcurve"/>
      <point x="196" y="40"/>
      <point x="220" y="52" type="qcurve"/>
      <point x="220" y="3" type="line"/>
      <point x="193" y="-10"/>
    </contour>
  </outline>
</glyph>
<glyph name="u" format="1">
  <advance width="420"/>
  <unicode hex="0075"/>
  <outline>
    <contour>
      <point x="290" y="340" type="line"/>
      <point x="240" y="340" type="line"/>
      <point x="240" y="390" type="line"/>
      <point x="350" y="390" type="line"/>
      <point x="350" y="50" type="line"/>
      <point x="400" y="50" type="line"/>
      <point x="400" y="0" type="line"/>
      <point x="295" y="0" type="line"/>
      <point x="292" y="43" type="line"/>
      <point x="290" y="43" type="line"/>
      <point x="246" y="-10"/>
      <point x="179" y="-10" type="qcurve"/>
      <point x="126" y="-10"/>
      <point x="70" y="46"/>
      <point x="70" y="99" type="qcurve"/>
      <point x="70" y="340" type="line"/>
      <point x="20" y="340" type="line"/>
      <point x="20" y="390" type="line"/>
      <point x="130" y="390" type="line"/>
      <point x="130" y="109" type="line"/>
      <point x="130" y="69"/>
      <point x="165" y="40"/>
      <point x="195" y="40" type="qcurve"/>
      <point x="253" y="40"/>
      <point x="290" y="87" type="qcurve"/>
    </contour>
  </outline>
</glyph>
<glyph name="v" format="1">
  <advance width="390"/>
  <unicode hex="0076"/>
  <outline>
    <contour>
      <point x="218" y="-5" type="line"/>
      <point x="161" y="-5" type="line"/>
      <point x="45" y="340" type="line"/>
      <point x="0" y="340" type="line"/>
      <point x="0" y="390" type="line"/>
      <point x="150" y="390" type="line"/>
      <point x="150" y="340" type="line"/>
      <point x="106" y="340" type="line"/>
      <point x="193" y="72" type="line"/>
      <point x="195" y="72" type="line"/>
      <point x="285" y="340" type="line"/>
      <point x="240" y="340" type="line"/>
      <point x="240" y="390" type="line"/>
      <point x="390" y="390" type="line"/>
      <point x="390" y="340" type="line"/>
      <point x="340" y="340" type="line"/>
    </contour>
  </outline>
</glyph>
<glyph name="w" format="1">
  <advance width="600"/>
  <unicode hex="0077"/>
  <outline>
    <contour>
      <point x="433" y="-5" type="line"/>
      <point x="376" y="-5" type="line"/>
      <point x="297" y="226" type="line"/>
      <point x="295" y="226" type="line"/>
      <point x="213" y="-5" type="line"/>
      <point x="156" y="-5" type="line"/>
      <point x="45" y="340" type="line"/>
      <point x="0" y="340" type="line"/>
      <point x="0" y="390" type="line"/>
      <point x="150" y="390" type="line"/>
      <point x="150" y="340" type="line"/>
      <point x="106" y="340" type="line"/>
      <point x="188" y="72" type="line"/>
      <point x="190" y="72" type="line"/>
      <point x="272" y="296" type="line"/>
      <point x="257" y="340" type="line"/>
      <point x="210" y="340" type="line"/>
      <point x="210" y="390" type="line"/>
      <point x="370" y="390" type="line"/>
      <point x="370" y="340" type="line"/>
      <point x="316" y="340" type="line"/>
      <point x="408" y="72" type="line"/>
      <point x="410" y="72" type="line"/>
      <point x="495" y="340" type="line"/>
      <point x="450" y="340" type="line"/>
      <point x="450" y="390" type="line"/>
      <point x="600" y="390" type="line"/>
      <point x="600" y="340" type="line"/>
      <point x="550" y="340" type="line"/>
    </contour>
  </outline>
</glyph>
<glyph name="x" format="1">
  <advance width="360"/>
  <unicode hex="0078"/>
  <outline>
    <contour>
      <point x="254" y="338" type="line"/>
      <point x="254" y="340" type="line"/>
      <point x="220" y="340" type="line"/>
      <point x="220" y="390" type="line"/>
      <point x="355" y="390" type="line"/>
      <point x="355" y="340" type="line"/>
      <point x="308" y="340" type="line"/>
      <point x="209" y="203" type="line"/>
      <point x="313" y="50" type="line"/>
      <point x="360" y="50" type="line"/>
      <point x="360" y="0" type="line"/>
      <point x="210" y="0" type="line"/>
      <point x="210" y="50" type="line"/>
      <point x="245" y="50" type="line"/>
      <point x="245" y="52" type="line"/>
      <point x="173" y="158" type="line"/>
      <point x="99" y="52" type="line"/>
      <point x="99" y="50" type="line"/>
      <point x="140" y="50" type="line"/>
      <point x="140" y="0" type="line"/>
      <point x="0" y="0" type="line"/>
      <point x="0" y="50" type="line"/>
      <point x="45" y="50" type="line"/>
      <point x="149" y="196" type="line"/>
      <point x="51" y="340" type="line"/>
      <point x="5" y="340" type="line"/>
      <point x="5" y="390" type="line"/>
      <point x="150" y="390" type="line"/>
      <point x="150" y="340" type="line"/>
      <point x="118" y="340" type="line"/>
      <point x="118" y="338" type="line"/>
      <point x="185" y="240" type="line"/>
    </contour>
  </outline>
</glyph>
<glyph name="y" format="1">
  <advance width="390"/>
  <unicode hex="0079"/>
  <outline>
    <contour>
      <point x="340" y="340" type="line"/>
      <point x="211" y="-25" type="line"/>
      <point x="199" y="-60"/>
      <point x="172" y="-118"/>
      <point x="137" y="-161"/>
      <point x="89" y="-183"/>
      <point x="56" y="-183" type="qcurve"/>
      <point x="38" y="-183"/>
      <point x="20" y="-180" type="qcurve"/>
      <point x="20" y="-125" type="line"/>
      <point x="39" y="-128"/>
      <point x="57" y="-128" type="qcurve"/>
      <point x="73" y="-128"/>
      <point x="100" y="-121"/>
      <point x="124" y="-100"/>
      <point x="150" y="-51"/>
      <point x="166" y="-5" type="qcurve"/>
      <point x="161" y="-5" type="line"/>
      <point x="45" y="340" type="line"/>
      <point x="0" y="340" type="line"/>
      <point x="0" y="390" type="line"/>
      <point x="150" y="390" type="line"/>
      <point x="150" y="340" type="line"/>
      <point x="106" y="340" type="line"/>
      <point x="193" y="72" type="line"/>
      <point x="195" y="72" type="line"/>
      <point x="286" y="340" type="line"/>
      <point x="240" y="340" type="line"/>
      <point x="240" y="390" type="line"/>
      <point x="390" y="390" type="line"/>
      <point x="390" y="340" type="line"/>
    </contour>
  </outline>
</glyph>
<glyph name="z" format="1">
  <advance width="360"/>
  <unicode hex="007A"/>
  <outline>
    <contour>
      <point x="30" y="43" type="line"/>
      <point x="246" y="342" type="line"/>
      <point x="82" y="342" type="line"/>
      <point x="82" y="280" type="line"/>
      <point x="30" y="280" type="line"/>
      <point x="30" y="390" type="line"/>
      <point x="320" y="390" type="line"/>
      <point x="320" y="347" type="line"/>
      <point x="105" y="48" type="line"/>
      <point x="278" y="48" type="line"/>
      <point x="278" y="110" type="line"/>
      <point x="330" y="110" type="line"/>
      <point x="330" y="0" type="line"/>
      <point x="30" y="0" type="line"/>
    </contour>
  </outline>
</glyph>
<glyph name="braceleft" format="1">
  <advance width="270"/>
  <unicode hex="007B"/>
  <outline>
    <contour>
      <point x="80" y="239" type="line"/>
      <point x="116" y="229"/>
      <point x="150" y="179"/>
      <point x="150" y="136" type="qcurve"/>
      <point x="150" y="-22" type="line"/>
      <point x="150" y="-50"/>
      <point x="176" y="-70"/>
      <point x="195" y="-70" type="qcurve"/>
      <point x="230" y="-70" type="line"/>
      <point x="230" y="-120" type="line"/>
      <point x="195" y="-120" type="line"/>
      <point x="145" y="-120"/>
      <point x="95" y="-72"/>
      <point x="95" y="-19" type="qcurve"/>
      <point x="95" y="137" type="line"/>
      <point x="95" y="180"/>
      <point x="59" y="216"/>
      <point x="25" y="216" type="qcurve"/>
      <point x="25" y="264" type="line"/>
      <point x="59" y="264"/>
      <point x="95" y="299"/>
      <point x="95" y="341" type="qcurve"/>
      <point x="95" y="499" type="line"/>
      <point x="95" y="552"/>
      <point x="148" y="600"/>
      <point x="197" y="600" type="qcurve"/>
      <point x="230" y="600" type="line"/>
      <point x="230" y="550" type="line"/>
      <point x="193" y="550" type="line"/>
      <point x="175" y="550"/>
      <point x="150" y="531"/>
      <point x="150" y="502" type="qcurve"/>
      <point x="150" y="344" type="line"/>
      <point x="150" y="300"/>
      <point x="116" y="250"/>
      <point x="80" y="241" type="qcurve"/>
    </contour>
  </outline>
</glyph>
<glyph name="bar" format="1">
  <advance width="240"/>
  <unicode hex="007C"/>
  <outline>
    <contour>
      <point x="95" y="610" type="line"/>
      <point x="145" y="610" type="line"/>
      <point x="145" y="-190" type="line"/>
      <point x="95" y="-190" type="line"/>
    </contour>
  </outline>
</glyph>
<glyph name="braceright" format="1">
  <advance width="270"/>
  <unicode hex="007D"/>
  <outline>
    <contour>
      <point x="190" y="241" type="line"/>
      <point x="154" y="250"/>
      <point x="120" y="300"/>
      <point x="120" y="344" type="qcurve"/>
      <point x="120" y="502" type="line"/>
      <point x="120" y="531"/>
      <point x="95" y="550"/>
      <point x="77" y="550" type="qcurve"/>
      <point x="40" y="550" type="line"/>
      <point x="40" y="600" type="line"/>
      <point x="73" y="600" type="line"/>
      <point x="122" y="600"/>
      <point x="175" y="552"/>
      <point x="175" y="499" type="qcurve"/>
      <point x="175" y="341" type="line"/>
      <point x="175" y="299"/>
      <point x="211" y="264"/>
      <point x="245" y="264" type="qcurve"/>
      <point x="245" y="216" type="line"/>
      <point x="211" y="216"/>
      <point x="175" y="180"/>
      <point x="175" y="137" type="qcurve"/>
      <point x="175" y="-19" type="line"/>
      <point x="175" y="-72"/>
      <point x="125" y="-120"/>
      <point x="75" y="-120" type="qcurve"/>
      <point x="40" y="-120" type="line"/>
      <point x="40" y="-70" type="line"/>
      <point x="75" y="-70" type="line"/>
      <point x="94" y="-70"/>
      <point x="120" y="-50"/>
      <point x="120" y="-22" type="qcurve"/>
      <point x="120" y="136" type="line"/>
      <point x="120" y="179"/>
      <point x="154" y="229"/>
      <point x="190" y="239" type="qcurve"/>
    </contour>
  </outline>
</glyph>
<glyph name="asciitilde" format="1">
  <advance width="420"/>
  <unicode hex="007E"/>
  <outline>
    <contour>
      <point x="30" y="215" type="line"/>
      <point x="81" y="251"/>
      <point x="134" y="251" type="qcurve"/>
      <point x="162" y="251"/>
      <point x="202" y="236"/>
      <point x="219" y="228" type="qcurve"/>
      <point x="235" y="220"/>
      <point x="266" y="209"/>
      <point x="285" y="209" type="qcurve"/>
      <point x="338" y="209"/>
      <point x="390" y="249" type="qcurve"/>
      <point x="390" y="196" type="line"/>
      <point x="337" y="160"/>
      <point x="284" y="160" type="qcurve"/>
      <point x="257" y="160"/>
      <point x="218" y="175"/>
      <point x="201" y="183" type="qcurve"/>
      <point x="185" y="191"/>
      <point x="153" y="203"/>
      <point x="133" y="203" type="qcurve"/>
      <point x="83" y="203"/>
      <point x="30" y="162" type="qcurve"/>
    </contour>
  </outline>
</glyph>
<glyph name="exclamdown" format="1">
  <advance width="240"/>
  <unicode hex="00A1"/>
  <outline>
    <contour>
      <point x="148" y="-150" type="line"/>
      <point x="74" y="-150" type="line"/>
      <point x="90" y="240" type="line"/>
      <point x="131" y="240" type="line"/>
    </contour>
    <contour>
      <point x="60" y="347" type="qcurve"/>
      <point x="60" y="371"/>
      <point x="87" y="400"/>
      <point x="110" y="400" type="qcurve"/>
      <point x="133" y="400"/>
      <point x="160" y="371"/>
      <point x="160" y="351" type="qcurve"/>
      <point x="160" y="326"/>
      <point x="132" y="298"/>
      <point x="108" y="298" type="qcurve"/>
      <point x="86" y="298"/>
      <point x="60" y="326"/>
    </contour>
  </outline>
</glyph>
<glyph name="cent" format="1">
  <advance width="360"/>
  <unicode hex="00A2"/>
  <outline>
    <contour>
      <point x="180" y="-70" type="line"/>
      <point x="180" y="0" type="line"/>
      <point x="114" y="8"/>
      <point x="40" y="104"/>
      <point x="40" y="192" type="qcurve"/>
      <point x="40" y="283"/>
      <point x="117" y="381"/>
      <point x="180" y="389" type="qcurve"/>
      <point x="180" y="460" type="line"/>
      <point x="226" y="460" type="line"/>
      <point x="226" y="391" type="line"/>
      <point x="256" y="389"/>
      <point x="308" y="376"/>
      <point x="330" y="366" type="qcurve"/>
      <point x="330" y="277" type="line"/>
      <point x="280" y="277" type="line"/>
      <point x="280" y="333" type="line"/>
      <point x="268" y="337"/>
      <point x="241" y="342"/>
      <point x="226" y="343" type="qcurve"/>
      <point x="226" y="48" type="line"/>
      <point x="273" y="51"/>
      <point x="330" y="83" type="qcurve"/>
      <point x="330" y="30" type="line"/>
      <point x="281" y="2"/>
      <point x="226" y="-1" type="qcurve"/>
      <point x="226" y="-70" type="line"/>
    </contour>
    <contour>
      <point x="180" y="341" type="line"/>
      <point x="139" y="332"/>
      <point x="102" y="266"/>
      <point x="102" y="199" type="qcurve"/>
      <point x="102" y="130"/>
      <point x="141" y="60"/>
      <point x="180" y="51" type="qcurve"/>
    </contour>
  </outline>
</glyph>
<glyph name="sterling" format="1">
  <advance width="390"/>
  <unicode hex="00A3"/>
  <outline>
    <contour>
      <point x="40" y="280" type="line"/>
      <point x="98" y="280" type="line"/>
      <point x="80" y="358"/>
      <point x="80" y="394" type="qcurve"/>
      <point x="80" y="462"/>
      <point x="164" y="540"/>
      <point x="234" y="540" type="qcurve"/>
      <point x="296" y="540"/>
      <point x="350" y="512" type="qcurve"/>
      <point x="350" y="412" type="line"/>
      <point x="298" y="412" type="line"/>
      <point x="298" y="478" type="line"/>
      <point x="267" y="490"/>
      <point x="231" y="490" type="qcurve"/>
      <point x="187" y="490"/>
      <point x="140" y="443"/>
      <point x="140" y="399" type="qcurve"/>
      <point x="140" y="365"/>
      <point x="159" y="280" type="qcurve"/>
      <point x="290" y="280" type="line"/>
      <point x="290" y="235" type="line"/>
      <point x="167" y="235" type="line"/>
      <point x="170" y="214"/>
      <point x="170" y="198" type="qcurve"/>
      <point x="170" y="108"/>
      <point x="107" y="52" type="qcurve"/>
      <point x="107" y="50" type="line"/>
      <point x="308" y="50" type="line"/>
      <point x="308" y="120" type="line"/>
      <point x="360" y="120" type="line"/>
      <point x="360" y="0" type="line"/>
      <point x="40" y="0" type="line"/>
      <point x="40" y="43" type="line"/>
      <point x="110" y="97"/>
      <point x="110" y="195" type="qcurve"/>
      <point x="110" y="214"/>
      <point x="107" y="235" type="qcurve"/>
      <point x="40" y="235" type="line"/>
    </contour>
  </outline>
</glyph>
<glyph name="currency" format="1">
  <advance width="450"/>
  <unicode hex="00A4"/>
  <outline>
    <contour>
      <point x="56" y="10" type="line"/>
      <point x="12" y="53" type="line"/>
      <point x="89" y="128" type="line"/>
      <point x="60" y="172"/>
      <point x="60" y="224" type="qcurve"/>
      <point x="60" y="280"/>
      <point x="89" y="321" type="qcurve"/>
      <point x="12" y="396" type="line"/>
      <point x="54" y="438" type="line"/>
      <point x="127" y="360" type="line"/>
      <point x="171" y="390"/>
      <point x="225" y="390" type="qcurve"/>
      <point x="279" y="390"/>
      <point x="321" y="362" type="qcurve"/>
      <point x="396" y="440" type="line"/>
      <point x="438" y="396" type="line"/>
      <point x="360" y="322" type="line"/>
      <point x="390" y="280"/>
      <point x="390" y="224" type="qcurve"/>
      <point x="390" y="172"/>
      <point x="360" y="127" type="qcurve"/>
      <point x="437" y="52" type="line"/>
      <point x="395" y="9" type="line"/>
      <point x="320" y="87" type="line"/>
      <point x="279" y="60"/>
      <point x="225" y="60" type="qcurve"/>
      <point x="171" y="60"/>
      <point x="130" y="87" type="qcurve"/>
    </contour>
    <contour>
      <point x="115" y="224" type="qcurve"/>
      <point x="115" y="170"/>
      <point x="175" y="110"/>
      <point x="224" y="110" type="qcurve"/>
      <point x="275" y="110"/>
      <point x="335" y="170"/>
      <point x="335" y="224" type="qcurve"/>
      <point x="335" y="278"/>
      <point x="275" y="340"/>
      <point x="224" y="340" type="qcurve"/>
      <point x="175" y="340"/>
      <point x="115" y="278"/>
    </contour>
  </outline>
</glyph>
<glyph name="yen" format="1">
  <advance width="420"/>
  <unicode hex="00A5"/>
  <outline>
    <contour>
      <point x="217" y="285" type="line"/>
      <point x="320" y="490" type="line"/>
      <point x="270" y="490" type="line"/>
      <point x="270" y="540" type="line"/>
      <point x="420" y="540" type="line"/>
      <point x="420" y="490" type="line"/>
      <point x="374" y="490" type="line"/>
      <point x="268" y="285" type="line"/>
      <point x="360" y="285" type="line"/>
      <point x="360" y="240" type="line"/>
      <point x="240" y="240" type="line"/>
      <point x="240" y="180" type="line"/>
      <point x="360" y="180" type="line"/>
      <point x="360" y="135" type="line"/>
      <point x="240" y="135" type="line"/>
      <point x="240" y="50" type="line"/>
      <point x="300" y="50" type="line"/>
      <point x="300" y="0" type="line"/>
      <point x="120" y="0" type="line"/>
      <point x="120" y="50" type="line"/>
      <point x="180" y="50" type="line"/>
      <point x="180" y="135" type="line"/>
      <point x="61" y="135" type="line"/>
      <point x="61" y="180" type="line"/>
      <point x="180" y="180" type="line"/>
      <point x="180" y="240" type="line"/>
      <point x="61" y="240" type="line"/>
      <point x="61" y="285" type="line"/>
      <point x="152" y="285" type="line"/>
      <point x="42" y="490" type="line"/>
      <point x="0" y="490" type="line"/>
      <point x="0" y="540" type="line"/>
      <point x="149" y="540" type="line"/>
      <point x="149" y="490" type="line"/>
      <point x="106" y="490" type="line"/>
      <point x="215" y="285" type="line"/>
    </contour>
  </outline>
</glyph>
<glyph name="brokenbar" format="1">
  <advance width="240"/>
  <unicode hex="00A6"/>
  <outline>
    <contour>
      <point x="90" y="210" type="line"/>
      <point x="150" y="210" type="line"/>
      <point x="150" y="-10" type="line"/>
      <point x="90" y="-10" type="line"/>
    </contour>
    <contour>
      <point x="90" y="550" type="line"/>
      <point x="150" y="550" type="line"/>
      <point x="150" y="330" type="line"/>
      <point x="90" y="330" type="line"/>
    </contour>
  </outline>
</glyph>
<glyph name="section" format="1">
  <advance width="420"/>
  <unicode hex="00A7"/>
  <outline>
    <contour>
      <point x="70" y="424" type="qcurve"/>
      <point x="70" y="481"/>
      <point x="153" y="550"/>
      <point x="225" y="550" type="qcurve"/>
      <point x="285" y="550"/>
      <point x="340" y="525" type="qcurve"/>
      <point x="340" y="430" type="line"/>
      <point x="288" y="430" type="line"/>
      <point x="288" y="490" type="line"/>
      <point x="253" y="500"/>
      <point x="220" y="500" type="qcurve"/>
      <point x="180" y="500"/>
      <point x="130" y="468"/>
      <point x="130" y="436" type="qcurve"/>
      <point x="130" y="418"/>
      <point x="146" y="390"/>
      <point x="173" y="369"/>
      <point x="208" y="352"/>
      <point x="228" y="343" type="qcurve"/>
      <point x="251" y="333"/>
      <point x="297" y="309"/>
      <point x="336" y="276"/>
      <point x="360" y="231"/>
      <point x="360" y="198" type="qcurve"/>
      <point x="360" y="114"/>
      <point x="277" y="78" type="qcurve"/>
      <point x="277" y="76" type="line"/>
      <point x="350" y="38"/>
      <point x="350" y="-34" type="qcurve"/>
      <point x="350" y="-91"/>
      <point x="267" y="-160"/>
      <point x="195" y="-160" type="qcurve"/>
      <point x="135" y="-160"/>
      <point x="80" y="-135" type="qcurve"/>
      <point x="80" y="-40" type="line"/>
      <point x="132" y="-40" type="line"/>
      <point x="132" y="-100" type="line"/>
      <point x="166" y="-110"/>
      <point x="200" y="-110" type="qcurve"/>
      <point x="240" y="-110"/>
      <point x="290" y="-78"/>
      <point x="290" y="-46" type="qcurve"/>
      <point x="290" y="-28"/>
      <point x="273" y="0"/>
      <point x="245" y="22"/>
      <point x="210" y="39"/>
      <point x="192" y="47" type="qcurve"/>
      <point x="166" y="58"/>
      <point x="118" y="83"/>
      <point x="82" y="116"/>
      <point x="60" y="161"/>
      <point x="60" y="191" type="qcurve"/>
      <point x="60" y="274"/>
      <point x="144" y="312" type="qcurve"/>
      <point x="144" y="314" type="line"/>
      <point x="70" y="350"/>
    </contour>
    <contour>
      <point x="300" y="186" type="qcurve"/>
      <point x="300" y="207"/>
      <point x="283" y="237"/>
      <point x="255" y="260"/>
      <point x="218" y="278"/>
      <point x="184" y="293" type="qcurve"/>
      <point x="120" y="264"/>
      <point x="120" y="202" type="qcurve"/>
      <point x="120" y="182"/>
      <point x="136" y="152"/>
      <point x="165" y="130"/>
      <point x="202" y="112"/>
      <point x="236" y="97" type="qcurve"/>
      <point x="300" y="125"/>
    </contour>
  </outline>
</glyph>
<glyph name="copyright" format="1">
  <advance width="630"/>
  <unicode hex="00A9"/>
  <outline>
    <contour>
      <point x="430" y="135" type="line"/>
      <point x="377" y="103"/>
      <point x="316" y="103" type="qcurve"/>
      <point x="239" y="103"/>
      <point x="150" y="194"/>
      <point x="150" y="269" type="qcurve"/>
      <point x="150" y="345"/>
      <point x="239" y="437"/>
      <point x="316" y="437" type="qcurve"/>
      <point x="374" y="437"/>
      <point x="430" y="410" type="qcurve"/>
      <point x="430" y="317" type="line"/>
      <point x="380" y="317" type="line"/>
      <point x="380" y="376" type="line"/>
      <point x="354" y="390"/>
      <point x="315" y="390" type="qcurve"/>
      <point x="262" y="390"/>
      <point x="210" y="329"/>
      <point x="210" y="274" type="qcurve"/>
      <point x="210" y="217"/>
      <point x="266" y="150"/>
      <point x="320" y="150" type="qcurve"/>
      <point x="371" y="150"/>
      <point x="430" y="184" type="qcurve"/>
    </contour>
    <contour>
      <point x="40" y="270" type="qcurve"/>
      <point x="40" y="396"/>
      <point x="192" y="550"/>
      <point x="314" y="550" type="qcurve"/>
      <point x="436" y="550"/>
      <point x="590" y="395"/>
      <point x="590" y="270" type="qcurve"/>
      <point x="590" y="144"/>
      <point x="436" y="-10"/>
      <point x="314" y="-10" type="qcurve"/>
      <point x="192" y="-10"/>
      <point x="40" y="144"/>
    </contour>
    <contour>
      <point x="90" y="270" type="qcurve"/>
      <point x="90" y="161"/>
      <point x="209" y="35"/>
      <point x="314" y="35" type="qcurve"/>
      <point x="419" y="35"/>
      <point x="540" y="161"/>
      <point x="540" y="270" type="qcurve"/>
      <point x="540" y="381"/>
      <point x="419" y="505"/>
      <point x="314" y="505" type="qcurve"/>
      <point x="209" y="505"/>
      <point x="90" y="381"/>
    </contour>
  </outline>
</glyph>
<glyph name="ordfeminine" format="1">
  <advance width="330"/>
  <unicode hex="00AA"/>
  <outline>
    <contour>
      <point x="50" y="487" type="line"/>
      <point x="101" y="510"/>
      <point x="158" y="510" type="qcurve"/>
      <point x="211" y="510"/>
      <point x="265" y="460"/>
      <point x="265" y="411" type="qcurve"/>
      <point x="265" y="267" type="line"/>
      <point x="310" y="267" type="line"/>
      <point x="310" y="220" type="line"/>
      <point x="216" y="220" type="line"/>
      <point x="213" y="255" type="line"/>
      <point x="211" y="255" type="line"/>
      <point x="172" y="210"/>
      <point x="119" y="210" type="qcurve"/>
      <point x="79" y="210"/>
      <point x="30" y="255"/>
      <point x="30" y="292" type="qcurve"/>
      <point x="30" y="385"/>
      <point x="195" y="385" type="qcurve"/>
      <point x="210" y="385" type="line"/>
      <point x="210" y="400" type="line"/>
      <point x="210" y="463"/>
      <point x="151" y="463" type="qcurve"/>
      <point x="99" y="463"/>
      <point x="50" y="439" type="qcurve"/>
    </contour>
    <contour>
      <point x="194" y="345" type="line"/>
      <point x="142" y="345"/>
      <point x="86" y="323"/>
      <point x="86" y="295" type="qcurve"/>
      <point x="86" y="277"/>
      <point x="111" y="257"/>
      <point x="133" y="257" type="qcurve"/>
      <point x="180" y="257"/>
      <point x="210" y="297" type="qcurve"/>
      <point x="210" y="345" type="line"/>
    </contour>
  </outline>
</glyph>
<glyph name="logicalnot" format="1">
  <advance width="390"/>
  <unicode hex="00AC"/>
  <outline>
    <contour>
      <point x="354" y="50" type="line"/>
      <point x="300" y="50" type="line"/>
      <point x="300" y="183" type="line"/>
      <point x="30" y="183" type="line"/>
      <point x="30" y="237" type="line"/>
      <point x="354" y="237" type="line"/>
    </contour>
  </outline>
</glyph>
<glyph name="registered" format="1">
  <advance width="630"/>
  <unicode hex="00AE"/>
  <outline>
    <contour>
      <point x="265" y="150" type="line"/>
      <point x="306" y="150" type="line"/>
      <point x="306" y="104" type="line"/>
      <point x="170" y="104" type="line"/>
      <point x="170" y="150" type="line"/>
      <point x="210" y="150" type="line"/>
      <point x="210" y="390" type="line"/>
      <point x="170" y="390" type="line"/>
      <point x="170" y="436" type="line"/>
      <point x="308" y="436" type="line"/>
      <point x="376" y="436"/>
      <point x="440" y="389"/>
      <point x="440" y="346" type="qcurve"/>
      <point x="440" y="310"/>
      <point x="402" y="260"/>
      <point x="354" y="251" type="qcurve"/>
      <point x="354" y="249" type="line"/>
      <point x="366" y="246"/>
      <point x="393" y="227"/>
      <point x="406" y="206" type="qcurve"/>
      <point x="439" y="150" type="line"/>
      <point x="480" y="150" type="line"/>
      <point x="480" y="104" type="line"/>
      <point x="398" y="104" type="line"/>
      <point x="386" y="128"/>
      <point x="372" y="152" type="qcurve"/>
      <point x="348" y="194" type="line"/>
      <point x="332" y="223"/>
      <point x="305" y="241"/>
      <point x="283" y="241" type="qcurve"/>
      <point x="265" y="241" type="line"/>
    </contour>
    <contour>
      <point x="296" y="285" type="line"/>
      <point x="341" y="285"/>
      <point x="380" y="311"/>
      <point x="380" y="341" type="qcurve"/>
      <point x="380" y="366"/>
      <point x="344" y="390"/>
      <point x="303" y="390" type="qcurve"/>
      <point x="265" y="390" type="line"/>
      <point x="265" y="285" type="line"/>
    </contour>
    <contour>
      <point x="40" y="270" type="qcurve"/>
      <point x="40" y="396"/>
      <point x="192" y="550"/>
      <point x="314" y="550" type="qcurve"/>
      <point x="436" y="550"/>
      <point x="590" y="395"/>
      <point x="590" y="270" type="qcurve"/>
      <point x="590" y="144"/>
      <point x="436" y="-10"/>
      <point x="314" y="-10" type="qcurve"/>
      <point x="192" y="-10"/>
      <point x="40" y="144"/>
    </contour>
    <contour>
      <point x="90" y="270" type="qcurve"/>
      <point x="90" y="161"/>
      <point x="209" y="35"/>
      <point x="314" y="35" type="qcurve"/>
      <point x="419" y="35"/>
      <point x="540" y="161"/>
      <point x="540" y="270" type="qcurve"/>
      <point x="540" y="381"/>
      <point x="419" y="505"/>
      <point x="314" y="505" type="qcurve"/>
      <point x="209" y="505"/>
      <point x="90" y="381"/>
    </contour>
  </outline>
</glyph>
<glyph name="degree" format="1">
  <advance width="300"/>
  <unicode hex="00B0"/>
  <outline>
    <contour>
      <point x="30" y="425" type="qcurve"/>
      <point x="30" y="479"/>
      <point x="99" y="550"/>
      <point x="155" y="550" type="qcurve"/>
      <point x="210" y="550"/>
      <point x="280" y="479"/>
      <point x="280" y="425" type="qcurve"/>
      <point x="280" y="371"/>
      <point x="210" y="300"/>
      <point x="155" y="300" type="qcurve"/>
      <point x="99" y="300"/>
      <point x="30" y="371"/>
    </contour>
    <contour>
      <point x="84" y="425" type="qcurve"/>
      <point x="84" y="392"/>
      <point x="124" y="350"/>
      <point x="155" y="350" type="qcurve"/>
      <point x="188" y="350"/>
      <point x="227" y="392"/>
      <point x="227" y="425" type="qcurve"/>
      <point x="227" y="458"/>
      <point x="188" y="499"/>
      <point x="155" y="499" type="qcurve"/>
      <point x="124" y="499"/>
      <point x="84" y="458"/>
    </contour>
  </outline>
</glyph>
<glyph name="plusminus" format="1">
  <advance width="390"/>
  <unicode hex="00B1"/>
  <outline>
    <contour>
      <point x="222" y="80" type="line"/>
      <point x="168" y="80" type="line"/>
      <point x="168" y="183" type="line"/>
      <point x="30" y="183" type="line"/>
      <point x="30" y="237" type="line"/>
      <point x="168" y="237" type="line"/>
      <point x="168" y="340" type="line"/>
      <point x="222" y="340" type="line"/>
      <point x="222" y="237" type="line"/>
      <point x="360" y="237" type="line"/>
      <point x="360" y="183" type="line"/>
      <point x="222" y="183" type="line"/>
    </contour>
    <contour>
      <point x="30" y="3" type="line"/>
      <point x="30" y="57" type="line"/>
      <point x="360" y="57" type="line"/>
      <point x="360" y="3" type="line"/>
    </contour>
  </outline>
</glyph>
<glyph name="twosuperior" format="1">
  <advance width="330"/>
  <unicode hex="00B2"/>
  <outline>
    <contour>
      <point x="290" y="310" type="line"/>
      <point x="290" y="220" type="line"/>
      <point x="40" y="220" type="line"/>
      <point x="40" y="264" type="line"/>
      <point x="117" y="318"/>
      <point x="224" y="420"/>
      <point x="224" y="461" type="qcurve"/>
      <point x="224" y="482"/>
      <point x="193" y="504"/>
      <point x="162" y="504" type="qcurve"/>
      <point x="128" y="504"/>
      <point x="97" y="490" type="qcurve"/>
      <point x="97" y="430" type="line"/>
      <point x="50" y="430" type="line"/>
      <point x="50" y="518" type="line"/>
      <point x="107" y="550"/>
      <point x="170" y="550" type="qcurve"/>
      <point x="225" y="550"/>
      <point x="280" y="506"/>
      <point x="280" y="466" type="qcurve"/>
      <point x="280" y="412"/>
      <point x="183" y="313"/>
      <point x="122" y="268" type="qcurve"/>
      <point x="122" y="266" type="line"/>
      <point x="243" y="266" type="line"/>
      <point x="243" y="310" type="line"/>
    </contour>
  </outline>
</glyph>
<glyph name="threesuperior" format="1">
  <advance width="330"/>
  <unicode hex="00B3"/>
  <outline>
    <contour>
      <point x="40" y="275" type="line"/>
      <point x="88" y="256"/>
      <point x="141" y="256" type="qcurve"/>
      <point x="181" y="256"/>
      <point x="234" y="281"/>
      <point x="234" y="310" type="qcurve"/>
      <point x="234" y="334"/>
      <point x="188" y="360"/>
      <point x="133" y="360" type="qcurve"/>
      <point x="110" y="360" type="line"/>
      <point x="110" y="404" type="line"/>
      <point x="126" y="404" type="line"/>
      <point x="175" y="404"/>
      <point x="220" y="432"/>
      <point x="220" y="458" type="qcurve"/>
      <point x="220" y="478"/>
      <point x="188" y="504"/>
      <point x="151" y="504" type="qcurve"/>
      <point x="115" y="504"/>
      <point x="87" y="494" type="qcurve"/>
      <point x="87" y="450" type="line"/>
      <point x="40" y="450" type="line"/>
      <point x="40" y="521" type="line"/>
      <point x="95" y="550"/>
      <point x="155" y="550" type="qcurve"/>
      <point x="208" y="550"/>
      <point x="274" y="503"/>
      <point x="274" y="464" type="qcurve"/>
      <point x="274" y="412"/>
      <point x="218" y="391" type="qcurve"/>
      <point x="218" y="389" type="line"/>
      <point x="290" y="373"/>
      <point x="290" y="310" type="qcurve"/>
      <point x="290" y="262"/>
      <point x="207" y="210"/>
      <point x="144" y="210" type="qcurve"/>
      <point x="82" y="210"/>
      <point x="40" y="226" type="qcurve"/>
    </contour>
  </outline>
</glyph>
<glyph name="uni00B5" format="1">
  <advance width="390"/>
  <unicode hex="00B5"/>
  <outline>
    <contour>
      <point x="50" y="-180" type="line"/>
      <point x="50" y="390" type="line"/>
      <point x="110" y="390" type="line"/>
      <point x="110" y="98" type="line"/>
      <point x="131" y="40"/>
      <point x="185" y="40" type="qcurve"/>
      <point x="241" y="40"/>
      <point x="270" y="99" type="qcurve"/>
      <point x="270" y="390" type="line"/>
      <point x="330" y="390" type="line"/>
      <point x="330" y="50" type="line"/>
      <point x="380" y="50" type="line"/>
      <point x="380" y="0" type="line"/>
      <point x="277" y="0" type="line"/>
      <point x="274" y="45" type="line"/>
      <point x="272" y="45" type="line"/>
      <point x="239" y="-10"/>
      <point x="188" y="-10" type="qcurve"/>
      <point x="135" y="-10"/>
      <point x="112" y="35" type="qcurve"/>
      <point x="110" y="35" type="line"/>
      <point x="110" y="-180" type="line"/>
    </contour>
  </outline>
</glyph>
<glyph name="paragraph" format="1">
  <advance width="450"/>
  <unicode hex="00B6"/>
  <outline>
    <contour>
      <point x="180" y="-150" type="line"/>
      <point x="180" y="240" type="line"/>
      <point x="99" y="242"/>
      <point x="10" y="322"/>
      <point x="10" y="396" type="qcurve"/>
      <point x="10" y="465"/>
      <point x="95" y="540"/>
      <point x="184" y="540" type="qcurve"/>
      <point x="410" y="540" type="line"/>
      <point x="410" y="490" type="line"/>
      <point x="360" y="490" type="line"/>
      <point x="360" y="-150" type="line"/>
      <point x="300" y="-150" type="line"/>
      <point x="300" y="490" type="line"/>
      <point x="240" y="490" type="line"/>
      <point x="240" y="-150" type="line"/>
    </contour>
  </outline>
</glyph>
<glyph name="periodcentered" format="1">
  <advance width="180"/>
  <unicode hex="00B7"/>
  <outline>
    <contour>
      <point x="40" y="193" type="qcurve"/>
      <point x="40" y="217"/>
      <point x="67" y="246"/>
      <point x="90" y="246" type="qcurve"/>
      <point x="113" y="246"/>
      <point x="140" y="217"/>
      <point x="140" y="197" type="qcurve"/>
      <point x="140" y="172"/>
      <point x="112" y="144"/>
      <point x="88" y="144" type="qcurve"/>
      <point x="66" y="144"/>
      <point x="40" y="172"/>
    </contour>
  </outline>
</glyph>
<glyph name="onesuperior" format="1">
  <advance width="240"/>
  <unicode hex="00B9"/>
  <outline>
    <contour>
      <point x="120" y="220" type="line"/>
      <point x="120" y="493" type="line"/>
      <point x="60" y="493" type="line"/>
      <point x="60" y="540" type="line"/>
      <point x="175" y="540" type="line"/>
      <point x="175" y="220" type="line"/>
    </contour>
  </outline>
</glyph>
<glyph name="ordmasculine" format="1">
  <advance width="330"/>
  <unicode hex="00BA"/>
  <outline>
    <contour>
      <point x="30" y="359" type="qcurve"/>
      <point x="30" y="426"/>
      <point x="105" y="510"/>
      <point x="170" y="510" type="qcurve"/>
      <point x="231" y="510"/>
      <point x="300" y="430"/>
      <point x="300" y="365" type="qcurve"/>
      <point x="300" y="296"/>
      <point x="225" y="210"/>
      <point x="164" y="210" type="qcurve"/>
      <point x="102" y="210"/>
      <point x="30" y="292"/>
    </contour>
    <contour>
      <point x="87" y="366" type="qcurve"/>
      <point x="87" y="313"/>
      <point x="128" y="257"/>
      <point x="167" y="257" type="qcurve"/>
      <point x="206" y="257"/>
      <point x="243" y="310"/>
      <point x="243" y="361" type="qcurve"/>
      <point x="243" y="410"/>
      <point x="206" y="463"/>
      <point x="164" y="463" type="qcurve"/>
      <point x="127" y="463"/>
      <point x="87" y="416"/>
    </contour>
  </outline>
</glyph>
<glyph name="questiondown" format="1">
  <advance width="300"/>
  <unicode hex="00BF"/>
  <outline>
    <contour>
      <point x="240" y="-147" type="line"/>
      <point x="201" y="-160"/>
      <point x="159" y="-160" type="qcurve"/>
      <point x="98" y="-160"/>
      <point x="18" y="-90"/>
      <point x="18" y="-30" type="qcurve"/>
      <point x="18" y="14"/>
      <point x="54" y="74"/>
      <point x="87" y="100" type="qcurve"/>
      <point x="120" y="127"/>
      <point x="153" y="170"/>
      <point x="153" y="200" type="qcurve"/>
      <point x="153" y="218"/>
      <point x="147" y="240" type="qcurve"/>
      <point x="191" y="240" type="line"/>
      <point x="202" y="210"/>
      <point x="202" y="180" type="qcurve"/>
      <point x="202" y="146"/>
      <point x="171" y="95"/>
      <point x="143" y="73" type="qcurve"/>
      <point x="116" y="51"/>
      <point x="80" y="9"/>
      <point x="80" y="-28" type="qcurve"/>
      <point x="80" y="-67"/>
      <point x="129" y="-107"/>
      <point x="169" y="-107" type="qcurve"/>
      <point x="201" y="-107"/>
      <point x="240" y="-95" type="qcurve"/>
    </contour>
    <contour>
      <point x="220" y="351" type="qcurve"/>
      <point x="220" y="327"/>
      <point x="193" y="298"/>
      <point x="170" y="298" type="qcurve"/>
      <point x="147" y="298"/>
      <point x="120" y="327"/>
      <point x="120" y="347" type="qcurve"/>
      <point x="120" y="372"/>
      <point x="148" y="400"/>
      <point x="172" y="400" type="qcurve"/>
      <point x="194" y="400"/>
      <point x="220" y="372"/>
    </contour>
  </outline>
</glyph>
<glyph name="AE" format="1">
  <advance width="660"/>
  <unicode hex="00C6"/>
  <outline>
    <contour>
      <point x="577" y="50" type="line"/>
      <point x="577" y="120" type="line"/>
      <point x="630" y="120" type="line"/>
      <point x="630" y="0" type="line"/>
      <point x="270" y="0" type="line"/>
      <point x="270" y="50" type="line"/>
      <point x="330" y="50" type="line"/>
      <point x="330" y="200" type="line"/>
      <point x="175" y="200" type="line"/>
      <point x="97" y="50" type="line"/>
      <point x="140" y="50" type="line"/>
      <point x="140" y="0" type="line"/>
      <point x="-10" y="0" type="line"/>
      <point x="-10" y="50" type="line"/>
      <point x="36" y="50" type="line"/>
      <point x="293" y="540" type="line"/>
      <point x="620" y="540" type="line"/>
      <point x="620" y="420" type="line"/>
      <point x="567" y="420" type="line"/>
      <point x="567" y="490" type="line"/>
      <point x="390" y="490" type="line"/>
      <point x="390" y="300" type="line"/>
      <point x="490" y="300" type="line"/>
      <point x="490" y="350" type="line"/>
      <point x="540" y="350" type="line"/>
      <point x="540" y="190" type="line"/>
      <point x="490" y="190" type="line"/>
      <point x="490" y="250" type="line"/>
      <point x="390" y="250" type="line"/>
      <point x="390" y="50" type="line"/>
    </contour>
    <contour>
      <point x="202" y="250" type="line"/>
      <point x="330" y="250" type="line"/>
      <point x="330" y="490" type="line"/>
      <point x="328" y="490" type="line"/>
    </contour>
  </outline>
</glyph>
<glyph name="multiply" format="1">
  <advance width="395"/>
  <unicode hex="00D7"/>
  <outline>
    <contour>
      <point x="355" y="88" type="line"/>
      <point x="317" y="50" type="line"/>
      <point x="195" y="172" type="line"/>
      <point x="73" y="50" type="line"/>
      <point x="35" y="88" type="line"/>
      <point x="157" y="210" type="line"/>
      <point x="35" y="332" type="line"/>
      <point x="73" y="370" type="line"/>
      <point x="195" y="248" type="line"/>
      <point x="317" y="370" type="line"/>
      <point x="355" y="332" type="line"/>
      <point x="233" y="210" type="line"/>
    </contour>
  </outline>
</glyph>
<glyph name="Oslash" format="1">
  <advance width="510"/>
  <unicode hex="00D8"/>
  <outline>
    <contour>
      <point x="47" y="271" type="qcurve"/>
      <point x="47" y="401"/>
      <point x="162" y="550"/>
      <point x="260" y="550" type="qcurve"/>
      <point x="327" y="550"/>
      <point x="375" y="514" type="qcurve"/>
      <point x="412" y="575" type="line"/>
      <point x="450" y="552" type="line"/>
      <point x="407" y="481" type="line"/>
      <point x="463" y="409"/>
      <point x="463" y="278" type="qcurve"/>
      <point x="463" y="142"/>
      <point x="348" y="-10"/>
      <point x="252" y="-10" type="qcurve"/>
      <point x="183" y="-10"/>
      <point x="137" y="30" type="qcurve"/>
      <point x="98" y="-35" type="line"/>
      <point x="60" y="-12" type="line"/>
      <point x="105" y="63" type="line"/>
      <point x="47" y="136"/>
    </contour>
    <contour>
      <point x="110" y="274" type="qcurve"/>
      <point x="110" y="176"/>
      <point x="139" y="120" type="qcurve"/>
      <point x="344" y="463" type="line"/>
      <point x="310" y="495"/>
      <point x="257" y="495" type="qcurve"/>
      <point x="186" y="495"/>
      <point x="110" y="387"/>
    </contour>
    <contour>
      <point x="255" y="45" type="qcurve"/>
      <point x="323" y="45"/>
      <point x="400" y="162"/>
      <point x="400" y="275" type="qcurve"/>
      <point x="400" y="369"/>
      <point x="373" y="423" type="qcurve"/>
      <point x="167" y="80" type="line"/>
      <point x="203" y="45"/>
    </contour>
  </outline>
</glyph>
<glyph name="Thorn" format="1">
  <advance width="420"/>
  <unicode hex="00DE"/>
  <outline>
    <contour>
      <point x="30" y="50" type="line"/>
      <point x="90" y="50" type="line"/>
      <point x="90" y="490" type="line"/>
      <point x="30" y="490" type="line"/>
      <point x="30" y="540" type="line"/>
      <point x="210" y="540" type="line"/>
      <point x="210" y="490" type="line"/>
      <point x="150" y="490" type="line"/>
      <point x="150" y="440" type="line"/>
      <point x="211" y="440" type="line"/>
      <point x="299" y="440"/>
      <point x="383" y="363"/>
      <point x="383" y="290" type="qcurve"/>
      <point x="383" y="207"/>
      <point x="288" y="120"/>
      <point x="197" y="120" type="qcurve"/>
      <point x="150" y="120" type="line"/>
      <point x="150" y="50" type="line"/>
      <point x="210" y="50" type="line"/>
      <point x="210" y="0" type="line"/>
      <point x="30" y="0" type="line"/>
    </contour>
    <contour>
      <point x="200" y="170" type="line"/>
      <point x="258" y="170"/>
      <point x="320" y="223"/>
      <point x="320" y="283" type="qcurve"/>
      <point x="320" y="344"/>
      <point x="264" y="390"/>
      <point x="205" y="390" type="qcurve"/>
      <point x="150" y="390" type="line"/>
      <point x="150" y="170" type="line"/>
    </contour>
  </outline>
</glyph>
<glyph name="germandbls" format="1">
  <advance width="450"/>
  <unicode hex="00DF"/>
  <outline>
    <contour>
      <point x="140" y="0" type="line"/>
      <point x="30" y="0" type="line"/>
      <point x="30" y="50" type="line"/>
      <point x="80" y="50" type="line"/>
      <point x="80" y="340" type="line"/>
      <point x="30" y="340" type="line"/>
      <point x="30" y="390" type="line"/>
      <point x="80" y="390" type="line"/>
      <point x="80" y="455" type="line"/>
      <point x="80" y="526"/>
      <point x="172" y="605"/>
      <point x="245" y="605" type="qcurve"/>
      <point x="311" y="605"/>
      <point x="390" y="540"/>
      <point x="390" y="485" type="qcurve"/>
      <point x="390" y="458"/>
      <point x="376" y="421"/>
      <point x="354" y="394"/>
      <point x="327" y="375"/>
      <point x="314" y="367" type="qcurve"/>
      <point x="285" y="350"/>
      <point x="260" y="324"/>
      <point x="260" y="304" type="qcurve"/>
      <point x="260" y="281"/>
      <point x="300" y="248"/>
      <point x="335" y="229" type="qcurve"/>
      <point x="351" y="220"/>
      <point x="380" y="200"/>
      <point x="405" y="173"/>
      <point x="420" y="136"/>
      <point x="420" y="112" type="qcurve"/>
      <point x="420" y="55"/>
      <point x="345" y="-10"/>
      <point x="283" y="-10" type="qcurve"/>
      <point x="246" y="-10"/>
      <point x="210" y="0" type="qcurve"/>
      <point x="210" y="53" type="line"/>
      <point x="247" y="40"/>
      <point x="283" y="40" type="qcurve"/>
      <point x="323" y="40"/>
      <point x="360" y="71"/>
      <point x="360" y="102" type="qcurve"/>
      <point x="360" y="128"/>
      <point x="328" y="161"/>
      <point x="295" y="179" type="qcurve"/>
      <point x="277" y="189"/>
      <point x="244" y="211"/>
      <point x="219" y="237"/>
      <point x="203" y="272"/>
      <point x="203" y="294" type="qcurve"/>
      <point x="203" y="317"/>
      <point x="215" y="347"/>
      <point x="233" y="370"/>
      <point x="259" y="391"/>
      <point x="273" y="400" type="qcurve"/>
      <point x="287" y="409"/>
      <point x="308" y="424"/>
      <point x="323" y="443"/>
      <point x="331" y="466"/>
      <point x="331" y="482" type="qcurve"/>
      <point x="331" y="519"/>
      <point x="286" y="557"/>
      <point x="240" y="557" type="qcurve"/>
      <point x="193" y="557"/>
      <point x="140" y="513"/>
      <point x="140" y="464" type="qcurve"/>
    </contour>
  </outline>
</glyph>
<glyph name="ae" format="1">
  <advance width="570"/>
  <unicode hex="00E6"/>
  <outline>
    <contour>
      <point x="530" y="75" type="qcurve"/>
      <point x="530" y="21" type="line"/>
      <point x="482" y="-10"/>
      <point x="418" y="-10" type="qcurve"/>
      <point x="332" y="-10"/>
      <point x="289" y="59" type="qcurve"/>
      <point x="287" y="59" type="line"/>
      <point x="230" y="-10"/>
      <point x="149" y="-10" type="qcurve"/>
      <point x="99" y="-10"/>
      <point x="40" y="50"/>
      <point x="40" y="98" type="qcurve"/>
      <point x="40" y="161"/>
      <point x="144" y="223"/>
      <point x="244" y="223" type="qcurve"/>
      <point x="260" y="223" type="line"/>
      <point x="260" y="282" type="line"/>
      <point x="260" y="319"/>
      <point x="227" y="350"/>
      <point x="189" y="350" type="qcurve"/>
      <point x="143" y="350"/>
      <point x="112" y="334" type="qcurve"/>
      <point x="112" y="280" type="line"/>
      <point x="60" y="280" type="line"/>
      <point x="60" y="361" type="line"/>
      <point x="126" y="400"/>
      <point x="196" y="400" type="qcurve"/>
      <point x="279" y="400"/>
      <point x="304" y="347" type="qcurve"/>
      <point x="306" y="347" type="line"/>
      <point x="349" y="400"/>
      <point x="416" y="400" type="qcurve"/>
      <point x="471" y="400"/>
      <point x="540" y="308"/>
      <point x="540" y="223" type="qcurve"/>
      <point x="540" y="192" type="line"/>
      <point x="320" y="192" type="line"/>
      <point x="322" y="122"/>
      <point x="370" y="44"/>
      <point x="423" y="42" type="qcurve"/>
      <point x="481" y="42"/>
    </contour>
    <contour>
      <point x="237" y="180" type="line"/>
      <point x="174" y="180"/>
      <point x="105" y="145"/>
      <point x="105" y="101" type="qcurve"/>
      <point x="105" y="70"/>
      <point x="137" y="40"/>
      <point x="160" y="40" type="qcurve"/>
      <point x="222" y="39"/>
      <point x="271" y="100" type="qcurve"/>
      <point x="260" y="133"/>
      <point x="258" y="180" type="qcurve"/>
    </contour>
    <contour>
      <point x="480" y="240" type="line"/>
      <point x="480" y="297"/>
      <point x="441" y="350"/>
      <point x="406" y="350" type="qcurve"/>
      <point x="372" y="350"/>
      <point x="326" y="295"/>
      <point x="321" y="240" type="qcurve"/>
    </contour>
  </outline>
</glyph>
<glyph name="eth" format="1">
  <advance width="420"/>
  <unicode hex="00F0"/>
  <outline>
    <contour>
      <point x="126" y="472" type="line"/>
      <point x="193" y="522" type="line"/>
      <point x="152" y="546"/>
      <point x="88" y="550" type="qcurve"/>
      <point x="88" y="600" type="line"/>
      <point x="173" y="597"/>
      <point x="235" y="554" type="qcurve"/>
      <point x="302" y="604" type="line"/>
      <point x="330" y="568" type="line"/>
      <point x="271" y="524" type="line"/>
      <point x="369" y="423"/>
      <point x="369" y="242" type="qcurve"/>
      <point x="369" y="122"/>
      <point x="278" y="-10"/>
      <point x="199" y="-10" type="qcurve"/>
      <point x="124" y="-10"/>
      <point x="35" y="101"/>
      <point x="35" y="191" type="qcurve"/>
      <point x="35" y="281"/>
      <point x="129" y="390"/>
      <point x="206" y="390" type="qcurve"/>
      <point x="250" y="390"/>
      <point x="290" y="369" type="qcurve"/>
      <point x="292" y="370" type="line"/>
      <point x="275" y="443"/>
      <point x="230" y="493" type="qcurve"/>
      <point x="154" y="436" type="line"/>
    </contour>
    <contour>
      <point x="208" y="340" type="qcurve"/>
      <point x="152" y="340"/>
      <point x="98" y="272"/>
      <point x="98" y="198" type="qcurve"/>
      <point x="98" y="122"/>
      <point x="151" y="40"/>
      <point x="203" y="40" type="qcurve"/>
      <point x="256" y="40"/>
      <point x="306" y="136"/>
      <point x="306" y="237" type="qcurve"/>
      <point x="306" y="280"/>
      <point x="301" y="317" type="qcurve"/>
      <point x="256" y="340"/>
    </contour>
  </outline>
</glyph>
<glyph name="divide" format="1">
  <advance width="390"/>
  <unicode hex="00F7"/>
  <outline>
    <contour>
      <point x="152" y="85" type="qcurve"/>
      <point x="152" y="106"/>
      <point x="175" y="130"/>
      <point x="196" y="130" type="qcurve"/>
      <point x="215" y="130"/>
      <point x="237" y="107"/>
      <point x="237" y="87" type="qcurve"/>
      <point x="237" y="67"/>
      <point x="215" y="44"/>
      <point x="195" y="44" type="qcurve"/>
      <point x="175" y="44"/>
      <point x="152" y="67"/>
    </contour>
    <contour>
      <point x="152" y="331" type="qcurve"/>
      <point x="152" y="352"/>
      <point x="175" y="376"/>
      <point x="196" y="376" type="qcurve"/>
      <point x="215" y="376"/>
      <point x="237" y="353"/>
      <point x="237" y="333" type="qcurve"/>
      <point x="237" y="313"/>
      <point x="215" y="290"/>
      <point x="195" y="290" type="qcurve"/>
      <point x="175" y="290"/>
      <point x="152" y="313"/>
    </contour>
    <contour>
      <point x="30" y="183" type="line"/>
      <point x="30" y="237" type="line"/>
      <point x="360" y="237" type="line"/>
      <point x="360" y="183" type="line"/>
    </contour>
  </outline>
</glyph>
<glyph name="oslash" format="1">
  <advance width="390"/>
  <unicode hex="00F8"/>
  <outline>
    <contour>
      <point x="35" y="193" type="qcurve"/>
      <point x="35" y="285"/>
      <point x="127" y="400"/>
      <point x="199" y="400" type="qcurve"/>
      <point x="248" y="400"/>
      <point x="284" y="374" type="qcurve"/>
      <point x="316" y="425" type="line"/>
      <point x="350" y="405" type="line"/>
      <point x="313" y="346" type="line"/>
      <point x="355" y="293"/>
      <point x="355" y="202" type="qcurve"/>
      <point x="355" y="108"/>
      <point x="265" y="-10"/>
      <point x="192" y="-10" type="qcurve"/>
      <point x="143" y="-10"/>
      <point x="107" y="17" type="qcurve"/>
      <point x="75" y="-35" type="line"/>
      <point x="40" y="-15" type="line"/>
      <point x="78" y="46" type="line"/>
      <point x="35" y="102"/>
    </contour>
    <contour>
      <point x="98" y="202" type="qcurve"/>
      <point x="98" y="142"/>
      <point x="114" y="102" type="qcurve"/>
      <point x="255" y="327" type="line"/>
      <point x="231" y="350"/>
      <point x="194" y="350" type="qcurve"/>
      <point x="149" y="350"/>
      <point x="98" y="280"/>
    </contour>
    <contour>
      <point x="197" y="40" type="qcurve"/>
      <point x="242" y="40"/>
      <point x="292" y="119"/>
      <point x="292" y="196" type="qcurve"/>
      <point x="292" y="253"/>
      <point x="278" y="289" type="qcurve"/>
      <point x="137" y="65" type="line"/>
      <point x="160" y="40"/>
    </contour>
  </outline>
</glyph>
<glyph name="thorn" format="1">
  <advance width="420"/>
  <unicode hex="00FE"/>
  <outline>
    <contour>
      <point x="380" y="207" type="qcurve"/>
      <point x="380" y="111"/>
      <point x="285" y="-10"/>
      <point x="212" y="-10" type="qcurve"/>
      <point x="174" y="-10"/>
      <point x="137" y="8" type="qcurve"/>
      <point x="135" y="7" type="line"/>
      <point x="135" y="-130" type="line"/>
      <point x="195" y="-130" type="line"/>
      <point x="195" y="-180" type="line"/>
      <point x="25" y="-180" type="line"/>
      <point x="25" y="-130" type="line"/>
      <point x="75" y="-130" type="line"/>
      <point x="75" y="550" type="line"/>
      <point x="25" y="550" type="line"/>
      <point x="25" y="600" type="line"/>
      <point x="135" y="600" type="line"/>
      <point x="135" y="365" type="line"/>
      <point x="137" y="364" type="line"/>
      <point x="179" y="400"/>
      <point x="236" y="400" type="qcurve"/>
      <point x="301" y="400"/>
      <point x="380" y="290"/>
    </contour>
    <contour>
      <point x="317" y="198" type="qcurve"/>
      <point x="317" y="267"/>
      <point x="268" y="350"/>
      <point x="218" y="350" type="qcurve"/>
      <point x="174" y="350"/>
      <point x="135" y="317" type="qcurve"/>
      <point x="135" y="55" type="line"/>
      <point x="165" y="40"/>
      <point x="205" y="40" type="qcurve"/>
      <point x="258" y="40"/>
      <point x="317" y="118"/>
    </contour>
  </outline>
</glyph>
<glyph name="Aogonek" format="1">
  <advance width="480"/>
  <unicode hex="0104"/>
  <outline>
    <contour>
      <point x="379" y="-135" type="qcurve"/>
      <point x="400" y="-135"/>
      <point x="420" y="-125" type="qcurve"/>
      <point x="420" y="-173" type="line"/>
      <point x="398" y="-185"/>
      <point x="371" y="-185" type="qcurve"/>
      <point x="335" y="-185"/>
      <point x="285" y="-144"/>
      <point x="285" y="-106" type="qcurve"/>
      <point x="285" y="-32"/>
      <point x="376" y="33" type="qcurve"/>
      <point x="321" y="200" type="line"/>
      <point x="154" y="200" type="line"/>
      <point x="107" y="50" type="line"/>
      <point x="160" y="50" type="line"/>
      <point x="160" y="0" type="line"/>
      <point x="0" y="0" type="line"/>
      <point x="0" y="50" type="line"/>
      <point x="50" y="50" type="line"/>
      <point x="211" y="545" type="line"/>
      <point x="269" y="545" type="line"/>
      <point x="433" y="50" type="line"/>
      <point x="480" y="50" type="line"/>
      <point x="480" y="0" type="line"/>
      <point x="399" y="0" type="line"/>
      <point x="340" y="-48"/>
      <point x="340" y="-96" type="qcurve"/>
      <point x="340" y="-117"/>
      <point x="363" y="-135"/>
    </contour>
    <contour>
      <point x="235" y="460" type="line"/>
      <point x="169" y="250" type="line"/>
      <point x="305" y="250" type="line"/>
      <point x="237" y="460" type="line"/>
    </contour>
  </outline>
</glyph>
<glyph name="eogonek" format="1">
  <advance width="360"/>
  <unicode hex="0119"/>
  <outline>
    <contour>
      <point x="320" y="75" type="qcurve"/>
      <point x="320" y="21" type="line"/>
      <point x="240" y="-38"/>
      <point x="240" y="-96" type="qcurve"/>
      <point x="240" y="-117"/>
      <point x="263" y="-135"/>
      <point x="279" y="-135" type="qcurve"/>
      <point x="300" y="-135"/>
      <point x="320" y="-125" type="qcurve"/>
      <point x="320" y="-173" type="line"/>
      <point x="298" y="-185"/>
      <point x="271" y="-185" type="qcurve"/>
      <point x="235" y="-185"/>
      <point x="185" y="-144"/>
      <point x="185" y="-108" type="qcurve"/>
      <point x="185" y="-55"/>
      <point x="235" y="-9" type="qcurve"/>
      <point x="235" y="-7" type="line"/>
      <point x="218" y="-10"/>
      <point x="203" y="-10" type="qcurve"/>
      <point x="124" y="-10"/>
      <point x="35" y="96"/>
      <point x="35" y="191" type="qcurve"/>
      <point x="35" y="289"/>
      <point x="129" y="400"/>
      <point x="200" y="400" type="qcurve"/>
      <point x="258" y="400"/>
      <point x="330" y="308"/>
      <point x="330" y="223" type="qcurve"/>
      <point x="330" y="192" type="line"/>
      <point x="97" y="192" type="line"/>
      <point x="99" y="122"/>
      <point x="150" y="44"/>
      <point x="206" y="42" type="qcurve"/>
      <point x="268" y="42"/>
    </contour>
    <contour>
      <point x="270" y="240" type="line"/>
      <point x="270" y="297"/>
      <point x="228" y="350"/>
      <point x="190" y="350" type="qcurve"/>
      <point x="153" y="350"/>
      <point x="103" y="295"/>
      <point x="98" y="240" type="qcurve"/>
    </contour>
  </outline>
</glyph>
<glyph name="Hbar" format="1">
  <advance width="570"/>
  <unicode hex="0126"/>
  <outline>
    <contour>
      <point x="540" y="365" type="line"/>
      <point x="480" y="365" type="line"/>
      <point x="480" y="50" type="line"/>
      <point x="540" y="50" type="line"/>
      <point x="540" y="0" type="line"/>
      <point x="360" y="0" type="line"/>
      <point x="360" y="50" type="line"/>
      <point x="420" y="50" type="line"/>
      <point x="420" y="240" type="line"/>
      <point x="150" y="240" type="line"/>
      <point x="150" y="50" type="line"/>
      <point x="210" y="50" type="line"/>
      <point x="210" y="0" type="line"/>
      <point x="30" y="0" type="line"/>
      <point x="30" y="50" type="line"/>
      <point x="90" y="50" type="line"/>
      <point x="90" y="365" type="line"/>
      <point x="30" y="365" type="line"/>
      <point x="30" y="415" type="line"/>
      <point x="90" y="415" type="line"/>
      <point x="90" y="490" type="line"/>
      <point x="30" y="490" type="line"/>
      <point x="30" y="540" type="line"/>
      <point x="210" y="540" type="line"/>
      <point x="210" y="490" type="line"/>
      <point x="150" y="490" type="line"/>
      <point x="150" y="415" type="line"/>
      <point x="420" y="415" type="line"/>
      <point x="420" y="490" type="line"/>
      <point x="360" y="490" type="line"/>
      <point x="360" y="540" type="line"/>
      <point x="540" y="540" type="line"/>
      <point x="540" y="490" type="line"/>
      <point x="480" y="490" type="line"/>
      <point x="480" y="415" type="line"/>
      <point x="540" y="415" type="line"/>
    </contour>
    <contour>
      <point x="420" y="290" type="line"/>
      <point x="420" y="365" type="line"/>
      <point x="150" y="365" type="line"/>
      <point x="150" y="290" type="line"/>
    </contour>
  </outline>
</glyph>
<glyph name="dotlessi" format="1">
  <advance width="210"/>
  <unicode hex="0131"/>
  <outline>
    <contour>
      <point x="30" y="50" type="line"/>
      <point x="80" y="50" type="line"/>
      <point x="80" y="340" type="line"/>
      <point x="30" y="340" type="line"/>
      <point x="30" y="390" type="line"/>
      <point x="140" y="390" type="line"/>
      <point x="140" y="50" type="line"/>
      <point x="190" y="50" type="line"/>
      <point x="190" y="0" type="line"/>
      <point x="30" y="0" type="line"/>
    </contour>
  </outline>
</glyph>
<glyph name="Ldot" format="1">
  <advance width="390"/>
  <unicode hex="013F"/>
  <outline>
    <contour>
      <point x="210" y="490" type="line"/>
      <point x="150" y="490" type="line"/>
      <point x="150" y="50" type="line"/>
      <point x="317" y="50" type="line"/>
      <point x="317" y="120" type="line"/>
      <point x="370" y="120" type="line"/>
      <point x="370" y="0" type="line"/>
      <point x="30" y="0" type="line"/>
      <point x="30" y="50" type="line"/>
      <point x="90" y="50" type="line"/>
      <point x="90" y="490" type="line"/>
      <point x="30" y="490" type="line"/>
      <point x="30" y="540" type="line"/>
      <point x="210" y="540" type="line"/>
    </contour>
    <contour>
      <point x="273" y="299" type="qcurve"/>
      <point x="273" y="320"/>
      <point x="295" y="343"/>
      <point x="315" y="343" type="qcurve"/>
      <point x="334" y="343"/>
      <point x="357" y="320"/>
      <point x="357" y="301" type="qcurve"/>
      <point x="357" y="281"/>
      <point x="334" y="258"/>
      <point x="314" y="258" type="qcurve"/>
      <point x="295" y="258"/>
      <point x="273" y="281"/>
    </contour>
  </outline>
</glyph>
<glyph name="ldot" format="1">
  <advance width="240"/>
  <unicode hex="0140"/>
  <outline>
    <contour>
      <point x="190" y="299" type="qcurve"/>
      <point x="190" y="319"/>
      <point x="211" y="341"/>
      <point x="230" y="341" type="qcurve"/>
      <point x="248" y="341"/>
      <point x="270" y="319"/>
      <point x="270" y="301" type="qcurve"/>
      <point x="270" y="282"/>
      <point x="248" y="260"/>
      <point x="229" y="260" type="qcurve"/>
      <point x="211" y="260"/>
      <point x="190" y="282"/>
    </contour>
    <contour>
      <point x="30" y="50" type="line"/>
      <point x="80" y="50" type="line"/>
      <point x="80" y="550" type="line"/>
      <point x="30" y="550" type="line"/>
      <point x="30" y="600" type="line"/>
      <point x="140" y="600" type="line"/>
      <point x="140" y="50" type="line"/>
      <point x="190" y="50" type="line"/>
      <point x="190" y="0" type="line"/>
      <point x="30" y="0" type="line"/>
    </contour>
  </outline>
</glyph>
<glyph name="Lslash" format="1">
  <advance width="390"/>
  <unicode hex="0141"/>
  <outline>
    <contour>
      <point x="210" y="490" type="line"/>
      <point x="150" y="490" type="line"/>
      <point x="150" y="309" type="line"/>
      <point x="270" y="370" type="line"/>
      <point x="270" y="315" type="line"/>
      <point x="150" y="254" type="line"/>
      <point x="150" y="50" type="line"/>
      <point x="317" y="50" type="line"/>
      <point x="317" y="120" type="line"/>
      <point x="370" y="120" type="line"/>
      <point x="370" y="0" type="line"/>
      <point x="30" y="0" type="line"/>
      <point x="30" y="50" type="line"/>
      <point x="90" y="50" type="line"/>
      <point x="90" y="227" type="line"/>
      <point x="30" y="197" type="line"/>
      <point x="30" y="252" type="line"/>
      <point x="90" y="282" type="line"/>
      <point x="90" y="490" type="line"/>
      <point x="30" y="490" type="line"/>
      <point x="30" y="540" type="line"/>
      <point x="210" y="540" type="line"/>
    </contour>
  </outline>
</glyph>
<glyph name="lslash" format="1">
  <advance width="210"/>
  <unicode hex="0142"/>
  <outline>
    <contour>
      <point x="30" y="50" type="line"/>
      <point x="80" y="50" type="line"/>
      <point x="80" y="308" type="line"/>
      <point x="20" y="286" type="line"/>
      <point x="20" y="338" type="line"/>
      <point x="80" y="360" type="line"/>
      <point x="80" y="550" type="line"/>
      <point x="30" y="550" type="line"/>
      <point x="30" y="600" type="line"/>
      <point x="140" y="600" type="line"/>
      <point x="140" y="378" type="line"/>
      <point x="200" y="400" type="line"/>
      <point x="200" y="348" type="line"/>
      <point x="140" y="326" type="line"/>
      <point x="140" y="50" type="line"/>
      <point x="190" y="50" type="line"/>
      <point x="190" y="0" type="line"/>
      <point x="30" y="0" type="line"/>
    </contour>
  </outline>
</glyph>
<glyph name="Eng" format="1">
  <advance width="540"/>
  <unicode hex="014A"/>
  <outline>
    <contour>
      <point x="394" y="490" type="line"/>
      <point x="334" y="490" type="line"/>
      <point x="334" y="540" type="line"/>
      <point x="510" y="540" type="line"/>
      <point x="510" y="490" type="line"/>
      <point x="450" y="490" type="line"/>
      <point x="450" y="-17" type="line"/>
      <point x="450" y="-80"/>
      <point x="400" y="-150"/>
      <point x="339" y="-150" type="qcurve"/>
      <point x="325" y="-150"/>
      <point x="310" y="-147" type="qcurve"/>
      <point x="310" y="-95" type="line"/>
      <point x="323" y="-96"/>
      <point x="334" y="-96" type="qcurve"/>
      <point x="367" y="-96"/>
      <point x="394" y="-66"/>
      <point x="394" y="-20" type="qcurve"/>
      <point x="394" y="0" type="line"/>
      <point x="148" y="421" type="line"/>
      <point x="146" y="421" type="line"/>
      <point x="146" y="50" type="line"/>
      <point x="206" y="50" type="line"/>
      <point x="206" y="0" type="line"/>
      <point x="30" y="0" type="line"/>
      <point x="30" y="50" type="line"/>
      <point x="90" y="50" type="line"/>
      <point x="90" y="490" type="line"/>
      <point x="30" y="490" type="line"/>
      <point x="30" y="540" type="line"/>
      <point x="150" y="540" type="line"/>
      <point x="392" y="125" type="line"/>
      <point x="394" y="125" type="line"/>
    </contour>
  </outline>
</glyph>
<glyph name="eng" format="1">
  <advance width="420"/>
  <unicode hex="014B"/>
  <outline>
    <contour>
      <point x="300" y="-58" type="qcurve"/>
      <point x="300" y="283" type="line"/>
      <point x="300" y="323"/>
      <point x="272" y="350"/>
      <point x="247" y="350" type="qcurve"/>
      <point x="189" y="350"/>
      <point x="140" y="288" type="qcurve"/>
      <point x="140" y="50" type="line"/>
      <point x="180" y="50" type="line"/>
      <point x="180" y="0" type="line"/>
      <point x="30" y="0" type="line"/>
      <point x="30" y="50" type="line"/>
      <point x="80" y="50" type="line"/>
      <point x="80" y="340" type="line"/>
      <point x="30" y="340" type="line"/>
      <point x="30" y="390" type="line"/>
      <point x="136" y="390" type="line"/>
      <point x="139" y="338" type="line"/>
      <point x="140" y="338" type="line"/>
      <point x="194" y="400"/>
      <point x="264" y="400" type="qcurve"/>
      <point x="314" y="400"/>
      <point x="360" y="343"/>
      <point x="360" y="291" type="qcurve"/>
      <point x="360" y="-49" type="line"/>
      <point x="360" y="-117"/>
      <point x="335" y="-149" type="qcurve"/>
      <point x="311" y="-182"/>
      <point x="258" y="-182" type="qcurve"/>
      <point x="244" y="-182"/>
      <point x="230" y="-180" type="qcurve"/>
      <point x="230" y="-130" type="line"/>
      <point x="238" y="-131"/>
      <point x="247" y="-131" type="qcurve"/>
      <point x="278" y="-131"/>
      <point x="300" y="-99"/>
    </contour>
  </outline>
</glyph>
<glyph name="OE" format="1">
  <advance width="690"/>
  <unicode hex="0152"/>
  <outline>
    <contour>
      <point x="607" y="50" type="line"/>
      <point x="607" y="120" type="line"/>
      <point x="660" y="120" type="line"/>
      <point x="660" y="0" type="line"/>
      <point x="360" y="0" type="line"/>
      <point x="360" y="14" type="line"/>
      <point x="319" y="-10"/>
      <point x="263" y="-10" type="qcurve"/>
      <point x="162" y="-10"/>
      <point x="47" y="137"/>
      <point x="47" y="269" type="qcurve"/>
      <point x="47" y="402"/>
      <point x="165" y="550"/>
      <point x="269" y="550" type="qcurve"/>
      <point x="319" y="550"/>
      <point x="360" y="532" type="qcurve"/>
      <point x="360" y="540" type="line"/>
      <point x="650" y="540" type="line"/>
      <point x="650" y="420" type="line"/>
      <point x="597" y="420" type="line"/>
      <point x="597" y="490" type="line"/>
      <point x="420" y="490" type="line"/>
      <point x="420" y="300" type="line"/>
      <point x="520" y="300" type="line"/>
      <point x="520" y="350" type="line"/>
      <point x="570" y="350" type="line"/>
      <point x="570" y="190" type="line"/>
      <point x="520" y="190" type="line"/>
      <point x="520" y="250" type="line"/>
      <point x="420" y="250" type="line"/>
      <point x="420" y="50" type="line"/>
    </contour>
    <contour>
      <point x="267" y="495" type="qcurve"/>
      <point x="189" y="495"/>
      <point x="110" y="388"/>
      <point x="110" y="275" type="qcurve"/>
      <point x="110" y="163"/>
      <point x="189" y="45"/>
      <point x="265" y="45" type="qcurve"/>
      <point x="322" y="45"/>
      <point x="360" y="74" type="qcurve"/>
      <point x="360" y="471" type="line"/>
      <point x="322" y="495"/>
    </contour>
  </outline>
</glyph>
<glyph name="oe" format="1">
  <advance width="600"/>
  <unicode hex="0153"/>
  <outline>
    <contour>
      <point x="570" y="192" type="line"/>
      <point x="341" y="192" type="line"/>
      <point x="343" y="122"/>
      <point x="393" y="44"/>
      <point x="449" y="42" type="qcurve"/>
      <point x="510" y="42"/>
      <point x="560" y="75" type="qcurve"/>
      <point x="560" y="21" type="line"/>
      <point x="512" y="-10"/>
      <point x="445" y="-10" type="qcurve"/>
      <point x="352" y="-10"/>
      <point x="311" y="65" type="qcurve"/>
      <point x="309" y="65" type="line"/>
      <point x="265" y="-10"/>
      <point x="186" y="-10" type="qcurve"/>
      <point x="118" y="-10"/>
      <point x="35" y="102"/>
      <point x="35" y="193" type="qcurve"/>
      <point x="35" y="285"/>
      <point x="124" y="400"/>
      <point x="193" y="400" type="qcurve"/>
      <point x="273" y="400"/>
      <point x="313" y="328" type="qcurve"/>
      <point x="315" y="328" type="line"/>
      <point x="362" y="400"/>
      <point x="442" y="400" type="qcurve"/>
      <point x="500" y="400"/>
      <point x="570" y="308"/>
      <point x="570" y="223" type="qcurve"/>
    </contour>
    <contour>
      <point x="98" y="202" type="qcurve"/>
      <point x="98" y="125"/>
      <point x="146" y="40"/>
      <point x="191" y="40" type="qcurve"/>
      <point x="233" y="40"/>
      <point x="280" y="119"/>
      <point x="280" y="196" type="qcurve"/>
      <point x="280" y="271"/>
      <point x="234" y="350"/>
      <point x="188" y="350" type="qcurve"/>
      <point x="146" y="350"/>
      <point x="98" y="280"/>
    </contour>
    <contour>
      <point x="510" y="240" type="line"/>
      <point x="510" y="297"/>
      <point x="470" y="350"/>
      <point x="432" y="350" type="qcurve"/>
      <point x="396" y="350"/>
      <point x="347" y="295"/>
      <point x="342" y="240" type="qcurve"/>
    </contour>
  </outline>
</glyph>
<glyph name="Tbar" format="1">
  <advance width="420"/>
  <unicode hex="0166"/>
  <outline>
    <contour>
      <point x="110" y="50" type="line"/>
      <point x="180" y="50" type="line"/>
      <point x="180" y="250" type="line"/>
      <point x="90" y="250" type="line"/>
      <point x="90" y="300" type="line"/>
      <point x="180" y="300" type="line"/>
      <point x="180" y="490" type="line"/>
      <point x="70" y="490" type="line"/>
      <point x="70" y="410" type="line"/>
      <point x="17" y="410" type="line"/>
      <point x="17" y="540" type="line"/>
      <point x="403" y="540" type="line"/>
      <point x="403" y="410" type="line"/>
      <point x="350" y="410" type="line"/>
      <point x="350" y="490" type="line"/>
      <point x="240" y="490" type="line"/>
      <point x="240" y="300" type="line"/>
      <point x="330" y="300" type="line"/>
      <point x="330" y="250" type="line"/>
      <point x="240" y="250" type="line"/>
      <point x="240" y="50" type="line"/>
      <point x="310" y="50" type="line"/>
      <point x="310" y="0" type="line"/>
      <point x="110" y="0" type="line"/>
    </contour>
  </outline>
</glyph>
<glyph name="uni0192" format="1">
  <advance width="330"/>
  <unicode hex="0192"/>
  <outline>
    <contour>
      <point x="330" y="486" type="line"/>
      <point x="305" y="490"/>
      <point x="288" y="490" type="qcurve"/>
      <point x="239" y="490"/>
      <point x="193" y="440"/>
      <point x="188" y="374" type="qcurve"/>
      <point x="183" y="315" type="line"/>
      <point x="280" y="315" type="line"/>
      <point x="280" y="270" type="line"/>
      <point x="180" y="270" type="line"/>
      <point x="164" y="70" type="line"/>
      <point x="157" y="-20"/>
      <point x="85" y="-120"/>
      <point x="20" y="-120" type="qcurve"/>
      <point x="-2" y="-120"/>
      <point x="-20" y="-116" type="qcurve"/>
      <point x="-20" y="-67" type="line"/>
      <point x="-4" y="-70"/>
      <point x="15" y="-70" type="qcurve"/>
      <point x="58" y="-70"/>
      <point x="100" y="-2"/>
      <point x="106" y="72" type="qcurve"/>
      <point x="122" y="270" type="line"/>
      <point x="50" y="270" type="line"/>
      <point x="50" y="315" type="line"/>
      <point x="126" y="315" type="line"/>
      <point x="132" y="377" type="line"/>
      <point x="138" y="457"/>
      <point x="212" y="540"/>
      <point x="282" y="540" type="qcurve"/>
      <point x="307" y="540"/>
      <point x="330" y="536" type="qcurve"/>
    </contour>
  </outline>
</glyph>
<glyph name="uni0237" format="1">
  <advance width="180"/>
  <unicode hex="0237"/>
  <outline>
    <contour>
      <point x="105" y="-149" type="qcurve"/>
      <point x="81" y="-182"/>
      <point x="28" y="-182" type="qcurve"/>
      <point x="14" y="-182"/>
      <point x="0" y="-180" type="qcurve"/>
      <point x="0" y="-130" type="line"/>
      <point x="8" y="-131"/>
      <point x="17" y="-131" type="qcurve"/>
      <point x="48" y="-131"/>
      <point x="70" y="-99"/>
      <point x="70" y="-58" type="qcurve"/>
      <point x="70" y="340" type="line"/>
      <point x="20" y="340" type="line"/>
      <point x="20" y="390" type="line"/>
      <point x="130" y="390" type="line"/>
      <point x="130" y="-49" type="line"/>
      <point x="130" y="-117"/>
    </contour>
  </outline>
</glyph>
<glyph name="uni0300" format="1">
  <advance width="0"/>
  <unicode hex="0300"/>
  <outline>
    <contour>
      <point x="-164" y="430" type="line"/>
      <point x="-210" y="430" type="line"/>
      <point x="-290" y="550" type="line"/>
      <point x="-220" y="550" type="line"/>
    </contour>
  </outline>
</glyph>
<glyph name="uni0301" format="1">
  <advance width="0"/>
  <unicode hex="0301"/>
  <outline>
    <contour>
      <point x="-170" y="550" type="line"/>
      <point x="-100" y="550" type="line"/>
      <point x="-180" y="430" type="line"/>
      <point x="-226" y="430" type="line"/>
    </contour>
  </outline>
</glyph>
<glyph name="uni0302" format="1">
  <advance width="0"/>
  <unicode hex="0302"/>
  <outline>
    <contour>
      <point x="-196" y="505" type="line"/>
      <point x="-253" y="430" type="line"/>
      <point x="-313" y="430" type="line"/>
      <point x="-219" y="550" type="line"/>
      <point x="-171" y="550" type="line"/>
      <point x="-77" y="430" type="line"/>
      <point x="-137" y="430" type="line"/>
      <point x="-194" y="505" type="line"/>
    </contour>
  </outline>
</glyph>
<glyph name="uni0303" format="1">
  <advance width="0"/>
  <unicode hex="0303"/>
  <outline>
    <contour>
      <point x="-310" y="463" type="line"/>
      <point x="-310" y="514" type="line"/>
      <point x="-279" y="536"/>
      <point x="-246" y="536" type="qcurve"/>
      <point x="-220" y="536"/>
      <point x="-185" y="518" type="qcurve"/>
      <point x="-160" y="506"/>
      <point x="-142" y="506" type="qcurve"/>
      <point x="-110" y="506"/>
      <point x="-82" y="530" type="qcurve"/>
      <point x="-80" y="530" type="line"/>
      <point x="-80" y="479" type="line"/>
      <point x="-111" y="457"/>
      <point x="-144" y="457" type="qcurve"/>
      <point x="-170" y="457"/>
      <point x="-205" y="475" type="qcurve"/>
      <point x="-230" y="487"/>
      <point x="-248" y="487" type="qcurve"/>
      <point x="-280" y="487"/>
      <point x="-308" y="463" type="qcurve"/>
    </contour>
  </outline>
</glyph>
<glyph name="uni0304" format="1">
  <advance width="0"/>
  <unicode hex="0304"/>
  <outline>
    <contour>
      <point x="-300" y="510" type="line"/>
      <point x="-90" y="510" type="line"/>
      <point x="-90" y="462" type="line"/>
      <point x="-300" y="462" type="line"/>
    </contour>
  </outline>
</glyph>
<glyph name="uni0306" format="1">
  <advance width="0"/>
  <unicode hex="0306"/>
  <outline>
    <contour>
      <point x="-259" y="550" type="line"/>
      <point x="-257" y="515"/>
      <point x="-222" y="478"/>
      <point x="-195" y="478" type="qcurve"/>
      <point x="-167" y="478"/>
      <point x="-133" y="516"/>
      <point x="-130" y="550" type="qcurve"/>
      <point x="-87" y="550" type="line"/>
      <point x="-88" y="495"/>
      <point x="-147" y="430"/>
      <point x="-195" y="430" type="qcurve"/>
      <point x="-242" y="430"/>
      <point x="-300" y="495"/>
      <point x="-303" y="550" type="qcurve"/>
    </contour>
  </outline>
</glyph>
<glyph name="uni0307" format="1">
  <advance width="0"/>
  <unicode hex="0307"/>
  <outline>
    <contour>
      <point x="-238" y="496" type="qcurve"/>
      <point x="-238" y="517"/>
      <point x="-215" y="540"/>
      <point x="-195" y="540" type="qcurve"/>
      <point x="-176" y="540"/>
      <point x="-152" y="517"/>
      <point x="-152" y="498" type="qcurve"/>
      <point x="-152" y="478"/>
      <point x="-176" y="455"/>
      <point x="-196" y="455" type="qcurve"/>
      <point x="-215" y="455"/>
      <point x="-238" y="478"/>
    </contour>
  </outline>
</glyph>
<glyph name="uni0308" format="1">
  <advance width="0"/>
  <unicode hex="0308"/>
  <outline>
    <contour>
      <point x="-310" y="496" type="qcurve"/>
      <point x="-310" y="516"/>
      <point x="-286" y="540"/>
      <point x="-268" y="540" type="qcurve"/>
      <point x="-248" y="540"/>
      <point x="-225" y="516"/>
      <point x="-225" y="497" type="qcurve"/>
      <point x="-225" y="478"/>
      <point x="-248" y="455"/>
      <point x="-269" y="455" type="qcurve"/>
      <point x="-287" y="455"/>
      <point x="-310" y="478"/>
    </contour>
    <contour>
      <point x="-165" y="496" type="qcurve"/>
      <point x="-165" y="516"/>
      <point x="-141" y="540"/>
      <point x="-123" y="540" type="qcurve"/>
      <point x="-103" y="540"/>
      <point x="-80" y="516"/>
      <point x="-80" y="497" type="qcurve"/>
      <point x="-80" y="478"/>
      <point x="-103" y="455"/>
      <point x="-124" y="455" type="qcurve"/>
      <point x="-142" y="455"/>
      <point x="-165" y="478"/>
    </contour>
  </outline>
</glyph>
<glyph name="uni030A" format="1">
  <advance width="0"/>
  <unicode hex="030A"/>
  <outline>
    <contour>
      <point x="-270" y="495" type="qcurve"/>
      <point x="-270" y="525"/>
      <point x="-228" y="560"/>
      <point x="-194" y="560" type="qcurve"/>
      <point x="-158" y="560"/>
      <point x="-120" y="525"/>
      <point x="-120" y="496" type="qcurve"/>
      <point x="-120" y="468"/>
      <point x="-161" y="430"/>
      <point x="-197" y="430" type="qcurve"/>
      <point x="-231" y="430"/>
      <point x="-270" y="467"/>
    </contour>
    <contour>
      <point x="-229" y="496" type="qcurve"/>
      <point x="-229" y="478"/>
      <point x="-211" y="461"/>
      <point x="-195" y="461" type="qcurve"/>
      <point x="-180" y="461"/>
      <point x="-161" y="480"/>
      <point x="-161" y="496" type="qcurve"/>
      <point x="-161" y="512"/>
      <point x="-180" y="529"/>
      <point x="-195" y="529" type="qcurve"/>
      <point x="-211" y="529"/>
      <point x="-229" y="512"/>
    </contour>
  </outline>
</glyph>
<glyph name="uni030B" format="1">
  <advance width="0"/>
  <unicode hex="030B"/>
  <outline>
    <contour>
      <point x="-221" y="550" type="line"/>
      <point x="-158" y="550" type="line"/>
      <point x="-231" y="430" type="line"/>
      <point x="-276" y="430" type="line"/>
    </contour>
    <contour>
      <point x="-116" y="550" type="line"/>
      <point x="-51" y="550" type="line"/>
      <point x="-131" y="430" type="line"/>
      <point x="-175" y="430" type="line"/>
    </contour>
  </outline>
</glyph>
<glyph name="uni030C" format="1">
  <advance width="0"/>
  <unicode hex="030C"/>
  <outline>
    <contour>
      <point x="-194" y="475" type="line"/>
      <point x="-137" y="550" type="line"/>
      <point x="-77" y="550" type="line"/>
      <point x="-171" y="430" type="line"/>
      <point x="-219" y="430" type="line"/>
      <point x="-313" y="550" type="line"/>
      <point x="-253" y="550" type="line"/>
      <point x="-196" y="475" type="line"/>
    </contour>
  </outline>
</glyph>
<glyph name="uni0312" format="1">
  <advance width="0"/>
  <unicode hex="0312"/>
  <outline>
    <contour>
      <point x="-165" y="430" type="line"/>
      <point x="-228" y="430" type="line"/>
      <point x="-187" y="550" type="line"/>
      <point x="-146" y="550" type="line"/>
    </contour>
  </outline>
</glyph>
<glyph name="uni0315" format="1">
  <advance width="60"/>
  <unicode hex="0315"/>
  <outline>
    <contour>
      <point x="0" y="550" type="line"/>
      <point x="60" y="550" type="line"/>
      <point x="20" y="420" type="line"/>
      <point x="-22" y="420" type="line"/>
    </contour>
  </outline>
</glyph>
<glyph name="uni0326" format="1">
  <advance width="0"/>
  <unicode hex="0326"/>
  <outline>
    <contour>
      <point x="-225" y="-40" type="line"/>
      <point x="-162" y="-40" type="line"/>
      <point x="-203" y="-160" type="line"/>
      <point x="-244" y="-160" type="line"/>
    </contour>
  </outline>
</glyph>
<glyph name="uni0327" format="1">
  <advance width="0"/>
  <unicode hex="0327"/>
  <outline>
    <contour>
      <point x="-270" y="-135" type="line"/>
      <point x="-251" y="-139"/>
      <point x="-231" y="-139" type="qcurve"/>
      <point x="-212" y="-139"/>
      <point x="-190" y="-124"/>
      <point x="-190" y="-106" type="qcurve"/>
      <point x="-190" y="-74"/>
      <point x="-247" y="-74" type="qcurve"/>
      <point x="-217" y="8" type="line"/>
      <point x="-171" y="8" type="line"/>
      <point x="-190" y="-44" type="line"/>
      <point x="-160" y="-51"/>
      <point x="-135" y="-86"/>
      <point x="-135" y="-108" type="qcurve"/>
      <point x="-135" y="-143"/>
      <point x="-187" y="-185"/>
      <point x="-229" y="-185" type="qcurve"/>
      <point x="-249" y="-185"/>
      <point x="-270" y="-180" type="qcurve"/>
    </contour>
  </outline>
</glyph>
<glyph name="uni0328" format="1">
  <advance width="0"/>
  <unicode hex="0328"/>
  <outline>
    <contour>
      <point x="-71" y="-135" type="qcurve"/>
      <point x="-50" y="-135"/>
      <point x="-30" y="-125" type="qcurve"/>
      <point x="-30" y="-173" type="line"/>
      <point x="-52" y="-185"/>
      <point x="-79" y="-185" type="qcurve"/>
      <point x="-115" y="-185"/>
      <point x="-165" y="-144"/>
      <point x="-165" y="-108" type="qcurve"/>
      <point x="-165" y="-53"/>
      <point x="-106" y="-2" type="qcurve"/>
      <point x="-106" y="8" type="line"/>
      <point x="-51" y="8" type="line"/>
      <point x="-51" y="0" type="line"/>
      <point x="-110" y="-48"/>
      <point x="-110" y="-96" type="qcurve"/>
      <point x="-110" y="-117"/>
      <point x="-87" y="-135"/>
    </contour>
  </outline>
</glyph>
<glyph name="endash" format="1">
  <advance width="420"/>
  <unicode hex="2013"/>
  <outline>
    <contour>
      <point x="30" y="230" type="line"/>
      <point x="390" y="230" type="line"/>
      <point x="390" y="180" type="line"/>
      <point x="30" y="180" type="line"/>
    </contour>
  </outline>
</glyph>
<glyph name="emdash" format="1">
  <advance width="810"/>
  <unicode hex="2014"/>
  <outline>
    <contour>
      <point x="30" y="230" type="line"/>
      <point x="780" y="230" type="line"/>
      <point x="780" y="180" type="line"/>
      <point x="30" y="180" type="line"/>
    </contour>
  </outline>
</glyph>
<glyph name="quoteleft" format="1">
  <advance width="150"/>
  <unicode hex="2018"/>
  <outline>
    <contour>
      <point x="73" y="340" type="line"/>
      <point x="30" y="381"/>
      <point x="30" y="425" type="qcurve"/>
      <point x="30" y="487"/>
      <point x="101" y="550" type="qcurve"/>
      <point x="130" y="523" type="line"/>
      <point x="90" y="484"/>
      <point x="90" y="448" type="qcurve"/>
      <point x="90" y="419"/>
      <point x="126" y="385" type="qcurve"/>
    </contour>
  </outline>
</glyph>
<glyph name="quoteright" format="1">
  <advance width="150"/>
  <unicode hex="2019"/>
  <outline>
    <contour>
      <point x="77" y="550" type="line"/>
      <point x="120" y="509"/>
      <point x="120" y="465" type="qcurve"/>
      <point x="120" y="403"/>
      <point x="49" y="340" type="qcurve"/>
      <point x="20" y="367" type="line"/>
      <point x="60" y="406"/>
      <point x="60" y="442" type="qcurve"/>
      <point x="60" y="471"/>
      <point x="24" y="505" type="qcurve"/>
    </contour>
  </outline>
</glyph>
<glyph name="quotesinglbase" format="1">
  <advance width="150"/>
  <unicode hex="201A"/>
  <outline>
    <contour>
      <point x="77" y="118" type="line"/>
      <point x="120" y="77"/>
      <point x="120" y="33" type="qcurve"/>
      <point x="120" y="-29"/>
      <point x="49" y="-92" type="qcurve"/>
      <point x="20" y="-65" type="line"/>
      <point x="60" y="-26"/>
      <point x="60" y="10" type="qcurve"/>
      <point x="60" y="39"/>
      <point x="24" y="73" type="qcurve"/>
    </contour>
  </outline>
</glyph>
<glyph name="dagger" format="1">
  <advance width="360"/>
  <unicode hex="2020"/>
  <outline>
    <contour>
      <point x="205" y="390" type="line"/>
      <point x="330" y="390" type="line"/>
      <point x="330" y="345" type="line"/>
      <point x="205" y="345" type="line"/>
      <point x="205" y="-150" type="line"/>
      <point x="155" y="-150" type="line"/>
      <point x="155" y="345" type="line"/>
      <point x="30" y="345" type="line"/>
      <point x="30" y="390" type="line"/>
      <point x="155" y="390" type="line"/>
      <point x="155" y="540" type="line"/>
      <point x="205" y="540" type="line"/>
    </contour>
  </outline>
</glyph>
<glyph name="daggerdbl" format="1">
  <advance width="360"/>
  <unicode hex="2021"/>
  <outline>
    <contour>
      <point x="155" y="0" type="line"/>
      <point x="30" y="0" type="line"/>
      <point x="30" y="45" type="line"/>
      <point x="155" y="45" type="line"/>
      <point x="155" y="345" type="line"/>
      <point x="30" y="345" type="line"/>
      <point x="30" y="390" type="line"/>
      <point x="155" y="390" type="line"/>
      <point x="155" y="540" type="line"/>
      <point x="205" y="540" type="line"/>
      <point x="205" y="390" type="line"/>
      <point x="330" y="390" type="line"/>
      <point x="330" y="345" type="line"/>
      <point x="205" y="345" type="line"/>
      <point x="205" y="45" type="line"/>
      <point x="330" y="45" type="line"/>
      <point x="330" y="0" type="line"/>
      <point x="205" y="0" type="line"/>
      <point x="205" y="-150" type="line"/>
      <point x="155" y="-150" type="line"/>
    </contour>
  </outline>
</glyph>
<glyph name="bullet" format="1">
  <advance width="240"/>
  <unicode hex="2022"/>
  <outline>
    <contour>
      <point x="55" y="274" type="qcurve"/>
      <point x="55" y="304"/>
      <point x="90" y="340"/>
      <point x="120" y="340" type="qcurve"/>
      <point x="149" y="340"/>
      <point x="185" y="305"/>
      <point x="185" y="276" type="qcurve"/>
      <point x="185" y="245"/>
      <point x="149" y="210"/>
      <point x="118" y="210" type="qcurve"/>
      <point x="90" y="210"/>
      <point x="55" y="245"/>
    </contour>
  </outline>
</glyph>
<glyph name="ellipsis" format="1">
  <advance width="540"/>
  <unicode hex="2026"/>
  <outline>
    <contour>
      <point x="50" y="39" type="qcurve"/>
      <point x="50" y="63"/>
      <point x="77" y="92"/>
      <point x="100" y="92" type="qcurve"/>
      <point x="123" y="92"/>
      <point x="150" y="63"/>
      <point x="150" y="43" type="qcurve"/>
      <point x="150" y="18"/>
      <point x="122" y="-10"/>
      <point x="98" y="-10" type="qcurve"/>
      <point x="76" y="-10"/>
      <point x="50" y="18"/>
    </contour>
    <contour>
      <point x="230" y="39" type="qcurve"/>
      <point x="230" y="63"/>
      <point x="257" y="92"/>
      <point x="280" y="92" type="qcurve"/>
      <point x="303" y="92"/>
      <point x="330" y="63"/>
      <point x="330" y="43" type="qcurve"/>
      <point x="330" y="18"/>
      <point x="302" y="-10"/>
      <point x="278" y="-10" type="qcurve"/>
      <point x="256" y="-10"/>
      <point x="230" y="18"/>
    </contour>
    <contour>
      <point x="410" y="39" type="qcurve"/>
      <point x="410" y="63"/>
      <point x="437" y="92"/>
      <point x="460" y="92" type="qcurve"/>
      <point x="483" y="92"/>
      <point x="510" y="63"/>
      <point x="510" y="43" type="qcurve"/>
      <point x="510" y="18"/>
      <point x="482" y="-10"/>
      <point x="458" y="-10" type="qcurve"/>
      <point x="436" y="-10"/>
      <point x="410" y="18"/>
    </contour>
  </outline>
</glyph>
<glyph name="guilsinglleft" format="1">
  <advance width="210"/>
  <unicode hex="2039"/>
  <outline>
    <contour>
      <point x="30" y="195" type="line"/>
      <point x="115" y="330" type="line"/>
      <point x="180" y="330" type="line"/>
      <point x="95" y="195" type="line"/>
      <point x="180" y="60" type="line"/>
      <point x="115" y="60" type="line"/>
    </contour>
  </outline>
</glyph>
<glyph name="guilsinglright" format="1">
  <advance width="210"/>
  <unicode hex="203A"/>
  <outline>
    <contour>
      <point x="180" y="195" type="line"/>
      <point x="95" y="60" type="line"/>
      <point x="30" y="60" type="line"/>
      <point x="115" y="195" type="line"/>
      <point x="30" y="330" type="line"/>
      <point x="95" y="330" type="line"/>
    </contour>
  </outline>
</glyph>
<glyph name="fraction" format="1">
  <advance width="90"/>
  <unicode hex="2044"/>
  <outline>
    <contour>
      <point x="260" y="550" type="line"/>
      <point x="-110" y="0" type="line"/>
      <point x="-170" y="0" type="line"/>
      <point x="200" y="550" type="line"/>
    </contour>
  </outline>
</glyph>
<glyph name="uni2070" format="1">
  <advance width="360"/>
  <unicode hex="2070"/>
  <outline>
    <contour>
      <point x="50" y="379" type="qcurve"/>
      <point x="50" y="463"/>
      <point x="124" y="550"/>
      <point x="184" y="550" type="qcurve"/>
      <point x="242" y="550"/>
      <point x="310" y="463"/>
      <point x="310" y="385" type="qcurve"/>
      <point x="310" y="298"/>
      <point x="237" y="210"/>
      <point x="178" y="210" type="qcurve"/>
      <point x="121" y="210"/>
      <point x="50" y="298"/>
    </contour>
    <contour>
      <point x="106" y="382" type="qcurve"/>
      <point x="106" y="320"/>
      <point x="143" y="257"/>
      <point x="180" y="257" type="qcurve"/>
      <point x="216" y="257"/>
      <point x="254" y="320"/>
      <point x="254" y="382" type="qcurve"/>
      <point x="254" y="443"/>
      <point x="219" y="503"/>
      <point x="180" y="503" type="qcurve"/>
      <point x="144" y="503"/>
      <point x="106" y="446"/>
    </contour>
  </outline>
</glyph>
<glyph name="uni2074" format="1">
  <advance width="330"/>
  <unicode hex="2074"/>
  <outline>
    <contour>
      <point x="180" y="295" type="line"/>
      <point x="10" y="295" type="line"/>
      <point x="10" y="335" type="line"/>
      <point x="187" y="545" type="line"/>
      <point x="240" y="545" type="line"/>
      <point x="240" y="340" type="line"/>
      <point x="300" y="340" type="line"/>
      <point x="300" y="295" type="line"/>
      <point x="240" y="295" type="line"/>
      <point x="240" y="220" type="line"/>
      <point x="180" y="220" type="line"/>
    </contour>
    <contour>
      <point x="73" y="340" type="line"/>
      <point x="180" y="340" type="line"/>
      <point x="180" y="468" type="line"/>
      <point x="178" y="468" type="line"/>
      <point x="72" y="342" type="line"/>
    </contour>
  </outline>
</glyph>
<glyph name="Euro" format="1">
  <advance width="450"/>
  <unicode hex="20AC"/>
  <outline>
    <contour>
      <point x="28" y="240" type="line"/>
      <point x="71" y="240" type="line"/>
      <point x="70" y="254"/>
      <point x="70" y="269" type="qcurve"/>
      <point x="70" y="283"/>
      <point x="71" y="300" type="qcurve"/>
      <point x="22" y="300" type="line"/>
      <point x="30" y="345" type="line"/>
      <point x="76" y="345" type="line"/>
      <point x="93" y="442"/>
      <point x="209" y="550"/>
      <point x="299" y="550" type="qcurve"/>
      <point x="364" y="550"/>
      <point x="420" y="528" type="qcurve"/>
      <point x="420" y="435" type="line"/>
      <point x="370" y="435" type="line"/>
      <point x="370" y="490" type="line"/>
      <point x="341" y="500"/>
      <point x="298" y="500" type="qcurve"/>
      <point x="160" y="500"/>
      <point x="137" y="345" type="qcurve"/>
      <point x="362" y="345" type="line"/>
      <point x="352" y="300" type="line"/>
      <point x="133" y="300" type="line"/>
      <point x="132" y="288"/>
      <point x="132" y="274" type="qcurve"/>
      <point x="132" y="257"/>
      <point x="133" y="240" type="qcurve"/>
      <point x="340" y="240" type="line"/>
      <point x="330" y="195" type="line"/>
      <point x="138" y="195" type="line"/>
      <point x="151" y="117"/>
      <point x="234" y="40"/>
      <point x="300" y="40" type="qcurve"/>
      <point x="353" y="40"/>
      <point x="420" y="63" type="qcurve"/>
      <point x="420" y="13" type="line"/>
      <point x="359" y="-10"/>
      <point x="297" y="-10" type="qcurve"/>
      <point x="206" y="-10"/>
      <point x="92" y="95"/>
      <point x="75" y="195" type="qcurve"/>
      <point x="19" y="195" type="line"/>
    </contour>
  </outline>
</glyph>
<glyph name="trademark" format="1">
  <advance width="840"/>
  <unicode hex="2122"/>
  <outline>
    <contour>
      <point x="100" y="267" type="line"/>
      <point x="152" y="267" type="line"/>
      <point x="152" y="493" type="line"/>
      <point x="87" y="493" type="line"/>
      <point x="87" y="430" type="line"/>
      <point x="40" y="430" type="line"/>
      <point x="40" y="540" type="line"/>
      <point x="320" y="540" type="line"/>
      <point x="320" y="430" type="line"/>
      <point x="275" y="430" type="line"/>
      <point x="275" y="493" type="line"/>
      <point x="207" y="493" type="line"/>
      <point x="207" y="267" type="line"/>
      <point x="260" y="267" type="line"/>
      <point x="260" y="220" type="line"/>
      <point x="100" y="220" type="line"/>
    </contour>
    <contour>
      <point x="700" y="466" type="line"/>
      <point x="601" y="218" type="line"/>
      <point x="560" y="218" type="line"/>
      <point x="459" y="459" type="line"/>
      <point x="457" y="459" type="line"/>
      <point x="450" y="267" type="line"/>
      <point x="490" y="267" type="line"/>
      <point x="490" y="220" type="line"/>
      <point x="355" y="220" type="line"/>
      <point x="355" y="267" type="line"/>
      <point x="402" y="267" type="line"/>
      <point x="411" y="493" type="line"/>
      <point x="360" y="493" type="line"/>
      <point x="360" y="540" type="line"/>
      <point x="484" y="540" type="line"/>
      <point x="583" y="303" type="line"/>
      <point x="585" y="303" type="line"/>
      <point x="681" y="540" type="line"/>
      <point x="802" y="540" type="line"/>
      <point x="802" y="493" type="line"/>
      <point x="754" y="493" type="line"/>
      <point x="763" y="267" type="line"/>
      <point x="810" y="267" type="line"/>
      <point x="810" y="220" type="line"/>
      <point x="670" y="220" type="line"/>
      <point x="670" y="267" type="line"/>
      <point x="710" y="267" type="line"/>
      <point x="702" y="466" type="line"/>
    </contour>
  </outline>
</glyph>
<glyph name="minus" format="1">
  <advance width="390"/>
  <unicode hex="2212"/>
  <outline>
    <contour>
      <point x="30" y="183" type="line"/>
      <point x="30" y="237" type="line"/>
      <point x="360" y="237" type="line"/>
      <point x="360" y="183" type="line"/>
    </contour>
  </outline>
</glyph>
<glyph name="f_f" format="1">
  <advance width="450"/>
  <unicode hex="FB00"/>
  <outline>
    <contour>
      <point x="502" y="500" type="line"/>
      <point x="450" y="500" type="line"/>
      <point x="450" y="554" type="line"/>
      <point x="435" y="557"/>
      <point x="420" y="557" type="qcurve"/>
      <point x="383" y="557"/>
      <point x="350" y="517"/>
      <point x="350" y="472" type="qcurve"/>
      <point x="350" y="390" type="line"/>
      <point x="440" y="390" type="line"/>
      <point x="440" y="340" type="line"/>
      <point x="350" y="340" type="line"/>
      <point x="350" y="50" type="line"/>
      <point x="400" y="50" type="line"/>
      <point x="400" y="0" type="line"/>
      <point x="240" y="0" type="line"/>
      <point x="240" y="50" type="line"/>
      <point x="290" y="50" type="line"/>
      <point x="290" y="340" type="line"/>
      <point x="140" y="340" type="line"/>
      <point x="140" y="50" type="line"/>
      <point x="190" y="50" type="line"/>
      <point x="190" y="0" type="line"/>
      <point x="30" y="0" type="line"/>
      <point x="30" y="50" type="line"/>
      <point x="80" y="50" type="line"/>
      <point x="80" y="340" type="line"/>
      <point x="30" y="340" type="line"/>
      <point x="30" y="390" type="line"/>
      <point x="80" y="390" type="line"/>
      <point x="80" y="460" type="line"/>
      <point x="80" y="500"/>
      <point x="101" y="553"/>
      <point x="137" y="586"/>
      <point x="184" y="600"/>
      <point x="210" y="600" type="qcurve"/>
      <point x="251" y="600"/>
      <point x="290" y="582" type="qcurve"/>
      <point x="290" y="530" type="line"/>
      <point x="253" y="552"/>
      <point x="214" y="552" type="qcurve"/>
      <point x="172" y="552"/>
      <point x="140" y="512"/>
      <point x="140" y="469" type="qcurve"/>
      <point x="140" y="390" type="line"/>
      <point x="290" y="390" type="line"/>
      <point x="290" y="463" type="line"/>
      <point x="290" y="535"/>
      <point x="359" y="605"/>
      <point x="419" y="605" type="qcurve"/>
      <point x="459" y="605"/>
      <point x="502" y="590" type="qcurve"/>
    </contour>
  </outline>
</glyph>
<glyph name="f_i" format="1">
  <advance width="420"/>
  <unicode hex="FB01"/>
  <outline>
    <contour>
      <point x="350" y="480" type="line"/>
      <point x="290" y="480" type="line"/>
      <point x="290" y="551" type="line"/>
      <point x="264" y="557"/>
      <point x="236" y="557" type="qcurve"/>
      <point x="185" y="557"/>
      <point x="140" y="516"/>
      <point x="140" y="470" type="qcurve"/>
      <point x="140" y="390" type="line"/>
      <point x="350" y="390" type="line"/>
      <point x="350" y="50" type="line"/>
      <point x="400" y="50" type="line"/>
      <point x="400" y="0" type="line"/>
      <point x="240" y="0" type="line"/>
      <point x="240" y="50" type="line"/>
      <point x="290" y="50" type="line"/>
      <point x="290" y="340" type="line"/>
      <point x="140" y="340" type="line"/>
      <point x="140" y="50" type="line"/>
      <point x="190" y="50" type="line"/>
      <point x="190" y="0" type="line"/>
      <point x="30" y="0" type="line"/>
      <point x="30" y="50" type="line"/>
      <point x="80" y="50" type="line"/>
      <point x="80" y="340" type="line"/>
      <point x="30" y="340" type="line"/>
      <point x="30" y="390" type="line"/>
      <point x="80" y="390" type="line"/>
      <point x="80" y="463" type="line"/>
      <point x="80" y="533"/>
      <point x="158" y="605"/>
      <point x="238" y="605" type="qcurve"/>
      <point x="296" y="605"/>
      <point x="350" y="588" type="qcurve"/>
    </contour>
  </outline>
</glyph>
<glyph name="f_l" format="1">
  <advance width="420"/>
  <unicode hex="FB02"/>
  <outline>
    <contour>
      <point x="350" y="602" type="line"/>
      <point x="350" y="50" type="line"/>
      <point x="400" y="50" type="line"/>
      <point x="400" y="0" type="line"/>
      <point x="250" y="0" type="line"/>
      <point x="250" y="50" type="line"/>
      <point x="290" y="50" type="line"/>
      <point x="290" y="549" type="line"/>
      <point x="265" y="557"/>
      <point x="234" y="557" type="qcurve"/>
      <point x="184" y="557"/>
      <point x="140" y="516"/>
      <point x="140" y="472" type="qcurve"/>
      <point x="140" y="390" type="line"/>
      <point x="230" y="390" type="line"/>
      <point x="230" y="340" type="line"/>
      <point x="140" y="340" type="line"/>
      <point x="140" y="50" type="line"/>
      <point x="180" y="50" type="line"/>
      <point x="180" y="0" type="line"/>
      <point x="30" y="0" type="line"/>
      <point x="30" y="50" type="line"/>
      <point x="80" y="50" type="line"/>
      <point x="80" y="340" type="line"/>
      <point x="30" y="340" type="line"/>
      <point x="30" y="390" type="line"/>
      <point x="80" y="390" type="line"/>
      <point x="80" y="463" type="line"/>
      <point x="80" y="535"/>
      <point x="162" y="605"/>
      <point x="233" y="605" type="qcurve"/>
      <point x="267" y="605"/>
      <point x="302" y="596" type="qcurve"/>
      <point x="346" y="602" type="line"/>
    </contour>
  </outline>
</glyph>
<glyph name="f_f_i" format="1">
  <advance width="630"/>
  <unicode hex="FB03"/>
  <outline>
    <contour>
      <point x="290" y="541" type="line"/>
      <point x="262" y="552"/>
      <point x="229" y="552" type="qcurve"/>
      <point x="179" y="552"/>
      <point x="140" y="511"/>
      <point x="140" y="467" type="qcurve"/>
      <point x="140" y="390" type="line"/>
      <point x="290" y="390" type="line"/>
      <point x="290" y="463" type="line"/>
      <point x="290" y="533"/>
      <point x="368" y="605"/>
      <point x="448" y="605" type="qcurve"/>
      <point x="506" y="605"/>
      <point x="560" y="588" type="qcurve"/>
      <point x="560" y="480" type="line"/>
      <point x="500" y="480" type="line"/>
      <point x="500" y="551" type="line"/>
      <point x="474" y="557"/>
      <point x="446" y="557" type="qcurve"/>
      <point x="395" y="557"/>
      <point x="350" y="516"/>
      <point x="350" y="470" type="qcurve"/>
      <point x="350" y="390" type="line"/>
      <point x="560" y="390" type="line"/>
      <point x="560" y="50" type="line"/>
      <point x="610" y="50" type="line"/>
      <point x="610" y="0" type="line"/>
      <point x="450" y="0" type="line"/>
      <point x="450" y="50" type="line"/>
      <point x="500" y="50" type="line"/>
      <point x="500" y="340" type="line"/>
      <point x="350" y="340" type="line"/>
      <point x="350" y="50" type="line"/>
      <point x="400" y="50" type="line"/>
      <point x="400" y="0" type="line"/>
      <point x="240" y="0" type="line"/>
      <point x="240" y="50" type="line"/>
      <point x="290" y="50" type="line"/>
      <point x="290" y="340" type="line"/>
      <point x="140" y="340" type="line"/>
      <point x="140" y="50" type="line"/>
      <point x="190" y="50" type="line"/>
      <point x="190" y="0" type="line"/>
      <point x="30" y="0" type="line"/>
      <point x="30" y="50" type="line"/>
      <point x="80" y="50" type="line"/>
      <point x="80" y="340" type="line"/>
      <point x="30" y="340" type="line"/>
      <point x="30" y="390" type="line"/>
      <point x="80" y="390" type="line"/>
      <point x="80" y="458" type="line"/>
      <point x="80" y="530"/>
      <point x="157" y="600"/>
      <point x="228" y="600" type="qcurve"/>
      <point x="258" y="600"/>
      <point x="290" y="593" type="qcurve"/>
    </contour>
  </outline>
</glyph>
<glyph name="f_f_l" format="1">
  <advance width="630"/>
  <unicode hex="FB04"/>
  <outline>
    <contour>
      <point x="560" y="602" type="line"/>
      <point x="560" y="50" type="line"/>
      <point x="610" y="50" type="line"/>
      <point x="610" y="0" type="line"/>
      <point x="460" y="0" type="line"/>
      <point x="460" y="50" type="line"/>
      <point x="500" y="50" type="line"/>
      <point x="500" y="549" type="line"/>
      <point x="475" y="557"/>
      <point x="444" y="557" type="qcurve"/>
      <point x="394" y="557"/>
      <point x="350" y="516"/>
      <point x="350" y="472" type="qcurve"/>
      <point x="350" y="390" type="line"/>
      <point x="440" y="390" type="line"/>
      <point x="440" y="340" type="line"/>
      <point x="350" y="340" type="line"/>
      <point x="350" y="50" type="line"/>
      <point x="390" y="50" type="line"/>
      <point x="390" y="0" type="line"/>
      <point x="240" y="0" type="line"/>
      <point x="240" y="50" type="line"/>
      <point x="290" y="50" type="line"/>
      <point x="290" y="340" type="line"/>
      <point x="140" y="340" type="line"/>
      <point x="140" y="50" type="line"/>
      <point x="190" y="50" type="line"/>
      <point x="190" y="0" type="line"/>
      <point x="30" y="0" type="line"/>
      <point x="30" y="50" type="line"/>
      <point x="80" y="50" type="line"/>
      <point x="80" y="340" type="line"/>
      <point x="30" y="340" type="line"/>
      <point x="30" y="390" type="line"/>
      <point x="80" y="390" type="line"/>
      <point x="80" y="458" type="line"/>
      <point x="80" y="530"/>
      <point x="157" y="600"/>
      <point x="228" y="600" type="qcurve"/>
      <point x="258" y="600"/>
      <point x="290" y="593" type="qcurve"/>
      <point x="290" y="541" type="line"/>
      <point x="262" y="552"/>
      <point x="229" y="552" type="qcurve"/>
      <point x="179" y="552"/>
      <point x="140" y="511"/>
      <point x="140" y="467" type="qcurve"/>
      <point x="140" y="390" type="line"/>
      <point x="290" y="390" type="line"/>
      <point x="290" y="463" type="line"/>
      <point x="290" y="535"/>
      <point x="372" y="605"/>
      <point x="443" y="605" type="qcurve"/>
      <point x="477" y="605"/>
      <point x="512" y="596" type="qcurve"/>
      <point x="556" y="602" type="line"/>
    </contour>
  </outline>
</glyph>
<glyph name=".notdef" format="1">
  <advance width="390"/>
  <outline>
    <contour>
      <point x="390" y="26" type="line"/>
      <point x="390" y="0"/>
      <point x="364" y="0" type="qcurve"/>
      <point x="27" y="0" type="line"/>
      <point x="0" y="0"/>
      <point x="0" y="26" type="qcurve"/>
      <point x="0" y="514" type="line"/>
      <point x="0" y="540"/>
      <point x="27" y="540" type="qcurve"/>
      <point x="364" y="540" type="line"/>
      <point x="390" y="540"/>
      <point x="390" y="514" type="qcurve"/>
    </contour>
    <contour>
      <point x="209" y="246" type="line"/>
      <point x="255" y="253"/>
      <point x="316" y="318"/>
      <point x="316" y="366" type="qcurve"/>
      <point x="316" y="389"/>
      <point x="301" y="428"/>
      <point x="270" y="457"/>
      <point x="225" y="476"/>
      <point x="196" y="476" type="qcurve"/>
      <point x="157" y="476"/>
      <point x="100" y="456"/>
      <point x="94" y="451" type="qcurve"/>
      <point x="85" y="444"/>
      <point x="85" y="434" type="qcurve"/>
      <point x="85" y="424"/>
      <point x="97" y="408"/>
      <point x="106" y="408" type="qcurve"/>
      <point x="111" y="408"/>
      <point x="116" y="410" type="qcurve"/>
      <point x="123" y="413"/>
      <point x="157" y="426"/>
      <point x="184" y="426" type="qcurve"/>
      <point x="225" y="426"/>
      <point x="257" y="388"/>
      <point x="257" y="361" type="qcurve"/>
      <point x="257" y="325"/>
      <point x="218" y="290"/>
      <point x="187" y="288" type="qcurve"/>
      <point x="172" y="287"/>
      <point x="154" y="271"/>
      <point x="154" y="257" type="qcurve"/>
      <point x="154" y="190" type="line"/>
      <point x="154" y="176"/>
      <point x="167" y="165"/>
      <point x="179" y="165" type="qcurve"/>
      <point x="193" y="165"/>
      <point x="209" y="176"/>
      <point x="209" y="190" type="qcurve"/>
    </contour>
    <contour>
      <point x="143" y="94" type="qcurve"/>
      <point x="143" y="80"/>
      <point x="164" y="58"/>
      <point x="179" y="58" type="qcurve"/>
      <point x="197" y="58"/>
      <point x="220" y="80"/>
      <point x="220" y="94" type="qcurve"/>
      <point x="220" y="113"/>
      <point x="197" y="135"/>
      <point x="179" y="135" type="qcurve"/>
      <point x="164" y="135"/>
      <point x="143" y="113"/>
    </contour>
  </outline>
</glyph>
<glyph name="f.alt" format="1">
  <advance width="240"/>
  <outline>
    <contour>
      <point x="270" y="500" type="line"/>
      <point x="220" y="500" type="line"/>
      <point x="220" y="555" type="line"/>
      <point x="211" y="557"/>
      <point x="199" y="557" type="qcurve"/>
      <point x="167" y="557"/>
      <point x="140" y="518"/>
      <point x="140" y="476" type="qcurve"/>
      <point x="140" y="390" type="line"/>
      <point x="220" y="390" type="line"/>
      <point x="220" y="340" type="line"/>
      <point x="140" y="340" type="line"/>
      <point x="140" y="50" type="line"/>
      <point x="190" y="50" type="line"/>
      <point x="190" y="0" type="line"/>
      <point x="30" y="0" type="line"/>
      <point x="30" y="50" type="line"/>
      <point x="80" y="50" type="line"/>
      <point x="80" y="340" type="line"/>
      <point x="30" y="340" type="line"/>
      <point x="30" y="390" type="line"/>
      <point x="80" y="390" type="line"/>
      <point x="80" y="467" type="line"/>
      <point x="80" y="536"/>
      <point x="144" y="605"/>
      <point x="200" y="605" type="qcurve"/>
      <point x="237" y="605"/>
      <point x="270" y="592" type="qcurve"/>
    </contour>
  </outline>
</glyph>
